<?xml version="1.0" standalone="no"?>
<!DOCTYPE svg PUBLIC "-//W3C//DTD SVG 20010904//EN"
 "http://www.w3.org/TR/2001/REC-SVG-20010904/DTD/svg10.dtd">
<svg version="1.0" xmlns="http://www.w3.org/2000/svg"
 width="600.000000pt" height="1172.000000pt" viewBox="0 0 600.000000 1172.000000"
 preserveAspectRatio="xMidYMid meet">
<g transform="translate(0.000000,1172.000000) scale(0.100000,-0.100000)"
fill="#000000" stroke="none">
<path d="M3170 11704 c-8 -2 -141 -11 -295 -19 -321 -18 -471 -31 -535 -46
-25 -6 -86 -17 -137 -24 -51 -8 -109 -22 -130 -30 -21 -9 -105 -36 -188 -60
-195 -57 -377 -134 -440 -186 -27 -23 -75 -54 -105 -69 -30 -15 -113 -62 -184
-104 -70 -42 -130 -76 -133 -76 -24 0 -374 -337 -405 -389 -12 -20 -33 -49
-48 -66 -74 -82 -249 -407 -318 -591 -45 -119 -114 -375 -171 -634 -36 -165
-52 -299 -58 -490 -5 -174 -4 -192 20 -305 14 -66 38 -151 53 -190 36 -97 49
-142 78 -278 30 -138 67 -254 102 -316 13 -24 28 -60 34 -81 13 -48 38 -285
50 -476 10 -165 20 -258 49 -444 11 -69 24 -171 30 -227 6 -56 24 -150 41
-209 16 -59 30 -122 30 -140 0 -18 5 -36 10 -39 23 -14 30 58 31 313 1 147 4
292 8 322 l7 55 13 -30 c7 -16 19 -48 27 -69 8 -21 23 -53 34 -71 11 -18 20
-39 20 -47 0 -14 136 -226 167 -260 18 -20 43 -24 43 -8 0 6 -10 24 -22 40
-20 28 -21 36 -15 171 4 79 11 147 16 152 5 5 41 -5 87 -24 44 -17 103 -40
133 -51 65 -22 255 -48 350 -48 80 0 92 9 119 91 11 30 23 53 28 52 5 0 32 -7
61 -13 60 -15 80 -10 93 25 5 14 13 25 18 25 5 0 69 -29 143 -64 149 -71 339
-142 472 -177 48 -13 87 -26 87 -29 0 -3 -23 -20 -50 -38 -73 -48 -115 -87
-178 -166 -48 -60 -57 -67 -67 -52 -17 22 -38 21 -31 -2 12 -37 -65 -85 -267
-166 -131 -53 -269 -124 -282 -146 -4 -6 -23 -17 -42 -25 -32 -14 -133 -74
-308 -187 -33 -21 -78 -53 -99 -71 l-40 -34 43 -85 c33 -68 58 -101 125 -167
46 -44 89 -81 95 -81 6 0 11 -10 11 -21 0 -12 13 -44 30 -71 16 -26 30 -53 30
-58 0 -6 29 -42 65 -81 36 -39 65 -74 65 -78 0 -4 -24 -15 -53 -25 -104 -37
-112 -67 -33 -125 l54 -40 7 -128 c4 -70 12 -157 17 -193 6 -36 12 -249 15
-474 4 -408 4 -409 -18 -432 -24 -25 -23 -28 32 -95 l38 -46 -42 -12 c-45 -14
-100 -43 -132 -72 -11 -10 -40 -28 -64 -41 -67 -35 -71 -48 -36 -116 17 -31
42 -71 57 -88 33 -37 41 -77 17 -82 -11 -2 -21 8 -28 30 -15 42 -18 37 -69
-117 -67 -204 -84 -262 -80 -282 1 -11 -3 -27 -10 -36 -7 -8 -17 -46 -22 -84
-5 -37 -16 -93 -24 -123 -34 -114 -76 -705 -52 -713 8 -3 7 -9 -3 -21 -10 -12
-16 -60 -21 -164 -3 -81 -9 -152 -13 -158 -12 -20 -37 -372 -36 -514 0 -62 15
-187 28 -235 6 -22 11 -87 11 -145 l0 -105 -492 6 c-423 5 -499 9 -537 23 -48
18 -63 14 -40 -9 24 -25 111 -33 393 -39 148 -3 365 -11 483 -17 l213 -13 0
-43 c0 -51 14 -83 37 -83 13 0 14 10 8 66 l-7 67 44 -7 c23 -3 93 -10 153 -15
61 -6 173 -19 250 -30 77 -11 226 -27 330 -36 105 -9 242 -22 305 -31 63 -8
160 -19 215 -24 143 -13 305 -32 765 -89 598 -74 890 -94 1012 -69 45 9 104 9
266 0 256 -15 474 -38 519 -54 28 -10 36 -10 42 1 7 11 67 11 342 2 289 -10
716 -13 574 -4 -27 1 -104 7 -170 13 -160 14 -448 29 -617 32 -129 2 -137 3
-146 24 -29 61 -127 446 -153 596 -16 95 -41 216 -54 268 -14 52 -38 145 -54
205 -16 61 -45 190 -65 288 -42 206 -105 415 -182 607 -30 74 -54 139 -54 143
0 5 -22 68 -49 140 -27 73 -68 190 -91 261 l-42 128 58 59 c32 32 63 59 69 59
16 -1 147 -273 140 -291 -3 -8 -26 -25 -50 -37 -50 -24 -50 -26 -34 -120 9
-48 8 -70 0 -89 -16 -35 2 -55 27 -30 14 15 17 34 15 107 -2 82 0 90 17 90 17
0 70 52 70 70 0 14 -50 127 -101 227 l-46 93 53 53 c30 30 54 62 54 71 0 10
-16 34 -35 53 l-36 36 2 786 c0 432 4 807 7 833 6 42 12 50 57 80 60 40 80 82
50 105 -11 8 -32 17 -48 20 -15 3 -30 10 -33 15 -8 12 24 46 61 65 16 9 59 43
96 77 36 33 101 83 145 110 43 27 96 60 116 74 58 38 208 182 208 199 0 23
-495 510 -567 558 -24 15 -43 28 -43 29 0 1 9 20 19 42 23 46 50 155 86 344
34 179 34 180 43 180 4 0 23 -32 42 -71 19 -38 44 -82 56 -96 l21 -26 36 54
c44 66 229 263 344 365 78 69 88 75 117 69 17 -4 73 -13 124 -20 55 -8 106
-22 125 -34 43 -27 79 -92 79 -143 -1 -33 1 -38 14 -27 35 29 76 249 90 491 4
60 11 111 15 114 5 2 15 -21 24 -53 8 -32 23 -83 33 -113 18 -60 150 -332 176
-365 14 -19 15 -19 16 -2 0 10 -14 50 -31 89 -44 99 -58 143 -73 223 -42 215
-56 513 -61 1325 -3 359 -10 676 -15 715 -6 39 -19 120 -30 180 -11 61 -27
175 -35 255 -8 80 -26 188 -39 240 -13 52 -31 126 -40 164 -9 39 -33 108 -52
155 -20 47 -42 106 -49 131 -7 25 -29 80 -49 124 -20 43 -36 84 -36 91 0 6
-22 56 -49 111 -61 126 -113 195 -298 396 -46 50 -83 94 -83 98 0 9 -163 151
-260 226 -92 72 -225 149 -326 190 -137 55 -368 132 -421 139 -26 4 -129 27
-228 51 -224 53 -267 61 -434 74 -135 10 -183 11 -211 4z m350 -60 c170 -24
529 -107 680 -157 25 -8 90 -29 145 -47 211 -67 471 -240 655 -437 204 -219
310 -349 367 -451 43 -77 143 -314 143 -339 0 -10 12 -38 26 -62 13 -25 34
-78 45 -119 11 -41 24 -83 29 -92 23 -43 73 -292 91 -450 10 -96 30 -233 43
-305 35 -187 36 -211 46 -955 8 -615 24 -981 46 -1087 3 -18 3 -33 -2 -33 -18
0 -124 428 -124 500 0 29 -24 69 -35 58 -4 -4 -2 -94 5 -200 11 -193 2 -500
-18 -573 -11 -41 -41 -42 -229 -10 -83 14 -161 25 -174 25 -41 0 -302 -242
-441 -409 -15 -18 -32 -30 -38 -26 -5 3 -33 49 -61 101 -28 52 -57 94 -64 94
-24 0 -45 -68 -56 -177 -16 -170 -47 -373 -60 -387 -17 -19 -19 48 -11 354 5
173 10 457 11 630 2 173 6 383 10 465 l6 150 28 3 c34 4 35 25 1 40 -23 11
-25 16 -20 55 3 23 8 121 12 217 3 96 10 207 14 245 5 39 12 126 16 195 7 129
14 160 39 160 20 0 19 16 -1 24 -13 5 -16 18 -12 71 4 59 2 65 -14 59 -10 -3
-18 -1 -18 4 0 6 5 12 11 14 16 5 27 146 28 339 1 133 3 158 17 163 25 10 94
7 116 -5 16 -8 24 -8 35 4 14 13 13 16 -3 25 -11 5 -50 12 -87 15 -37 2 -71 7
-73 10 -3 3 -10 59 -15 124 -27 350 -43 474 -65 511 -17 26 -39 30 -29 5 13
-36 25 -123 45 -343 11 -124 22 -246 24 -272 l5 -48 -38 0 c-21 0 -43 6 -49
13 -28 34 -84 424 -107 747 -11 153 -26 253 -40 274 -8 11 -15 29 -15 40 0 14
-3 17 -11 9 -6 -6 -15 -59 -20 -119 -25 -293 -96 -503 -267 -789 -144 -240
-179 -264 -146 -103 24 117 15 616 -15 828 -24 168 -39 240 -52 240 -15 0 -49
-63 -49 -92 0 -15 -5 -39 -11 -55 -6 -15 -21 -65 -35 -109 -13 -45 -42 -128
-64 -185 -48 -120 -208 -429 -222 -429 -6 0 -8 7 -4 15 13 35 59 294 82 460
33 250 31 469 -4 430 -10 -11 -57 -158 -71 -225 -6 -25 -22 -116 -36 -203 -14
-86 -52 -283 -85 -436 -33 -153 -61 -300 -62 -325 0 -26 -5 -49 -9 -52 -4 -2
-27 32 -50 76 -51 99 -75 130 -100 130 -10 0 -19 -3 -19 -6 0 -4 20 -37 45
-74 25 -37 45 -75 45 -84 0 -9 4 -16 10 -16 5 0 17 -14 26 -32 13 -26 14 -38
6 -62 -6 -17 -25 -98 -42 -181 -35 -168 -58 -255 -68 -255 -4 0 -29 39 -56 88
-28 48 -62 105 -77 127 -14 22 -56 102 -92 179 -37 76 -91 175 -122 220 l-55
82 0 87 c0 48 -4 87 -9 87 -16 0 -30 -26 -25 -47 3 -11 1 -24 -5 -28 -35 -21
-179 417 -215 650 -29 192 -31 263 -7 324 14 34 18 58 13 63 -21 21 -52 -16
-102 -119 -48 -102 -220 -431 -309 -593 -23 -41 -52 -94 -63 -117 -12 -24 -26
-43 -30 -43 -13 0 -10 14 16 71 69 158 229 605 266 747 6 23 15 42 20 42 6 0
10 16 10 35 0 71 -20 41 -65 -100 -11 -35 -25 -56 -46 -70 -17 -11 -37 -31
-44 -45 -7 -14 -29 -57 -49 -96 -20 -39 -36 -76 -36 -82 0 -5 -16 -34 -36 -63
-19 -29 -40 -73 -47 -97 -6 -24 -17 -47 -24 -49 -7 -3 -13 -14 -13 -25 0 -11
-8 -32 -19 -46 -28 -40 -196 -377 -241 -483 -42 -101 -60 -118 -128 -119 -27
0 -32 3 -28 18 2 9 19 73 36 141 57 228 154 522 223 681 25 58 48 117 52 131
4 15 20 39 36 55 31 29 38 54 16 54 -8 0 -21 -8 -29 -17 -35 -40 -107 -173
-127 -236 -14 -42 -36 -81 -57 -104 -19 -20 -34 -37 -34 -39 0 -2 14 -1 31 3
25 5 31 3 27 -8 -3 -8 -20 -16 -39 -19 -31 -5 -37 -12 -71 -80 -21 -41 -38
-84 -38 -95 0 -12 -5 -26 -12 -33 -6 -6 -22 -44 -34 -84 -28 -93 -50 -152 -76
-206 -11 -24 -28 -75 -38 -113 -10 -39 -20 -72 -22 -74 -2 -2 -42 -7 -89 -11
l-87 -7 4 24 c1 13 11 68 20 122 14 76 15 100 5 110 -20 20 -28 -6 -42 -130
-14 -132 -15 -133 -120 -133 -61 0 -75 -11 -37 -31 16 -9 34 -9 74 0 30 7 58
10 62 7 5 -3 12 -58 16 -123 3 -65 15 -160 26 -212 11 -52 20 -102 20 -112 0
-22 -16 -27 -121 -39 -87 -10 -129 -31 -99 -50 19 -12 93 -13 106 -1 5 5 25
11 44 13 l35 3 0 -59 c0 -42 -4 -61 -15 -66 -90 -43 -99 -67 -32 -89 48 -15
74 -50 54 -74 -7 -8 -38 -19 -69 -26 -104 -22 -104 -22 -80 -55 13 -18 15 -17
53 2 21 10 55 22 74 26 26 4 38 13 48 36 13 28 32 41 32 21 0 -5 -13 -35 -30
-66 -16 -31 -30 -65 -30 -74 0 -28 -61 -213 -83 -253 -14 -26 -42 -51 -87 -77
-86 -51 -175 -130 -161 -144 6 -6 28 6 63 35 57 48 168 122 174 115 2 -2 -15
-59 -37 -128 -56 -167 -57 -208 -3 -319 22 -47 60 -107 83 -133 23 -27 51 -67
62 -88 11 -22 26 -42 34 -46 10 -3 13 -13 8 -31 -5 -20 -3 -24 10 -19 17 6 33
-5 147 -101 139 -117 155 -130 207 -171 62 -49 83 -77 83 -113 0 -33 -5 -34
-65 -8 -83 35 -98 27 -125 -72 l-17 -61 -69 2 c-163 5 -239 20 -419 82 -97 34
-178 60 -180 58 -2 -3 -7 -67 -12 -143 l-8 -139 -44 62 c-24 34 -56 95 -71
134 -16 40 -42 102 -59 140 -17 37 -38 98 -46 135 -38 181 -45 139 -45 -260 0
-199 -4 -358 -8 -353 -11 13 -78 455 -97 640 -36 354 -47 599 -47 1040 2 702
15 910 101 1570 22 165 47 360 56 433 9 73 23 151 30 172 13 38 7 59 -14 46
-5 -4 -22 -39 -37 -79 -14 -39 -35 -81 -45 -93 -45 -49 -172 -394 -219 -594
-12 -52 -31 -122 -41 -155 -43 -143 -74 -367 -89 -645 -5 -102 -10 -196 -10
-209 0 -16 -4 -21 -9 -15 -18 18 -31 169 -31 368 0 231 9 294 90 659 68 305
131 488 252 733 81 164 127 236 213 334 31 36 69 83 83 105 34 53 139 161 237
245 86 72 218 158 356 232 47 26 124 71 171 101 127 82 167 100 376 166 346
110 508 138 987 171 160 11 313 21 340 23 76 6 238 -3 355 -19z m-1102 -1241
c9 -234 126 -685 221 -848 39 -66 39 -76 14 -204 l-16 -84 -44 89 c-25 49 -48
93 -53 97 -4 5 -20 -8 -34 -29 -20 -30 -26 -51 -26 -91 0 -36 -4 -53 -13 -53
-7 0 -39 28 -72 61 -76 78 -132 119 -161 119 -12 0 -44 -18 -70 -41 -26 -22
-59 -45 -73 -51 -14 -5 -113 -12 -220 -15 l-193 -6 7 24 c22 68 482 999 495
999 14 0 15 4 -34 -112 -105 -247 -235 -625 -251 -730 -7 -49 1 -108 15 -108
5 0 14 26 20 57 8 37 55 141 133 293 66 129 170 333 231 452 61 120 114 218
117 218 3 0 6 -17 7 -37z m1447 -178 c30 -204 37 -327 31 -540 -6 -189 -15
-296 -32 -377 -5 -26 -8 -28 -47 -22 -49 7 -111 34 -149 65 -34 28 -48 18 -48
-36 l0 -45 -53 55 c-29 30 -59 55 -66 55 -7 0 -41 -29 -76 -65 -37 -38 -73
-65 -85 -65 -17 0 -14 8 24 58 54 71 286 514 354 677 45 107 90 267 109 380
l6 40 8 -35 c5 -19 16 -84 24 -145z m-315 138 c-1 -60 -69 -520 -90 -603 -10
-41 -23 -117 -29 -169 -11 -99 -52 -207 -100 -261 l-23 -25 7 25 c3 14 17 66
31 115 30 113 118 548 139 692 8 59 22 134 30 166 8 32 15 61 15 63 0 2 5 4
10 4 6 0 10 -3 10 -7z m830 -104 c-12 -22 -30 -25 -30 -6 0 17 21 38 32 31 4
-3 3 -14 -2 -25z m-5 -68 c3 -5 8 -74 11 -153 6 -151 42 -437 76 -602 14 -73
17 -101 8 -106 -16 -10 -343 -19 -408 -11 l-52 6 51 80 c147 227 289 602 289
760 0 33 12 46 25 26z m-3889 -140 c-3 -37 -13 -88 -21 -112 -9 -24 -22 -120
-30 -214 -9 -93 -26 -243 -40 -332 -14 -89 -25 -188 -25 -220 0 -32 -7 -119
-15 -193 -16 -139 -34 -630 -35 -920 0 -161 -6 -240 -19 -240 -3 0 -35 116
-70 258 -60 240 -65 268 -73 422 -16 288 6 629 51 780 28 94 46 163 72 270 24
103 146 472 175 533 27 57 38 46 30 -32z m1162 -128 c2 -8 -5 -13 -17 -13 -21
0 -35 13 -24 24 10 10 36 3 41 -11z m-18 -37 c0 -1 -23 -72 -51 -157 -28 -85
-62 -206 -75 -268 -25 -114 -36 -141 -58 -141 -37 1 -34 18 44 250 44 129 80
244 80 255 0 27 27 65 46 65 8 0 14 -2 14 -4z m337 -228 c-3 -8 -6 -5 -6 6 -1
11 2 17 5 13 3 -3 4 -12 1 -19z m-12 -48 c3 -6 -1 -13 -10 -16 -19 -8 -30 0
-20 15 8 14 22 14 30 1z m1519 -56 c3 -8 2 -12 -4 -9 -6 3 -10 10 -10 16 0 14
7 11 14 -7z m-1135 -207 c101 -97 157 -141 169 -133 5 3 12 37 14 76 8 108 18
107 63 -11 14 -36 32 -74 39 -84 13 -18 14 -17 29 11 8 16 25 66 38 112 12 45
25 82 30 82 10 0 59 -80 101 -165 120 -240 134 -265 304 -543 17 -28 48 -70
68 -92 l36 -40 189 0 c206 0 311 -8 311 -23 0 -6 -109 -8 -292 -7 -365 3 -358
3 -358 -15 0 -10 16 -16 50 -21 34 -4 54 -13 60 -25 6 -9 33 -26 62 -36 49
-16 89 -18 510 -15 l457 3 103 -36 c57 -20 132 -39 167 -42 l63 -6 -7 -72 c-3
-40 -10 -89 -15 -109 -4 -21 -6 -79 -3 -130 5 -81 -8 -231 -23 -271 -7 -18
-90 -52 -192 -78 -63 -16 -88 -27 -90 -40 -2 -11 3 -17 15 -17 34 0 176 40
232 66 55 25 73 25 53 1 -12 -14 -16 -53 -33 -332 -15 -246 -16 -252 -80 -326
-95 -110 -170 -163 -373 -264 -104 -52 -197 -95 -206 -95 -9 0 -56 -16 -104
-35 -48 -20 -96 -33 -106 -30 -10 3 -20 0 -23 -8 -3 -9 -36 -19 -84 -26 -43
-7 -120 -19 -172 -28 -118 -19 -468 -14 -514 8 -26 11 -30 11 -38 -4 -13 -22
-25 -22 -32 2 -3 12 -18 21 -43 25 -21 4 -47 14 -58 22 -12 8 -45 14 -79 14
-96 0 -369 61 -419 94 -13 8 -66 31 -118 50 -138 50 -161 61 -205 96 -22 17
-64 43 -93 57 -29 14 -86 56 -127 94 -41 38 -80 69 -87 69 -17 0 -246 211
-300 275 -46 56 -135 190 -167 253 -11 23 -21 56 -21 74 0 39 49 210 62 219 5
3 17 32 27 65 11 37 23 59 32 59 11 0 13 -16 10 -82 -2 -65 0 -83 10 -83 24 0
219 98 219 110 0 17 -54 3 -122 -31 -32 -16 -60 -29 -63 -29 -3 0 -5 32 -5 70
l0 71 -31 6 c-23 4 -28 10 -23 22 28 65 55 149 68 213 20 95 24 106 47 118 10
6 92 17 181 26 152 14 226 23 465 55 75 10 105 10 162 -1 56 -10 73 -11 85 -1
8 7 13 18 10 25 -6 17 58 26 177 26 52 0 91 4 95 11 3 6 -8 26 -26 44 -22 23
-28 34 -18 38 65 23 -187 30 -322 9 -173 -27 -790 -54 -790 -34 0 18 58 30
195 42 72 6 211 22 310 36 111 15 266 28 405 33 193 8 233 12 283 31 31 12 57
26 57 31 0 21 -35 21 -115 -1 -46 -12 -91 -20 -99 -17 -8 3 -122 1 -253 -4
-239 -10 -379 -5 -320 12 16 4 115 17 220 29 308 34 400 51 379 72 -12 12
-212 -6 -347 -31 -160 -31 -545 -58 -545 -39 0 4 18 56 41 115 23 60 47 126
54 148 7 22 33 90 59 150 l45 110 218 5 c242 6 263 11 322 74 19 20 39 36 44
36 6 0 49 -37 96 -83z m1231 -77 c27 -27 52 -50 57 -50 15 0 33 23 33 41 0 28
18 32 49 10 18 -13 45 -21 70 -21 23 0 41 -4 41 -8 0 -16 -70 -124 -110 -169
-28 -32 -37 -50 -30 -57 7 -7 1 -19 -17 -38 -30 -31 -21 -37 17 -11 102 69
224 192 276 279 10 17 33 19 246 25 130 4 245 10 256 13 29 10 35 -5 82 -195
43 -176 51 -278 29 -380 l-11 -51 -37 6 c-253 40 -1193 61 -1273 28 -36 -15
-35 -27 2 -41 39 -13 38 -28 -1 -36 -65 -15 -86 53 -58 192 25 121 108 396
122 405 7 4 29 8 49 8 32 0 43 7 79 50 24 28 51 50 61 50 11 0 41 -22 68 -50z
m433 37 c3 -7 -3 -13 -14 -14 -12 -1 -16 3 -12 13 6 18 19 18 26 1z m-2531 -3
c3 -3 2 -20 -3 -37 -4 -18 -15 -123 -23 -234 -9 -110 -19 -208 -22 -217 -7
-18 -68 -40 -89 -32 -17 6 -19 40 -5 82 5 16 17 85 25 154 9 69 21 156 28 194
12 63 16 71 42 82 35 15 40 16 47 8z m128 2 c0 -2 -22 -62 -49 -132 -26 -71
-52 -144 -55 -162 -10 -42 -30 -42 -22 1 3 17 10 75 16 127 14 133 19 150 43
160 23 9 67 13 67 6z m3010 -146 c0 -77 -4 -140 -9 -140 -5 0 -23 55 -41 121
-17 67 -34 127 -37 134 -4 13 17 21 65 24 22 1 22 0 22 -139z m-3265 99 c4 -6
-2 -21 -14 -33 -12 -12 -21 -30 -21 -38 0 -9 -16 -67 -35 -128 -19 -61 -35
-122 -35 -135 0 -46 -19 -35 -29 17 -9 43 -30 254 -31 305 0 20 154 31 165 12z
m2529 -57 c-31 -54 -61 -89 -69 -80 -14 14 70 142 87 132 5 -3 -3 -27 -18 -52z
m-2533 -49 c-12 -20 -14 -14 -5 12 4 9 9 14 11 11 3 -2 0 -13 -6 -23z m2454
-53 c3 -5 -1 -10 -9 -10 -9 0 -16 5 -16 10 0 6 4 10 9 10 6 0 13 -4 16 -10z
m-2470 -19 c3 -5 2 -12 -3 -15 -5 -3 -9 1 -9 9 0 17 3 19 12 6z m2429 -20 c3
-5 -1 -14 -8 -20 -16 -13 -32 2 -21 19 8 12 22 13 29 1z m-2444 -30 c0 -20
-17 -37 -27 -28 -7 8 7 47 18 47 5 0 9 -9 9 -19z m-4 -69 c-2 -10 -7 -48 -11
-86 -6 -60 -11 -74 -37 -98 -31 -29 -30 -32 11 -28 23 2 23 1 8 -15 -10 -9
-17 -26 -17 -39 0 -12 -7 -31 -15 -42 -14 -19 -14 -19 -16 1 0 11 0 32 1 47 1
15 -5 30 -14 35 -14 7 -13 13 9 43 14 21 31 68 40 115 9 44 19 83 22 88 8 13
24 -4 19 -21z m14 -192 c0 -5 -5 -10 -11 -10 -5 0 -7 5 -4 10 3 6 8 10 11 10
2 0 4 -4 4 -10z m130 -5 c0 -8 -6 -15 -14 -15 -8 0 -16 -6 -19 -12 -3 -10 -7
-10 -20 1 -16 13 -16 15 0 27 24 18 53 17 53 -1z m-86 -41 c20 -8 20 -23 -1
-46 -26 -29 -53 -23 -53 11 0 35 20 48 54 35z m386 -14 c39 -12 11 -17 -163
-30 -162 -13 -184 -10 -171 23 5 15 25 17 158 16 83 -1 162 -4 176 -9z m2080
-29 c0 -12 -62 -19 -255 -30 -163 -10 -205 -7 -205 16 0 12 9 14 43 10 23 -3
96 -2 162 2 178 12 255 12 255 2z m-507 -16 c1 -5 -6 -11 -15 -13 -11 -2 -18
3 -18 13 0 17 30 18 33 0z m597 3 c0 -7 -45 -17 -74 -16 -17 1 -17 2 -2 13 17
13 76 15 76 3z m57 -4 c-3 -3 -12 -4 -19 -1 -8 3 -5 6 6 6 11 1 17 -2 13 -5z
m626 -15 c4 -16 3 -18 -9 -8 -16 13 -19 29 -5 29 5 0 11 -9 14 -21z m-3313
-13 c-7 -7 -13 -7 -20 0 -6 6 -3 10 10 10 13 0 16 -4 10 -10z m3082 -11 c37
-7 93 -26 125 -42 53 -26 59 -31 64 -68 4 -22 5 -42 3 -44 -2 -3 -17 7 -32 22
-41 39 -73 47 -195 48 -62 0 -150 4 -197 9 -47 5 -137 12 -200 15 -144 7 -200
14 -200 24 0 10 90 30 178 41 117 13 381 11 454 -5z m-1008 -1 c21 -8 21 -44
-1 -44 -18 0 -53 28 -53 42 0 9 31 11 54 2z m361 -3 c3 -5 -4 -13 -16 -16 -26
-9 -72 2 -64 15 8 13 72 13 80 1z m769 0 c4 -5 -3 -7 -14 -4 -23 6 -26 13 -6
13 8 0 17 -4 20 -9z m86 -7 c0 -9 -7 -14 -17 -12 -25 5 -28 28 -4 28 12 0 21
-6 21 -16z m-3317 -19 c41 -36 33 -49 -13 -19 -22 15 -40 31 -40 35 0 16 25 9
53 -16z m2343 20 c12 -3 24 -10 27 -17 3 -10 -20 -12 -107 -10 -115 4 -122 5
-113 19 6 9 161 16 193 8z m-1272 -21 c34 -13 12 -21 -76 -28 -101 -8 -130
-18 -121 -43 4 -10 2 -14 -7 -11 -43 14 -1 68 61 78 58 10 124 11 143 4z
m-424 -14 c18 -11 12 -18 -20 -21 -44 -4 -80 1 -80 10 0 19 75 27 100 11z
m480 -11 c0 -6 -4 -7 -10 -4 -5 3 -10 11 -10 16 0 6 5 7 10 4 6 -3 10 -11 10
-16z m-1156 -4 c13 -10 16 -20 11 -32 -5 -10 -7 -26 -6 -35 2 -12 -5 -18 -19
-18 -19 0 -21 4 -15 29 7 34 -9 44 -55 34 -33 -6 -41 10 -12 26 25 15 74 13
96 -4z m876 5 c0 -18 -39 -30 -95 -30 -41 0 -56 3 -53 13 8 21 148 38 148 17z
m-410 -9 c0 -5 -9 -7 -20 -4 -11 3 -20 7 -20 9 0 2 9 4 20 4 11 0 20 -4 20 -9z
m80 0 c0 -6 -5 -13 -10 -16 -15 -9 -43 3 -35 15 8 13 45 13 45 1z m-46 -41 c5
-5 7 -13 3 -17 -4 -4 -12 -2 -17 3 -12 12 -259 -15 -378 -40 -40 -9 -75 -16
-78 -16 -11 0 -2 30 15 51 17 21 30 24 132 30 140 9 309 3 323 -11z m147 5
c39 13 58 13 68 1 8 -10 1 -13 -32 -13 -23 -1 -51 -4 -62 -8 -14 -4 -24 0 -32
14 -12 19 -11 20 13 10 15 -5 35 -7 45 -4z m1939 5 c0 -14 28 -12 33 3 3 9 8
9 21 -2 9 -8 53 -17 97 -21 74 -7 99 -13 88 -25 -3 -2 -54 -5 -114 -6 -184 -2
-227 0 -220 11 3 6 15 10 25 10 10 0 22 9 25 20 6 20 45 29 45 10z m-2020 -9
c0 -12 -20 -25 -27 -18 -7 7 6 27 18 27 5 0 9 -4 9 -9z m-1670 -48 c0 -13 -4
-23 -9 -23 -12 0 -21 38 -14 57 8 20 23 -3 23 -34z m3976 35 c3 -4 -1 -5 -10
-4 -8 1 -18 5 -22 8 -3 4 1 5 10 4 8 -1 18 -5 22 -8z m385 -15 c10 -10 -107
-7 -171 6 -35 6 -22 8 59 6 57 -2 107 -7 112 -12z m-306 -3 c4 -6 -7 -10 -24
-10 -17 0 -31 5 -31 10 0 6 11 10 24 10 14 0 28 -4 31 -10z m-649 -10 c153
-12 194 -18 194 -29 0 -12 -342 -4 -410 9 -147 28 -32 39 216 20z m574 -15 c0
-8 -7 -15 -15 -15 -8 0 -15 7 -15 15 0 8 7 15 15 15 8 0 15 -7 15 -15z m275
-6 c172 -13 185 -16 185 -34 0 -19 -32 -35 -70 -35 -35 0 -176 31 -252 56 -47
15 -70 43 -25 30 12 -4 85 -11 162 -17z m190 -89 c-3 -5 -12 -10 -18 -10 -7 0
-6 4 3 10 19 12 23 12 15 0z m-3440 -339 c-3 -6 -11 -11 -17 -11 -6 0 -6 6 2
15 14 17 26 13 15 -4z m3418 -295 c9 5 9 4 0 -6 -15 -17 -34 -4 -25 18 6 16 7
16 10 -1 2 -10 9 -14 15 -11z m1179 -395 c1 -18 6 -35 10 -37 5 -3 3 -15 -3
-26 -20 -36 -29 10 -20 96 2 20 11 -2 13 -33z m-1227 -275 c2 -18 -2 -25 -19
-28 -14 -3 -23 0 -23 8 0 7 7 10 14 7 8 -3 13 -2 12 3 -1 5 -1 18 0 28 1 26
13 13 16 -18z m1336 1 c-10 -9 -11 -8 -5 6 3 10 9 15 12 12 3 -3 0 -11 -7 -18z
m-1351 -67 c-7 -14 -7 -52 0 -127 5 -60 10 -116 10 -125 0 -31 -20 -19 -36 22
-22 55 -56 80 -110 80 -24 0 -44 2 -44 5 0 3 19 24 43 48 24 23 50 51 58 63
31 44 101 75 79 34z m-3920 -81 c0 -5 -4 -9 -10 -9 -5 0 -10 7 -10 16 0 8 5
12 10 9 6 -3 10 -10 10 -16z m1169 -38 c2 -1 -2 -8 -9 -16 -11 -13 -15 -13
-21 -3 -16 25 -12 27 30 19z m2541 -26 c-7 -8 -17 -15 -23 -15 -6 0 -2 7 9 15
25 19 30 19 14 0z m1375 -64 c-3 -12 -11 -21 -16 -21 -16 0 -22 29 -9 46 17
20 34 3 25 -25z m-1243 -1 c10 -12 18 -30 18 -40 0 -10 14 -29 32 -41 l31 -23
-6 -319 c-4 -176 -9 -322 -11 -325 -3 -2 -36 14 -73 36 -182 111 -233 138
-352 188 -63 26 -121 47 -129 47 -7 0 -63 47 -123 104 -60 57 -116 103 -124
103 -26 0 -16 29 15 45 16 8 34 15 40 15 6 0 18 7 26 15 9 8 30 15 48 15 19 0
39 7 46 14 6 8 28 20 48 26 20 6 73 29 117 50 219 108 256 121 320 116 46 -3
64 -10 77 -26z m239 -203 c-8 -8 -11 -7 -11 4 0 20 13 34 18 19 3 -7 -1 -17
-7 -23z m-1021 -43 c0 -8 -7 -14 -15 -14 -15 0 -21 21 -9 33 10 9 24 -2 24
-19z m-1034 1 c32 -4 84 -15 114 -25 30 -10 92 -22 137 -25 96 -9 149 -34 73
-35 -25 0 -63 -5 -85 -10 -22 -5 -84 -13 -137 -16 -54 -4 -98 -10 -98 -14 0
-38 120 -38 308 0 56 11 126 20 154 20 33 0 62 7 83 20 23 14 63 22 151 30
135 11 174 18 192 33 9 7 20 6 37 -3 13 -7 37 -10 54 -8 17 3 31 0 31 -5 0 -6
-24 -36 -54 -67 -57 -59 -71 -94 -64 -161 2 -26 8 -34 22 -34 16 0 22 11 31
60 13 73 22 89 74 139 40 39 40 39 67 22 14 -10 52 -46 84 -79 216 -231 262
-281 285 -311 l25 -33 -123 -120 c-151 -150 -230 -216 -327 -276 -41 -25 -102
-69 -135 -96 -155 -130 -309 -211 -436 -232 -70 -11 -195 6 -389 53 -163 39
-221 68 -358 178 -118 95 -155 137 -203 233 -16 31 -45 82 -65 113 -20 31 -42
72 -51 91 l-14 36 44 46 c24 25 98 111 164 191 66 80 134 158 150 173 l30 28
107 -112 c58 -62 106 -115 106 -118 0 -3 -23 -21 -50 -40 -28 -18 -50 -37 -50
-40 0 -10 67 -41 87 -41 10 0 14 6 10 20 -4 14 6 30 34 55 21 19 39 38 39 41
0 4 -11 16 -24 28 -50 44 -206 219 -206 231 0 24 83 79 106 71 6 -2 37 -7 70
-11z m-1796 -10 c0 -8 -2 -15 -4 -15 -2 0 -6 7 -10 15 -3 8 -1 15 4 15 6 0 10
-7 10 -15z m2775 5 c3 -6 -1 -7 -9 -4 -18 7 -21 14 -7 14 6 0 13 -4 16 -10z
m-545 -55 c0 -16 -35 -21 -44 -6 -8 12 4 21 26 21 10 0 18 -7 18 -15z m88 3
c-7 -20 -58 -23 -58 -4 0 11 10 16 31 16 20 0 29 -4 27 -12z m-723 -8 c3 -5 1
-10 -4 -10 -6 0 -11 5 -11 10 0 6 2 10 4 10 3 0 8 -4 11 -10z m-243 -218 c-7
-2 -9 -9 -6 -14 4 -6 2 -8 -4 -4 -6 3 -13 -3 -17 -14 -6 -20 -35 -28 -35 -10
0 6 5 10 11 10 5 0 7 6 3 13 -4 6 -4 9 1 5 5 -5 15 1 22 12 8 11 19 17 26 13
8 -5 8 -8 -1 -11z m2013 -96 c127 -63 252 -128 279 -146 44 -28 48 -34 42 -61
-3 -17 -26 -73 -52 -126 -25 -52 -43 -97 -41 -100 8 -7 67 70 67 88 0 9 9 26
19 38 11 12 25 45 32 72 7 27 16 49 19 49 3 0 75 -67 160 -148 85 -82 182
-173 214 -203 71 -65 176 -185 176 -201 0 -22 -115 -122 -225 -197 -147 -100
-277 -198 -350 -264 -73 -67 -70 -76 39 -111 18 -6 17 -9 -9 -36 -16 -17 -39
-30 -51 -30 -18 0 -23 -8 -28 -42 -18 -107 -25 -423 -26 -1027 l-1 -654 41
-42 c22 -22 40 -45 40 -50 0 -6 -28 -30 -62 -55 -34 -25 -87 -66 -118 -92 -61
-53 -70 -57 -70 -29 0 10 -49 149 -108 307 -60 159 -112 302 -116 317 -6 24 0
35 43 80 l49 51 -58 68 c-53 61 -59 73 -64 125 -4 32 -11 90 -17 128 -18 117
-22 338 -10 574 l12 225 75 82 74 82 -29 21 c-16 12 -43 24 -60 27 -42 9 -45
26 -37 210 7 150 1 254 -14 254 -4 0 -10 -14 -14 -32 -18 -91 -60 -1096 -51
-1248 9 -166 26 -341 37 -369 5 -13 31 -52 59 -87 l50 -63 -61 -32 c-33 -17
-60 -35 -60 -40 0 -4 -7 -15 -16 -24 -16 -15 -14 -19 21 -55 44 -45 43 -74 -7
-123 -28 -29 -29 -31 -12 -44 26 -19 54 -16 54 5 0 11 9 27 20 37 19 17 20 17
45 -36 14 -30 25 -61 25 -69 0 -8 7 -28 16 -45 21 -40 81 -221 144 -435 75
-255 107 -352 157 -475 106 -260 194 -547 259 -839 24 -111 58 -253 74 -316
17 -63 51 -216 75 -340 25 -124 70 -319 100 -434 31 -116 52 -213 48 -217 -9
-9 -282 5 -428 21 -196 22 -217 23 -286 10 -85 -16 -453 -1 -729 30 -96 10
-242 26 -325 35 -82 9 -253 32 -380 52 -126 19 -295 39 -375 44 -80 4 -170 12
-200 17 -30 6 -121 13 -202 17 -82 4 -148 10 -148 14 0 18 31 213 41 256 6 28
24 89 40 136 54 160 97 351 109 479 9 93 18 1234 11 1334 -1 5 -7 3 -15 -3
-20 -17 -26 -56 -36 -267 -5 -105 -16 -222 -24 -260 -25 -119 -40 -274 -27
-287 6 -6 13 -9 15 -6 4 4 20 122 30 220 10 98 35 136 37 57 0 -24 2 -92 3
-153 1 -60 -2 -146 -6 -190 -5 -44 -12 -183 -17 -310 -7 -193 -12 -239 -29
-288 -12 -32 -24 -79 -28 -105 -9 -62 -21 -92 -36 -92 -7 0 -20 -4 -27 -9 -12
-8 -11 -13 9 -29 27 -22 19 -46 -12 -36 -20 6 -21 4 -15 -46 4 -29 2 -60 -2
-69 -9 -17 -36 -173 -46 -275 l-7 -59 -61 7 c-74 7 -376 51 -502 73 -49 8
-103 16 -120 18 -28 2 -31 6 -37 51 -5 27 -9 106 -10 176 -3 118 -10 151 -24
113 -4 -8 -10 -15 -15 -15 -14 0 -10 340 6 510 23 239 45 547 45 627 0 49 4
76 14 85 12 11 12 15 -1 30 -13 14 -12 37 7 200 19 166 52 346 80 438 6 19 15
63 20 96 11 69 54 205 78 246 8 14 26 31 38 37 16 7 22 16 17 27 -5 13 0 15
28 12 49 -5 48 15 -11 126 -53 102 -58 132 -25 150 11 6 35 23 52 38 18 15 50
32 71 38 22 5 49 19 62 30 33 29 54 26 46 -5 -7 -26 3 -32 21 -14 14 14 33 3
33 -20 0 -23 -28 -48 -60 -53 -34 -4 -31 -20 8 -37 42 -19 41 -34 -2 -26 -19
4 -43 2 -55 -5 -18 -9 -19 -14 -10 -31 6 -13 8 -40 4 -71 -9 -66 13 -62 36 7
19 57 38 69 89 61 36 -6 68 9 38 18 -56 17 -55 16 -34 32 16 11 17 17 8 26
-16 16 -15 28 3 28 37 0 -1 83 -86 187 -33 39 -59 74 -59 78 0 4 15 4 34 1 30
-6 34 -4 29 12 -3 11 8 37 26 63 57 81 95 216 181 634 28 138 74 345 101 460
110 463 112 471 113 567 1 70 -6 100 -19 86 -3 -3 -10 -56 -16 -119 -15 -172
-38 -292 -54 -279 -36 30 -144 370 -158 500 l-2 25 -13 -23 c-27 -48 25 -274
104 -450 l57 -126 -41 -165 c-23 -91 -46 -195 -52 -231 -22 -126 -140 -650
-165 -727 -25 -78 -58 -143 -72 -143 -5 0 -9 125 -9 278 -2 339 -36 867 -59
912 -8 16 -29 40 -45 52 -17 12 -30 25 -30 29 0 3 23 9 51 11 60 6 72 16 63
52 -8 32 -102 191 -151 256 -20 26 -32 52 -30 62 3 10 1 18 -4 18 -30 0 -165
156 -222 257 l-34 60 48 39 c27 22 77 56 112 76 113 67 218 132 296 183 115
76 150 95 226 122 83 30 203 88 227 110 9 8 22 13 28 11 6 -2 -17 -34 -50 -71
-92 -104 -94 -108 -76 -151 8 -19 33 -62 55 -94 22 -33 43 -71 47 -86 11 -46
97 -168 154 -219 131 -118 298 -217 416 -247 97 -25 253 -50 316 -50 35 0 54
-6 76 -25 17 -14 36 -25 44 -25 18 0 195 86 269 131 52 32 145 98 409 294 60
44 163 131 230 193 67 63 137 120 156 128 25 11 32 18 27 32 -20 54 -134 188
-188 222 -32 20 -46 40 -27 40 4 0 111 -51 237 -114z m342 -141 c0 -8 -4 -12
-9 -9 -5 3 -6 10 -3 15 9 13 12 11 12 -6z m-1427 -745 c-8 -5 -19 -10 -25 -10
-5 0 -3 5 5 10 8 5 20 10 25 10 6 0 3 -5 -5 -10z m930 -416 c0 -8 -4 -14 -10
-14 -5 0 -10 9 -10 21 0 11 5 17 10 14 6 -3 10 -13 10 -21z m70 -16 c0 -20
-73 -129 -84 -125 -20 7 -18 28 3 34 25 6 26 11 4 35 -15 17 -15 21 -3 29 8 5
24 8 35 6 14 -1 19 3 17 16 -2 10 3 17 13 17 8 0 15 -6 15 -12z m-2488 -1195
c-6 -2 -9 -10 -6 -15 4 -7 2 -8 -5 -4 -13 9 -5 26 12 25 9 0 8 -2 -1 -6z
m2412 -209 c13 -33 4 -42 -23 -25 -14 9 -9 41 8 41 5 0 12 -7 15 -16z m23
-129 c-4 -8 -11 -15 -17 -15 -7 0 -7 6 0 21 13 23 26 19 17 -6z m-2894 -2931
c-3 -8 -9 -14 -13 -14 -13 0 -22 19 -15 30 9 14 34 0 28 -16z m3887 -360 c0
-11 -4 -10 -19 3 -11 9 -18 20 -15 25 8 12 34 -11 34 -28z"/>
<path d="M4823 11105 c0 -8 4 -12 9 -9 5 3 6 10 3 15 -9 13 -12 11 -12 -6z"/>
<path d="M5015 10891 c14 -28 35 -49 35 -36 0 14 -31 65 -41 65 -5 0 -3 -13 6
-29z"/>
<path d="M907 10884 c-10 -13 -14 -24 -9 -24 14 0 44 37 35 43 -4 3 -16 -6
-26 -19z"/>
<path d="M1512 10410 c-12 -16 -22 -32 -22 -36 0 -4 -16 -31 -35 -60 -71 -107
-124 -231 -191 -449 -35 -113 -41 -155 -24 -155 15 0 28 31 59 146 40 145 95
285 120 305 12 10 21 27 21 38 0 11 25 68 55 126 30 57 55 107 55 110 0 14
-18 2 -38 -25z"/>
<path d="M2500 10365 c0 -8 5 -15 10 -15 6 0 10 7 10 15 0 8 -4 15 -10 15 -5
0 -10 -7 -10 -15z"/>
<path d="M4125 9709 c-4 -6 -5 -12 -2 -15 2 -3 7 2 10 11 7 17 1 20 -8 4z"/>
<path d="M1210 9643 c-21 -48 -20 -78 3 -71 18 7 37 49 37 86 0 46 -16 40 -40
-15z"/>
<path d="M1120 9521 c0 -6 4 -13 10 -16 6 -3 7 1 4 9 -7 18 -14 21 -14 7z"/>
<path d="M3046 9422 c-3 -5 1 -9 9 -9 8 0 12 4 9 9 -3 4 -7 8 -9 8 -2 0 -6 -4
-9 -8z"/>
<path d="M4819 9253 c-13 -16 -12 -17 4 -4 16 13 21 21 13 21 -2 0 -10 -8 -17
-17z"/>
<path d="M1080 8646 c0 -8 -6 -17 -12 -19 -7 -3 -4 -6 8 -6 26 -1 34 7 27 25
-7 18 -23 18 -23 0z"/>
<path d="M1095 8289 c-4 -6 -5 -13 -2 -16 7 -7 27 6 27 18 0 12 -17 12 -25 -2z"/>
<path d="M1180 7212 c0 -5 9 -17 20 -27 16 -14 20 -15 20 -4 0 16 -19 39 -32
39 -4 0 -8 -4 -8 -8z"/>
<path d="M4975 6751 c-3 -5 -2 -12 3 -15 5 -3 9 1 9 9 0 17 -3 19 -12 6z"/>
<path d="M2121 9785 c5 -23 40 -27 47 -6 3 9 0 11 -7 7 -7 -4 -19 -2 -28 5
-13 11 -15 11 -12 -6z"/>
<path d="M3586 9573 c-6 -14 -5 -15 5 -6 7 7 10 15 7 18 -3 3 -9 -2 -12 -12z"/>
<path d="M2223 9335 c0 -7 6 -11 14 -8 7 3 13 6 13 8 0 2 -6 5 -13 8 -8 3 -14
-1 -14 -8z"/>
<path d="M2300 9286 c0 -8 4 -17 9 -20 11 -7 33 18 24 27 -12 12 -33 7 -33 -7z"/>
<path d="M2424 9177 c-9 -24 6 -44 18 -22 7 11 6 21 -1 28 -7 7 -12 6 -17 -6z"/>
<path d="M2825 9068 c-4 -10 -4 -26 0 -35 8 -17 8 -17 12 0 3 9 3 25 0 35 -4
16 -4 16 -12 0z"/>
<path d="M2900 8941 c0 -6 4 -13 10 -16 6 -3 7 1 4 9 -7 18 -14 21 -14 7z"/>
<path d="M2510 8615 c-13 -14 -21 -27 -18 -30 2 -3 15 6 28 20 13 14 21 27 18
30 -2 3 -15 -6 -28 -20z"/>
<path d="M1260 8181 c0 -10 30 -24 37 -17 3 3 2 9 -2 15 -8 13 -35 15 -35 2z"/>
<path d="M4141 7874 c-22 -27 -46 -92 -38 -100 3 -3 22 13 43 35 25 28 43 39
55 36 25 -8 32 9 11 27 -32 28 -50 28 -71 2z"/>
<path d="M4288 7846 c-36 -19 -77 -66 -78 -88 0 -25 11 -22 61 15 60 46 85 58
103 51 19 -7 21 7 4 24 -16 16 -57 15 -90 -2z"/>
<path d="M4090 7742 c0 -5 11 -19 25 -32 19 -18 25 -20 25 -8 0 8 -8 22 -18
31 -20 19 -32 22 -32 9z"/>
<path d="M1100 7632 c0 -5 9 -17 20 -27 16 -14 20 -15 20 -4 0 16 -19 39 -32
39 -4 0 -8 -4 -8 -8z"/>
<path d="M4410 7600 c0 -5 9 -10 21 -10 11 0 17 5 14 10 -3 6 -13 10 -21 10
-8 0 -14 -4 -14 -10z"/>
<path d="M4203 7553 c9 -9 19 -14 23 -11 10 10 -6 28 -24 28 -15 0 -15 -1 1
-17z"/>
<path d="M1280 7400 c0 -11 5 -20 10 -20 6 0 10 9 10 20 0 11 -4 20 -10 20 -5
0 -10 -9 -10 -20z"/>
<path d="M1407 7293 c-13 -12 -7 -33 8 -33 8 0 15 9 15 20 0 20 -11 26 -23 13z"/>
<path d="M2560 7140 c0 -11 5 -20 10 -20 6 0 10 9 10 20 0 11 -4 20 -10 20 -5
0 -10 -9 -10 -20z"/>
<path d="M2689 7138 c-42 -11 -209 -133 -209 -153 0 -24 38 -27 279 -24 179 2
246 0 279 -11 34 -10 45 -11 55 -1 17 17 -13 38 -141 101 -155 77 -220 99
-263 88z m114 -62 c45 -18 99 -39 120 -45 20 -7 35 -17 32 -22 -7 -11 -375
-12 -375 -1 1 7 128 102 137 102 2 0 41 -15 86 -34z m-240 -71 c-6 -17 -23
-20 -23 -5 0 6 5 10 11 10 5 0 7 5 3 12 -4 7 -3 8 4 4 6 -4 9 -13 5 -21z"/>
<path d="M3087 7044 c-4 -4 -4 -10 -2 -14 6 -10 45 0 45 11 0 10 -33 12 -43 3z"/>
<path d="M4271 7037 c-6 -8 -8 -17 -5 -20 7 -7 44 14 44 25 0 13 -27 9 -39 -5z"/>
<path d="M1710 6966 c0 -2 7 -7 16 -10 8 -3 12 -2 9 4 -6 10 -25 14 -25 6z"/>
<path d="M3510 9244 c0 -7 7 -17 15 -24 8 -7 15 -21 15 -31 0 -21 15 -25 26
-8 3 6 -8 25 -25 42 -17 18 -31 27 -31 21z"/>
<path d="M3687 9154 c-13 -13 -7 -24 14 -24 11 0 19 5 17 12 -5 14 -22 21 -31
12z"/>
<path d="M3742 8936 c1 -10 8 -17 13 -17 15 1 12 24 -3 29 -9 3 -13 -2 -10
-12z"/>
<path d="M3652 8906 c1 -10 8 -17 13 -17 15 1 12 24 -3 29 -9 3 -13 -2 -10
-12z"/>
<path d="M3235 8796 l30 -26 210 0 c188 0 472 -8 895 -25 90 -4 151 -2 160 4
38 26 40 26 -895 50 -209 6 -391 13 -405 16 -24 6 -24 6 5 -19z"/>
<path d="M2420 6092 c0 -14 11 -21 26 -15 21 8 17 23 -6 23 -11 0 -20 -4 -20
-8z"/>
<path d="M3745 5630 c-8 -13 4 -32 16 -25 12 8 12 35 0 35 -6 0 -13 -4 -16
-10z"/>
<path d="M2932 5167 c-34 -34 -62 -68 -62 -75 0 -7 36 15 80 49 44 34 80 68
80 75 0 30 -39 11 -98 -49z"/>
<path d="M4409 4863 c-13 -16 -12 -17 4 -4 16 13 21 21 13 21 -2 0 -10 -8 -17
-17z"/>
<path d="M2155 3240 c-4 -6 6 -22 22 -35 147 -127 196 -165 286 -224 57 -38
148 -101 203 -141 96 -70 100 -71 144 -65 25 4 59 13 75 22 17 8 57 25 90 38
33 12 98 41 144 64 47 22 91 41 98 41 9 0 13 -14 13 -42 0 -49 26 -275 41
-358 24 -130 49 -276 73 -431 15 -91 36 -201 47 -245 11 -43 26 -119 34 -169
20 -134 55 -335 66 -380 6 -22 17 -98 25 -170 8 -71 22 -166 31 -210 9 -44 18
-129 20 -190 3 -107 10 -162 39 -276 8 -30 14 -72 14 -92 0 -47 18 -93 31 -80
6 6 4 41 -6 104 -25 148 -30 391 -12 544 15 120 19 171 32 405 5 94 0 115 -73
315 -22 61 -52 155 -67 210 -26 98 -119 348 -138 372 -5 7 -13 10 -18 7 -5 -3
-9 13 -9 35 0 23 -11 88 -25 145 -24 104 -49 272 -61 421 -8 95 -17 115 -49
115 -13 0 -81 -25 -150 -56 -70 -30 -166 -70 -214 -88 l-88 -33 -59 49 c-32
28 -139 103 -236 169 -166 111 -215 152 -152 129 14 -6 34 -15 44 -20 34 -18
115 -29 330 -45 232 -17 430 -20 430 -6 0 4 -44 11 -97 15 -545 37 -771 75
-833 141 -26 27 -35 30 -45 15z m1255 -1120 c0 -35 67 -224 80 -228 5 -2 10
-17 10 -34 0 -16 18 -82 41 -146 92 -262 89 -248 79 -374 -5 -62 -12 -188 -16
-280 -3 -93 -10 -166 -14 -163 -8 5 -23 96 -45 287 -17 141 -58 375 -79 453
-14 51 -24 102 -51 276 -8 53 -21 123 -30 155 -8 32 -15 79 -15 104 l1 45 19
-35 c11 -19 19 -46 20 -60z"/>
<path d="M4406 3007 c3 -10 9 -15 12 -12 3 3 0 11 -7 18 -10 9 -11 8 -5 -6z"/>
<path d="M1157 1686 c-6 -15 1 -26 15 -26 4 0 8 9 8 20 0 23 -15 27 -23 6z"/>
<path d="M1960 1663 c0 -5 4 -25 9 -46 6 -23 6 -70 0 -115 -5 -42 -11 -108
-13 -147 -3 -38 -9 -97 -14 -131 -4 -33 -5 -72 -2 -85 3 -13 2 -82 -4 -152 -6
-91 -6 -131 2 -139 14 -14 18 16 31 222 27 429 34 569 28 584 -6 16 -37 23
-37 9z"/>
<path d="M3712 1060 c0 -14 2 -19 5 -12 2 6 2 18 0 25 -3 6 -5 1 -5 -13z"/>
<path d="M5024 11109 c-3 -6 -2 -15 3 -20 5 -5 9 -1 9 11 0 23 -2 24 -12 9z"/>
<path d="M5416 10658 c3 -5 10 -6 15 -3 13 9 11 12 -6 12 -8 0 -12 -4 -9 -9z"/>
<path d="M5710 6596 c0 -15 18 -31 26 -23 7 7 -7 37 -17 37 -5 0 -9 -6 -9 -14z"/>
<path d="M4845 5791 c-3 -5 -2 -12 3 -15 5 -3 9 1 9 9 0 17 -3 19 -12 6z"/>
</g>
</svg>
