<?xml version="1.0" standalone="no"?>
<!DOCTYPE svg PUBLIC "-//W3C//DTD SVG 20010904//EN"
 "http://www.w3.org/TR/2001/REC-SVG-20010904/DTD/svg10.dtd">
<svg version="1.0" xmlns="http://www.w3.org/2000/svg"
 width="600.000000pt" height="1172.000000pt" viewBox="0 0 600.000000 1172.000000"
 preserveAspectRatio="xMidYMid meet">
<g transform="translate(0.000000,1172.000000) scale(0.100000,-0.100000)"
fill="#000000" stroke="none">
<path d="M2918 11685 c-162 -23 -369 -72 -493 -115 -33 -12 -112 -37 -176 -55
-155 -46 -327 -110 -479 -179 -157 -71 -149 -67 -271 -151 -56 -38 -120 -80
-143 -93 -80 -45 -216 -154 -363 -290 -50 -47 -105 -94 -121 -104 -16 -10 -48
-45 -72 -78 -23 -34 -55 -70 -70 -82 -16 -12 -34 -34 -39 -50 -5 -15 -14 -28
-19 -28 -5 0 -17 -20 -26 -45 -10 -25 -21 -45 -26 -45 -5 0 -34 -37 -66 -82
-123 -176 -333 -673 -389 -923 -9 -38 -31 -126 -50 -195 -32 -118 -62 -291
-87 -495 -12 -103 -5 -484 12 -615 10 -84 42 -248 82 -425 23 -101 61 -194
109 -259 33 -47 107 -112 116 -103 2 3 -19 34 -49 69 -99 117 -126 178 -157
364 -36 206 -46 395 -32 562 21 245 112 698 182 907 17 50 35 108 41 130 38
151 159 475 245 658 62 130 78 131 48 4 -21 -90 -51 -312 -70 -507 -26 -276
-46 -462 -56 -520 -17 -101 -58 -482 -79 -745 -20 -233 -22 -304 -17 -695 3
-239 10 -455 16 -480 5 -25 14 -90 20 -144 7 -55 18 -119 26 -143 8 -24 15
-56 15 -70 0 -15 8 -45 19 -67 10 -23 26 -81 36 -131 9 -49 31 -128 47 -175
16 -47 32 -100 35 -117 4 -24 10 -33 24 -33 17 0 19 9 19 104 0 153 6 160 85
100 57 -44 189 -118 259 -145 65 -26 345 -89 395 -89 21 0 43 6 49 13 5 6 22
80 37 162 15 83 30 153 34 157 3 4 42 -22 86 -58 44 -36 100 -77 125 -91 25
-15 60 -38 78 -51 31 -24 33 -24 52 -7 11 10 20 30 20 44 -1 24 -2 25 -14 8
-16 -21 -22 -15 -58 58 -32 64 -45 107 -52 174 l-5 54 102 -100 c143 -140 197
-177 197 -138 0 8 -9 15 -19 15 -30 0 -37 22 -13 38 12 8 22 21 22 28 0 10 22
0 63 -26 97 -64 373 -198 465 -226 46 -14 85 -31 88 -39 12 -31 -26 -84 -107
-149 -100 -80 -134 -91 -204 -71 -87 27 -459 16 -513 -14 -54 -31 -380 -526
-432 -656 -8 -22 -28 -60 -44 -84 -48 -75 -106 -203 -106 -236 0 -52 62 -127
338 -406 l154 -156 -36 -53 c-44 -64 -45 -88 -6 -125 27 -25 28 -30 15 -45
-47 -52 -74 -243 -85 -605 -10 -326 -17 -407 -37 -455 -13 -33 -13 -36 11 -55
l24 -20 -39 -49 c-21 -26 -39 -56 -39 -65 0 -9 -16 -38 -35 -65 -19 -27 -35
-55 -35 -62 0 -7 -20 -52 -45 -98 -25 -47 -45 -91 -45 -98 0 -7 -12 -36 -27
-63 -14 -28 -41 -86 -59 -130 -73 -182 -103 -247 -121 -268 -11 -12 -25 -47
-33 -77 -7 -30 -28 -87 -46 -127 -34 -76 -55 -136 -100 -293 -15 -52 -36 -111
-45 -132 -10 -20 -21 -56 -25 -80 -4 -23 -11 -48 -15 -54 -5 -6 -22 -58 -39
-115 -16 -57 -38 -130 -49 -162 -11 -32 -32 -118 -46 -191 -14 -73 -42 -193
-64 -267 -76 -264 -92 -323 -103 -389 -12 -67 -12 -68 -47 -74 -20 -3 -137 -9
-261 -12 -266 -6 -310 -10 -310 -29 0 -18 109 -23 255 -13 55 3 155 10 222 14
l122 7 -19 -39 c-27 -53 -26 -66 7 -62 25 3 29 8 37 54 l8 51 512 8 c281 5
654 9 828 9 359 1 346 4 355 -78 4 -30 10 -46 19 -46 13 0 19 35 17 88 -1 16
88 10 242 -14 166 -26 431 -34 1273 -39 460 -2 916 -9 1012 -15 269 -16 290
-16 287 -5 -1 6 1 11 5 12 12 4 38 -8 34 -16 -2 -3 142 -7 321 -8 245 -1 323
1 320 10 -5 15 -130 25 -429 33 l-227 6 -20 52 c-28 77 -107 319 -136 421 -14
50 -32 104 -40 122 -8 17 -15 42 -15 55 0 38 -30 119 -57 156 -30 40 -57 164
-73 337 -17 180 -47 336 -90 475 -43 141 -134 536 -155 680 -8 52 -19 234 -25
405 -5 170 -15 384 -22 475 -6 91 -12 309 -12 485 -1 385 -4 372 106 435 40
22 80 45 88 49 28 15 23 55 -13 101 -80 106 -107 153 -107 185 0 28 18 54 113
162 267 305 397 492 397 574 0 58 -109 178 -295 326 -66 53 -130 106 -142 119
l-22 24 25 62 c14 35 48 114 76 176 l51 114 98 -99 c54 -54 106 -98 116 -98
11 0 26 15 38 40 73 148 238 432 281 484 2 2 31 -20 65 -49 97 -84 179 -135
291 -178 161 -62 145 -66 140 34 -3 64 -2 85 7 80 29 -18 72 -185 74 -291 2
-70 16 -86 31 -34 7 21 5 64 -3 128 -29 216 -30 245 -16 461 29 440 35 617 35
1125 0 334 -5 615 -15 786 -16 286 -22 343 -60 544 -14 72 -30 166 -36 210
-14 103 -121 475 -197 686 -33 90 -69 194 -80 230 -32 99 -310 644 -395 772
-40 62 -103 146 -140 187 -36 41 -83 95 -104 119 -21 24 -52 53 -69 65 -107
72 -154 101 -246 149 -57 30 -114 58 -128 62 -14 4 -59 22 -100 40 -41 18
-111 45 -155 58 -44 14 -113 37 -153 51 -41 14 -95 26 -121 26 -26 0 -70 6
-97 14 -27 8 -100 17 -162 20 -61 4 -147 13 -190 22 -47 10 -150 17 -267 19
-162 4 -215 1 -357 -20z m612 -40 c36 -8 121 -20 190 -25 198 -15 337 -39 440
-75 52 -19 127 -44 165 -56 88 -28 194 -76 355 -159 118 -61 132 -72 250 -190
69 -69 157 -168 196 -220 81 -109 224 -345 224 -369 0 -9 36 -82 81 -161 86
-156 114 -215 149 -325 12 -38 37 -108 55 -155 50 -128 103 -299 174 -565 14
-50 88 -456 107 -585 28 -192 36 -571 29 -1335 -4 -407 -13 -834 -19 -950
l-12 -210 -26 56 c-45 99 -55 88 -60 -68 -2 -50 -6 -94 -9 -98 -8 -7 -144 46
-222 87 -32 17 -95 64 -140 105 l-82 73 -46 -51 c-26 -28 -82 -111 -125 -185
-44 -74 -95 -162 -115 -196 -54 -93 -57 -94 -135 -18 -36 36 -75 84 -86 108
-11 24 -24 42 -30 40 -6 -2 -17 -21 -25 -43 -18 -52 -32 -67 -62 -63 -19 2
-25 8 -24 23 1 11 7 130 13 265 12 293 17 338 35 374 19 36 19 42 0 26 -22
-19 -29 -6 -16 32 14 42 37 394 51 758 5 157 13 358 16 446 l6 162 45 5 c24 2
47 8 51 11 11 12 -21 26 -60 26 l-38 0 0 53 c0 29 4 57 9 62 6 6 6 27 0 55 -7
31 -7 93 0 195 9 123 14 152 28 163 16 11 16 13 -6 28 -21 15 -22 21 -16 88
12 145 22 512 14 534 -5 12 -12 22 -17 22 -5 0 -12 -98 -16 -217 -9 -263 -20
-420 -30 -430 -11 -11 -41 13 -38 31 1 8 -9 129 -23 268 -19 178 -35 287 -56
368 -17 63 -36 165 -44 225 -23 171 -51 269 -86 290 -20 13 -20 -3 0 -69 11
-37 30 -146 41 -244 22 -196 39 -592 24 -592 -5 0 -34 53 -64 118 -30 64 -80
164 -111 222 -251 469 -411 809 -413 877 -2 41 -9 47 -30 25 -9 -11 -28 -77
-45 -158 -16 -77 -38 -161 -51 -188 -12 -27 -26 -76 -30 -108 -5 -33 -13 -65
-18 -71 -5 -7 -15 -35 -21 -64 -6 -28 -26 -89 -45 -135 -19 -46 -39 -102 -45
-125 -12 -43 -31 -59 -31 -25 0 9 11 58 24 107 42 153 113 670 101 727 -13 55
-58 43 -70 -19 -20 -110 -125 -420 -265 -788 -21 -55 -46 -127 -55 -160 -38
-134 -146 -463 -165 -500 -11 -22 -20 -51 -20 -65 0 -38 -12 -100 -19 -100 -3
0 -17 21 -30 46 -14 25 -44 75 -68 110 -77 115 -175 294 -226 412 -146 341
-198 562 -218 927 -6 105 -11 196 -11 203 -2 17 -25 15 -31 -3 -4 -8 -24 -119
-46 -247 -23 -128 -50 -273 -61 -323 -11 -49 -24 -148 -31 -220 -6 -71 -15
-146 -20 -165 -12 -47 -2 414 10 500 27 174 71 533 67 537 -9 9 -24 -7 -31
-34 -4 -16 -15 -36 -26 -46 -10 -10 -31 -41 -45 -70 -15 -29 -37 -65 -50 -80
-13 -16 -24 -34 -24 -42 0 -7 -7 -15 -15 -19 -8 -3 -15 -12 -15 -19 0 -8 -10
-22 -21 -33 -33 -29 -127 -175 -208 -324 -41 -74 -80 -142 -87 -150 -12 -14
-69 -120 -123 -226 -15 -28 -33 -59 -41 -69 -15 -18 -57 -130 -89 -240 -10
-33 -28 -80 -39 -105 -12 -25 -22 -52 -22 -61 0 -9 -6 -22 -14 -28 -24 -20
-30 65 -17 234 24 314 89 625 200 960 27 83 59 183 70 222 14 47 29 76 42 83
23 13 16 30 -11 30 -11 0 -26 -12 -34 -27 -22 -43 -202 -608 -211 -662 -3 -19
-8 -37 -10 -41 -2 -3 -11 -49 -19 -101 -8 -52 -22 -116 -31 -144 -8 -27 -22
-102 -30 -165 -19 -147 -42 -266 -56 -291 -6 -11 -9 -44 -8 -72 3 -59 14 -55
-104 -42 -48 5 -58 4 -63 -10 -11 -27 16 -36 89 -32 l67 4 0 -46 c0 -25 -5
-64 -11 -86 -7 -22 -14 -76 -18 -120 -5 -70 -9 -81 -28 -90 -30 -13 -29 -27 3
-75 22 -33 24 -43 14 -55 -7 -8 -16 -15 -21 -15 -45 0 -126 407 -138 692 -8
206 3 515 23 628 8 46 13 86 11 88 -2 2 -10 -7 -19 -20 -32 -50 -41 -162 -40
-533 l0 -360 38 -170 c20 -93 44 -208 53 -255 11 -62 31 -116 72 -200 54 -111
56 -117 60 -210 3 -97 -22 -409 -40 -490 -6 -25 -14 -64 -18 -87 -8 -45 -12
-52 -80 -128 -44 -50 -81 -103 -81 -117 0 -24 36 0 88 59 34 37 63 65 66 62 3
-3 1 -23 -5 -45 -15 -52 -5 -179 20 -243 20 -54 57 -106 134 -189 44 -47 48
-55 41 -85 -15 -67 1 -191 37 -275 11 -25 18 -47 15 -49 -4 -4 -145 104 -194
150 -17 17 -32 40 -32 52 0 24 -44 75 -65 75 -19 0 -19 -18 -1 -62 13 -31 12
-42 -14 -134 -15 -56 -31 -126 -35 -157 -12 -91 -16 -94 -121 -73 -215 43
-386 109 -529 206 -83 56 -150 91 -158 83 -4 -3 -4 -42 0 -87 4 -57 2 -78 -5
-71 -13 13 -54 153 -77 264 -9 46 -23 102 -31 124 -18 51 -18 54 6 60 11 3 20
10 20 15 0 6 -8 8 -19 5 -25 -6 -36 27 -58 175 -16 101 -18 191 -18 667 0 566
7 699 50 1005 16 113 35 274 65 575 31 304 93 762 117 870 8 39 26 97 40 129
20 47 23 64 14 83 -16 34 -26 29 -51 -29 -12 -29 -40 -82 -63 -118 -52 -84
-172 -335 -202 -425 -13 -38 -33 -90 -44 -115 -11 -25 -31 -88 -45 -141 -13
-53 -40 -143 -59 -200 -47 -140 -89 -313 -136 -559 -47 -245 -61 -340 -61
-426 0 -36 -4 -64 -10 -64 -12 0 -12 59 -1 365 7 173 14 250 35 360 99 512
238 916 447 1291 44 80 149 228 236 334 79 97 325 329 444 420 133 102 434
296 505 325 38 16 130 55 205 86 190 80 632 216 842 259 249 50 604 62 757 25z
m280 -1516 c0 -6 -4 -7 -10 -4 -5 3 -10 11 -10 16 0 6 5 7 10 4 6 -3 10 -11
10 -16z m204 -5 c3 -8 2 -12 -4 -9 -6 3 -10 10 -10 16 0 14 7 11 14 -7z
m-1504 -50 c-43 -212 -71 -667 -51 -844 14 -123 39 -240 51 -240 4 0 11 44 14
98 10 163 35 385 62 535 13 78 32 190 42 250 9 59 20 107 23 107 4 0 10 -33
14 -72 3 -40 13 -113 21 -163 9 -49 20 -117 24 -150 28 -190 230 -662 379
-888 92 -139 131 -209 131 -233 0 -32 20 -94 30 -94 6 0 10 8 10 19 0 25 91
343 128 451 17 47 58 173 92 280 34 107 86 258 115 335 29 77 78 219 109 315
32 96 62 186 68 200 22 51 19 -3 -7 -127 -14 -70 -30 -172 -35 -225 -5 -54
-16 -114 -25 -134 -8 -20 -15 -62 -15 -94 0 -43 -4 -59 -15 -64 -12 -4 -15
-20 -13 -75 3 -66 1 -73 -54 -182 -38 -77 -53 -116 -45 -121 6 -4 9 -8 7 -10
-3 -2 -14 -8 -25 -14 -11 -6 -26 -28 -33 -50 -7 -21 -22 -49 -34 -61 -13 -13
-18 -29 -14 -39 6 -16 8 -16 25 0 31 28 140 211 196 329 100 209 219 537 232
636 3 25 10 51 14 57 5 6 16 51 24 100 9 49 23 114 32 144 l16 55 18 -40 c10
-22 43 -101 75 -175 61 -148 72 -168 224 -440 121 -217 264 -506 281 -570 7
-29 9 -69 5 -110 l-7 -65 -167 3 c-92 1 -271 9 -399 17 -239 15 -485 20 -496
9 -8 -8 20 -64 32 -64 5 0 11 5 13 11 6 18 176 23 318 10 276 -25 352 -30 524
-33 l178 -3 -6 -103 c-7 -100 3 -172 24 -172 15 0 22 20 11 33 -7 9 -7 36 -1
82 5 39 11 90 12 114 2 30 9 48 21 55 34 21 52 -20 72 -161 10 -70 20 -142 22
-160 l5 -31 -69 -8 c-85 -9 -444 11 -578 32 -137 22 -600 26 -600 5 0 -14 15
-25 49 -36 15 -4 17 -8 8 -17 -9 -9 -23 -8 -59 5 -57 20 -63 21 -63 4 0 -13
27 -33 76 -57 45 -22 114 -105 114 -138 0 -15 7 -38 16 -50 11 -17 13 -26 5
-36 -13 -15 -3 -178 10 -170 5 3 10 31 10 62 l2 57 8 -45 c5 -25 12 -65 15
-90 6 -54 41 -243 52 -285 7 -23 4 -34 -10 -47 -10 -10 -18 -14 -18 -10 0 16
-30 258 -36 284 -3 14 -16 39 -30 53 -21 23 -26 40 -31 111 -3 46 -10 81 -14
78 -19 -12 -2 -518 20 -600 16 -59 65 -130 110 -160 22 -14 70 -37 106 -50
l66 -24 44 21 c75 35 106 83 204 317 58 139 81 217 81 277 0 23 11 84 25 136
13 52 27 120 31 152 6 54 15 69 29 47 3 -5 13 -10 21 -10 8 0 13 4 10 9 -3 5
1 12 10 15 23 9 31 8 46 -6 23 -23 145 -49 174 -38 14 6 62 10 106 10 l81 0
-6 -397 c-10 -617 -35 -953 -77 -1050 -19 -42 -248 -283 -270 -283 -6 0 -35
-20 -64 -44 -55 -45 -225 -136 -254 -136 -19 0 -126 -34 -211 -66 -72 -28
-160 -38 -485 -54 l-218 -11 -201 32 c-120 18 -216 38 -238 49 -20 11 -45 17
-55 14 -32 -8 -176 43 -301 108 -65 33 -155 80 -200 103 -124 64 -397 259
-484 346 -95 94 -136 173 -151 285 -12 87 0 189 27 230 18 28 50 50 86 59 l26
6 5 -78 c6 -84 23 -133 45 -133 34 0 133 67 133 90 0 6 7 10 15 10 16 0 98 70
91 77 -7 8 -116 -53 -174 -97 -29 -22 -56 -40 -61 -40 -10 0 -21 60 -21 122 0
58 -17 98 -41 98 -10 0 -34 -8 -54 -17 -19 -9 -38 -14 -42 -10 -3 4 -1 31 6
60 23 97 41 360 41 590 l0 228 148 -2 c177 -1 202 -5 202 -30 0 -10 -4 -21
-10 -24 -16 -10 -11 -56 15 -133 14 -41 25 -97 25 -125 0 -29 7 -79 15 -112
25 -108 56 -219 66 -237 18 -34 27 -8 14 41 -11 43 -11 49 2 44 7 -3 13 -2 11
3 -2 5 2 11 7 12 6 2 15 8 21 13 7 5 22 -8 43 -38 19 -27 26 -43 17 -40 -8 3
-18 2 -21 -3 -11 -18 -23 -10 -34 20 -10 31 -31 41 -31 16 0 -7 6 -32 14 -54
8 -22 21 -76 29 -120 13 -68 24 -93 73 -166 36 -54 64 -86 75 -86 23 0 76 45
103 89 47 74 104 226 115 306 22 148 32 195 57 262 37 98 56 196 59 311 3 83
7 107 21 123 16 17 16 22 4 29 -8 6 -18 10 -22 10 -5 0 -8 5 -8 10 0 6 36 10
89 10 91 0 113 9 91 35 -9 11 -33 15 -80 15 -51 0 -71 4 -81 17 -13 15 -11 16
14 9 26 -6 28 -4 25 16 -2 19 -9 23 -38 22 -19 -1 -66 -8 -105 -17 -133 -30
-894 -46 -895 -19 0 4 19 75 42 158 l42 151 188 7 c104 4 223 11 266 17 42 5
156 9 254 7 135 -2 180 1 192 11 13 11 14 17 5 28 -9 11 -35 12 -123 8 -381
-18 -525 -27 -634 -36 -68 -6 -126 -8 -129 -6 -7 7 16 78 75 232 108 280 141
340 575 1033 50 79 78 115 84 109 2 -2 -1 -26 -7 -53z m-1850 14 c0 -16 -3
-19 -11 -11 -6 6 -8 16 -5 22 11 17 16 13 16 -11z m3155 2 c3 -5 -3 -10 -14
-10 -12 0 -21 5 -21 10 0 6 6 10 14 10 8 0 18 -4 21 -10z m-1150 -49 c0 -27
-3 -47 -7 -44 -13 7 -7 93 6 93 0 0 1 -22 1 -49z m1133 1 c2 -7 -3 -12 -12
-12 -9 0 -16 7 -16 16 0 17 22 14 28 -4z m876 -749 c9 -60 7 -95 -6 -91 -17 6
-29 57 -23 96 8 43 21 41 29 -5z m-946 -5 c-3 -7 -12 -14 -21 -16 -12 -2 -15
1 -11 12 7 19 38 22 32 4z m-8 -42 c0 -2 -8 -10 -17 -17 -16 -13 -17 -12 -4 4
13 16 21 21 21 13z m965 -123 c5 -26 3 -33 -9 -33 -12 0 -16 11 -16 48 1 50
12 43 25 -15z m-1 -75 c11 -56 27 -305 20 -321 -8 -22 -59 -20 -59 3 0 10 8
14 23 12 22 -3 23 -2 11 19 -16 32 -26 309 -11 309 7 0 14 -10 16 -22z m-44
-114 c0 -8 -19 -13 -24 -6 -3 5 1 9 9 9 8 0 15 -2 15 -3z m-2960 -117 c0 -41
-13 -67 -33 -67 -10 0 -2 83 9 101 13 21 24 6 24 -34z m71 -80 c-10 -9 -11 -8
-5 6 3 10 9 15 12 12 3 -3 0 -11 -7 -18z m-73 -58 c7 -24 10 -57 7 -74 -3 -16
-7 -44 -9 -61 -2 -17 -12 -47 -22 -65 -10 -20 -19 -65 -22 -109 -6 -104 -26
-127 -55 -65 -22 46 -21 58 2 50 23 -7 31 17 31 94 0 43 3 52 15 47 13 -5 15
12 15 115 0 91 3 120 12 117 7 -3 18 -24 26 -49z m52 35 c0 -9 -5 -14 -12 -12
-18 6 -21 28 -4 28 9 0 16 -7 16 -16z m2910 -35 c-6 -10 -17 -16 -25 -13 -11
5 -12 11 -5 25 6 10 17 16 25 13 11 -5 12 -11 5 -25z m111 -22 c-14 -14 -43
17 -34 39 6 15 8 15 25 -6 12 -15 15 -27 9 -33z m75 8 c1 -8 -2 -13 -7 -9 -5
3 -9 12 -9 21 0 19 13 9 16 -12z m-22 -21 c9 -24 7 -197 -3 -213 -20 -31 -50
173 -31 209 13 24 26 26 34 4z m-2134 -279 c0 -9 -39 -5 -45 5 -4 6 -4 18 -1
27 6 14 9 13 26 -5 11 -12 20 -24 20 -27z m2130 12 c0 -18 -2 -19 -10 -7 -13
20 -13 43 0 35 6 -3 10 -16 10 -28z m-2208 13 c4 -28 1 -33 -20 -37 -13 -1
-32 2 -43 8 -13 7 -25 7 -32 1 -19 -15 -96 -19 -101 -5 -6 14 27 22 115 25 37
2 65 6 62 11 -2 4 1 7 6 7 6 0 12 -4 13 -10z m-482 -36 c0 -16 -26 -19 -35 -4
-3 6 -4 14 0 20 8 13 35 1 35 -16z m49 0 c-6 -8 -15 -14 -20 -14 -14 0 -11 28
4 33 20 7 29 -4 16 -19z m151 3 c0 -18 -112 -17 -118 1 -3 9 13 12 57 12 44 0
61 -4 61 -13z m60 4 c0 -12 -20 -25 -27 -18 -7 7 6 27 18 27 5 0 9 -4 9 -9z
m-320 -11 c13 -8 12 -10 -2 -10 -10 0 -21 0 -25 -1 -4 0 -9 4 -11 10 -5 14 18
14 38 1z m-266 -6 c35 -13 13 -24 -48 -24 -60 0 -84 8 -69 24 8 8 96 8 117 0z
m101 -20 c-40 -17 -65 -17 -65 0 0 10 13 16 38 18 51 4 62 -3 27 -18z m105 17
c0 -15 -16 -22 -34 -15 -25 9 -19 24 9 24 14 0 25 -4 25 -9z m2817 -3 c-2 -7
0 -25 4 -40 9 -34 1 -40 -31 -22 -14 7 -20 13 -14 14 6 0 17 14 24 30 12 29
26 43 17 18z m-2287 -9 c0 -8 17 -10 56 -6 76 8 67 -11 -17 -35 -40 -11 -97
-18 -154 -18 -49 0 -125 -5 -168 -12 -74 -11 -78 -11 -101 11 -27 25 -43 21
-56 -15 -12 -31 -30 -31 -30 1 0 14 -2 25 -4 25 -2 0 -11 3 -19 6 -11 4 -16
-2 -19 -18 -3 -22 -6 -23 -122 -26 -70 -1 -123 1 -129 7 -13 13 -3 16 108 30
50 6 115 15 145 20 30 5 149 11 263 14 134 3 213 9 220 16 14 14 27 14 27 0z
m1120 1 c19 0 21 -3 10 -9 -37 -21 -57 -22 -63 -2 -3 14 0 18 12 16 9 -2 27
-4 41 -5z m-980 -37 c-1 -15 -29 -58 -30 -45 0 9 -5 10 -19 2 -11 -5 -22 -7
-24 -3 -6 10 13 27 33 31 8 2 17 8 18 13 4 11 22 12 22 2z m1484 -10 c41 -13
49 -38 9 -30 -16 3 -108 9 -204 13 -155 6 -176 5 -188 -10 -10 -12 -30 -16
-77 -16 -34 0 -65 4 -69 10 -3 5 4 19 16 31 21 21 26 21 253 16 127 -3 244 -9
260 -14z m73 11 c-3 -3 -12 -4 -19 -1 -8 3 -5 6 6 6 11 1 17 -2 13 -5z m-2482
-44 c-9 -14 -72 -12 -81 2 -4 6 1 17 11 24 15 11 23 11 47 -2 16 -8 26 -19 23
-24z m2680 20 c-3 -5 -16 -10 -28 -9 -20 1 -20 2 3 9 14 4 26 8 28 9 2 1 0 -3
-3 -9z m-141 -6 c19 -7 22 -34 4 -34 -15 1 -48 24 -48 34 0 8 24 8 44 0z m82
-6 c4 -7 -2 -18 -14 -26 -30 -20 -27 -32 8 -32 17 0 30 -4 30 -9 0 -10 -31
-23 -46 -20 -23 4 -35 -3 -46 -26 -13 -30 -28 -33 -28 -6 0 26 -23 43 -57 39
-22 -2 -29 1 -31 18 -2 11 7 29 18 39 22 20 22 20 60 -25 l38 -45 7 30 c9 36
32 75 45 75 5 0 12 -5 16 -12z m423 -12 c31 -37 -64 -52 -248 -37 -127 10
-151 15 -140 26 6 5 221 21 315 24 41 1 65 -4 73 -13z m-3156 -31 c-3 -35 -9
-41 -28 -25 -18 15 -20 46 -2 53 22 9 32 0 30 -28z m528 -9 c-7 -9 -19 -86
-21 -128 0 -5 -4 -8 -9 -8 -5 0 -8 17 -8 38 1 76 -3 103 -13 97 -13 -8 -9 15
5 31 13 16 59 -14 46 -30z m399 -140 c-23 -300 -43 -379 -111 -422 -21 -13
-50 -39 -66 -59 -17 -21 -37 -35 -50 -35 -49 0 -135 131 -167 257 -21 81 -22
246 -1 263 10 9 15 32 15 76 l0 63 33 6 c69 13 352 30 356 21 2 -4 -2 -81 -9
-170z m1379 161 c9 -7 17 -18 19 -25 2 -11 -15 -12 -85 -7 -99 8 -113 13 -90
30 22 16 136 17 156 2z m-1890 -23 c-9 -11 -15 -12 -23 -4 -8 8 -7 13 4 20 20
12 33 1 19 -16z m597 1 c8 -30 -4 -115 -16 -115 -10 0 -18 73 -12 112 5 35 20
36 28 3z m1364 15 c0 -5 -9 -10 -20 -10 -11 0 -20 5 -20 10 0 6 9 10 20 10 11
0 20 -4 20 -10z m53 -6 c-3 -9 0 -20 8 -25 10 -6 7 -9 -12 -9 -33 0 -41 8 -28
31 12 24 41 26 32 3z m81 10 c30 -12 18 -34 -19 -34 -37 0 -43 8 -23 28 14 14
20 14 42 6z m-494 -25 c0 -5 -4 -9 -10 -9 -5 0 -10 7 -10 16 0 8 5 12 10 9 6
-3 10 -10 10 -16z m-2082 -1 c6 -7 13 -31 17 -53 10 -53 14 -58 32 -43 13 10
15 9 12 -7 -3 -11 -12 -21 -22 -23 -12 -3 -24 11 -42 50 -26 55 -32 88 -16 88
5 0 13 -6 19 -12z m527 -50 c3 -29 4 -69 2 -88 -3 -19 -5 -45 -6 -58 0 -13 -5
-21 -9 -18 -11 7 -22 152 -15 189 8 43 21 32 28 -25z m2358 26 c-2 -7 -13 -10
-24 -7 -23 6 -18 19 9 19 11 0 18 -5 15 -12z m-763 -19 c0 -26 -14 -33 -25
-15 -9 14 1 40 15 40 5 0 10 -11 10 -25z m260 5 c148 -10 230 -23 230 -36 0
-3 -6 -17 -14 -32 -8 -15 -17 -54 -20 -87 -11 -101 -46 -297 -62 -345 -9 -25
-20 -67 -26 -94 -13 -65 -42 -122 -73 -142 -37 -24 -120 -24 -138 0 -49 68
-111 407 -120 664 l-3 94 30 -6 c17 -3 105 -10 196 -16z m564 4 c4 -11 1 -14
-11 -12 -9 2 -18 9 -21 16 -6 18 25 15 32 -4z m97 -5 c14 -23 -17 -39 -52 -27
-24 8 -27 13 -19 28 11 21 57 20 71 -1z m193 12 c3 -5 -4 -11 -17 -15 -48 -13
-157 -2 -157 15 0 12 167 12 174 0z m-553 -27 c10 -13 10 -17 -1 -24 -26 -16
-54 12 -33 33 10 11 19 8 34 -9z m-2614 -8 c0 -8 -6 -12 -14 -9 -7 3 -10 9 -7
14 8 14 21 11 21 -5z m-1556 -19 c-10 -9 -11 -8 -5 6 3 10 9 15 12 12 3 -3 0
-11 -7 -18z m4743 8 c-4 -8 -11 -12 -16 -9 -6 4 -5 10 3 15 19 12 19 11 13 -6z
m-2797 -47 c-3 -8 -6 -5 -6 6 -1 11 2 17 5 13 3 -3 4 -12 1 -19z m1681 -12 c3
-12 -1 -17 -10 -14 -7 3 -15 13 -16 22 -3 12 1 17 10 14 7 -3 15 -13 16 -22z
m564 -6 c-8 -53 -56 -71 -68 -25 -10 40 2 57 38 53 29 -3 33 -6 30 -28z
m-1632 -15 c0 -28 -15 -34 -24 -9 -10 25 -7 34 9 34 9 0 15 -9 15 -25z m-1010
-12 c-1 -24 -2 -26 -11 -10 -5 9 -7 22 -4 27 10 17 15 11 15 -17z m993 -45 c4
-11 2 -18 -6 -18 -21 0 -35 20 -30 40 4 15 8 17 17 7 7 -7 15 -20 19 -29z
m1569 -7 c-12 -10 -12 -82 0 -75 7 4 8 2 4 -5 -16 -25 -27 4 -24 60 3 50 5 57
15 42 7 -9 10 -19 5 -22z m44 -33 c-9 -57 -26 -73 -26 -26 0 43 8 68 22 68 7
0 8 -16 4 -42z m-2120 -2 c2 -13 -2 -17 -17 -13 -10 3 -17 1 -13 -4 6 -10 -9
-12 -19 -3 -9 9 4 35 14 28 5 -3 9 0 9 6 0 18 23 6 26 -14z m494 -6 c0 -11 -7
-20 -15 -20 -15 0 -21 21 -8 33 12 13 23 7 23 -13z m-502 -69 c3 -16 -1 -22
-10 -19 -7 3 -15 15 -16 27 -3 16 1 22 10 19 7 -3 15 -15 16 -27z m498 17 c5
-7 3 -8 -6 -3 -9 6 -12 4 -8 -6 3 -8 0 -28 -7 -44 l-13 -30 -1 41 c-1 51 17
72 35 42z m1636 -10 c-7 -7 -12 -26 -13 -42 -1 -30 -1 -30 -8 -6 -7 23 10 60
28 60 3 0 0 -5 -7 -12z m-57 -80 c-7 -73 -27 -128 -46 -128 -6 0 -9 7 -5 15 3
8 8 38 12 67 14 126 52 169 39 46z m-2043 3 c9 -32 -3 -44 -24 -24 -11 10 -23
16 -27 13 -3 -3 -7 4 -9 16 -3 18 1 20 27 16 16 -2 31 -11 33 -21z m1532 -18
c3 -16 15 -113 27 -218 12 -104 23 -192 26 -195 7 -7 23 22 35 68 13 45 22 52
32 26 4 -10 -1 -25 -10 -35 -17 -19 -14 -23 20 -19 11 1 15 -3 12 -9 -4 -6
-13 -11 -21 -11 -23 0 -25 -16 -4 -38 24 -26 95 -30 177 -8 58 15 74 6 46 -25
-36 -40 -83 -62 -123 -56 -44 6 -121 53 -121 74 0 10 -7 14 -20 10 -42 -11
-60 51 -85 297 -18 175 -17 166 -6 166 5 0 12 -12 15 -27z m-1550 -42 c12 -13
14 -21 6 -26 -13 -8 -40 12 -40 31 0 20 14 17 34 -5z m2085 -70 c-7 -19 -15
-29 -20 -24 -6 6 -5 23 2 42 7 19 15 29 20 24 6 -6 5 -23 -2 -42z m-2039 8 c0
-5 -7 -9 -15 -9 -15 0 -20 12 -9 23 8 8 24 -1 24 -14z m373 -11 c-6 -34 -23
-63 -23 -39 0 7 -4 9 -10 6 -16 -10 -12 14 8 40 24 34 33 31 25 -7z m1625 -35
c2 -8 -6 -13 -22 -13 -25 0 -33 10 -19 24 10 10 36 3 41 -11z m-1661 -71 c-12
-38 -15 -42 -26 -28 -19 23 -33 20 -31 -6 4 -39 1 -48 -15 -48 -9 0 -25 -16
-36 -35 -35 -58 -83 -41 -160 56 -41 53 -30 61 21 15 45 -40 78 -45 136 -21
28 12 34 19 29 34 -5 16 1 23 28 35 20 8 38 24 42 36 13 42 24 5 12 -38z m-57
39 c0 -5 -7 -12 -16 -15 -14 -5 -15 -4 -4 9 14 17 20 19 20 6z m1710 -26 c0
-8 -9 -24 -20 -35 -11 -11 -20 -32 -20 -46 0 -14 -4 -23 -10 -19 -11 7 -14 74
-4 99 8 21 54 21 54 1z m-1783 -58 c4 -5 0 -5 -10 -1 -10 4 -17 1 -17 -6 0
-10 -3 -10 -15 0 -8 6 -20 8 -26 4 -7 -4 -9 -3 -6 3 8 12 62 12 74 0z m120
-29 c-29 -74 -72 -158 -81 -158 -7 0 -17 5 -24 12 -8 8 -4 19 18 45 16 18 40
51 52 73 21 37 47 57 35 28z m1591 -25 c1 -35 -20 -113 -30 -113 -4 0 -8 20
-8 45 0 25 5 45 10 45 6 0 10 11 10 25 0 34 17 32 18 -2z m-1848 -14 c0 -6 -4
-7 -10 -4 -5 3 -10 11 -10 16 0 6 5 7 10 4 6 -3 10 -11 10 -16z m21 -69 c14
-45 4 -65 -17 -36 -16 22 -19 76 -4 76 5 0 15 -18 21 -40z m1594 0 c-3 -5 1
-11 7 -13 7 -3 4 -6 -7 -6 -11 0 -27 4 -35 9 -13 8 -12 10 3 10 10 0 15 4 12
10 -3 6 1 7 9 4 9 -3 14 -10 11 -14z m165 11 c0 -6 -9 -9 -20 -8 -11 1 -20 5
-20 9 0 4 9 8 20 8 11 0 20 -4 20 -9z m-110 -21 c-20 -13 -33 -13 -25 0 3 6
14 10 23 10 15 0 15 -2 2 -10z m-1566 -6 c30 -12 18 -34 -19 -34 -22 0 -35 5
-35 13 0 26 21 34 54 21z m1710 -58 c-11 -30 -95 -86 -127 -86 -36 0 -33 7 7
14 31 6 90 47 109 76 13 23 20 20 11 -4z m-2465 -43 c-13 -12 -19 -23 -15 -23
5 0 3 -7 -4 -15 -7 -8 -17 -12 -22 -9 -5 3 -3 13 6 22 8 10 18 29 21 45 6 22
10 25 21 16 13 -10 11 -16 -7 -36z m776 21 c46 9 56 -11 21 -41 -37 -32 -51
-29 -81 14 -32 48 -32 60 1 38 18 -12 36 -15 59 -11z m1426 -11 c13 -16 12
-17 -3 -4 -10 7 -18 15 -18 17 0 8 8 3 21 -13z m953 -638 c-4 -8 -11 -15 -16
-15 -6 0 -5 6 2 15 7 8 14 15 16 15 2 0 1 -7 -2 -15z m-2899 -52 c40 -32 89
-71 109 -86 20 -15 43 -41 51 -58 14 -27 14 -30 -1 -36 -11 -4 -46 24 -121 98
-149 148 -164 181 -38 82z m2885 -130 c0 -112 -3 -145 -18 -172 -19 -38 -88
-99 -99 -88 -3 4 -12 57 -20 118 -11 93 -11 115 0 128 7 9 37 46 67 84 29 37
57 67 62 67 4 0 8 -62 8 -137z m-180 -37 c-5 -13 -7 -26 -5 -28 2 -2 -4 -4
-15 -4 -14 0 -16 3 -8 13 6 7 7 13 2 13 -6 0 25 29 33 30 1 0 -2 -11 -7 -24z
m-50 -40 c0 -3 -4 -8 -10 -11 -5 -3 -10 -1 -10 4 0 6 5 11 10 11 6 0 10 -2 10
-4z m-38 -23 c-6 -3 -10 -9 -6 -14 3 -5 -2 -9 -10 -9 -9 0 -16 -3 -16 -8 0 -4
-9 -13 -19 -19 -15 -10 -19 -9 -17 2 2 16 68 65 76 57 3 -3 -1 -7 -8 -9z m82
0 c3 -10 10 -49 16 -87 11 -73 36 -126 57 -126 7 0 31 16 53 36 l40 36 0 -49
c0 -67 -28 -354 -39 -405 -5 -22 -13 -44 -18 -48 -4 -4 -72 18 -150 49 -78 31
-188 74 -245 96 -74 28 -112 49 -137 75 -47 49 -132 171 -126 181 6 9 117 45
166 53 56 10 296 133 332 171 37 39 44 41 51 18z m-1824 -223 c-8 -5 -19 -10
-25 -10 -5 0 -3 5 5 10 8 5 20 10 25 10 6 0 3 -5 -5 -10z m1269 -75 c34 -60
36 -65 21 -65 -5 0 -10 6 -10 13 0 6 -18 32 -40 56 -29 32 -37 47 -28 52 17
11 22 6 57 -56z m-1045 20 c98 -14 191 -25 207 -25 16 0 29 -4 29 -9 0 -11
-39 -18 -173 -31 -60 -5 -130 -17 -157 -27 l-49 -17 -29 28 c-17 15 -38 43
-48 62 -17 30 -17 36 -4 44 8 5 22 8 30 5 8 -2 95 -16 194 -30z m998 -35 c26
-26 30 -36 25 -68 -2 -21 -25 -71 -51 -112 -47 -77 -66 -134 -49 -151 7 -7 17
3 30 28 11 21 40 76 65 123 25 47 47 92 50 100 4 11 40 -19 124 -100 66 -64
136 -130 157 -148 35 -30 47 -52 28 -52 -4 0 -59 -44 -121 -97 -109 -96 -163
-140 -439 -361 -220 -176 -283 -212 -451 -257 -144 -39 -222 -42 -311 -15
-208 63 -456 240 -537 383 -35 61 -136 217 -206 317 -25 36 -46 68 -46 72 0 4
39 28 88 54 105 57 254 156 338 224 l61 49 74 -99 c41 -55 75 -106 77 -114 2
-8 -12 -23 -31 -35 -56 -35 -71 -57 -61 -90 l9 -29 67 63 68 63 -16 38 c-9 22
-27 53 -40 71 -14 18 -20 34 -14 38 5 3 71 15 147 25 76 11 170 29 208 39 82
23 213 37 455 51 96 6 186 12 200 14 61 8 73 5 102 -24z m828 -63 c0 -7 -6
-21 -13 -32 -18 -24 -32 -3 -17 25 12 23 30 27 30 7z m-25 -83 c-1 -14 -7 -30
-14 -37 -8 -8 -11 -2 -11 26 0 25 5 37 14 37 9 0 13 -9 11 -26z m-2422 -20
c21 -4 36 -11 35 -16 -2 -6 -37 -28 -78 -49 -41 -22 -86 -51 -99 -64 l-25 -24
38 -75 c20 -41 63 -110 94 -153 70 -95 152 -225 152 -242 0 -17 101 -122 164
-170 69 -53 225 -141 311 -176 65 -27 79 -29 210 -29 128 -1 148 2 233 28 76
24 97 27 113 18 23 -15 39 -15 39 -2 0 6 -7 10 -15 10 -31 0 -13 20 53 59 37
21 99 65 139 98 230 188 274 223 333 268 36 27 102 84 147 127 105 99 194 158
240 158 48 0 40 15 -40 75 -159 119 -131 119 154 -1 114 -48 115 -49 121 -118
4 -37 28 -48 28 -12 0 53 60 28 180 -73 126 -106 212 -189 244 -235 l34 -49
-45 -86 c-76 -143 -167 -257 -516 -645 -64 -71 -114 -133 -111 -138 8 -12 64
19 105 59 l36 34 35 -48 c74 -102 100 -145 95 -156 -3 -7 -50 -37 -106 -67
l-101 -54 0 -323 c0 -187 6 -412 15 -535 8 -117 19 -312 23 -433 11 -280 9
-286 -33 -103 -14 65 -43 171 -64 236 -21 65 -46 151 -56 192 -14 58 -26 83
-57 116 -24 26 -35 45 -28 49 6 3 7 11 4 17 -4 5 3 23 15 39 37 49 29 74 -36
116 -32 20 -61 41 -66 47 -4 6 12 29 38 54 25 24 45 45 45 48 0 3 -21 28 -47
56 -64 66 -77 92 -62 119 18 34 12 107 -18 230 -27 112 -27 119 -28 429 l0
315 28 60 c28 57 50 115 132 340 20 55 41 104 46 110 11 11 12 35 0 35 -16 0
-179 -376 -207 -478 -9 -33 -24 5 -24 61 0 68 -12 99 -30 81 -13 -13 -13 20
-5 -394 7 -362 8 -374 49 -590 29 -152 31 -186 14 -197 -7 -4 -19 -16 -26 -25
-12 -15 -5 -25 59 -85 l72 -69 -44 -26 c-53 -31 -152 -133 -146 -151 5 -17 35
-21 52 -7 8 7 15 25 15 41 0 37 27 39 68 4 17 -14 44 -30 61 -36 40 -14 40
-37 0 -107 -17 -30 -29 -55 -27 -56 2 -1 18 -13 36 -25 18 -13 41 -39 51 -60
31 -60 141 -443 177 -611 17 -85 57 -276 88 -423 31 -148 78 -348 106 -445 58
-207 80 -324 115 -597 34 -266 32 -260 71 -307 19 -22 36 -50 38 -62 17 -82
31 -138 48 -185 10 -30 18 -67 18 -83 0 -15 4 -28 9 -28 5 0 18 -21 29 -47 31
-73 120 -335 124 -363 3 -22 0 -25 -27 -23 -289 15 -790 26 -1525 33 -759 6
-916 10 -972 23 -36 9 -99 19 -140 23 -40 3 -84 8 -98 9 -24 3 -25 5 -23 71 7
270 25 485 48 584 14 57 30 131 35 164 21 128 40 217 82 371 l43 160 -4 340
c-6 692 -5 845 12 950 8 57 11 104 6 109 -20 22 -40 -87 -63 -339 -32 -352
-118 -1105 -141 -1230 -8 -44 -21 -150 -30 -235 -8 -85 -17 -164 -19 -175 -3
-11 -6 -186 -7 -388 -3 -366 -3 -368 -24 -362 -37 13 -548 17 -715 6 -451 -29
-574 -33 -753 -26 l-189 7 7 37 c3 20 22 88 40 151 19 63 66 241 105 395 170
674 284 1030 461 1447 49 115 89 211 89 213 0 5 66 145 154 325 49 99 113 199
215 336 33 44 63 88 67 97 3 9 12 17 19 17 7 0 24 12 37 28 12 15 36 33 51 40
40 17 60 72 60 162 -1 62 -9 100 -47 214 -25 77 -45 140 -43 142 6 5 227 9
227 3 0 -12 -80 -60 -109 -65 -41 -9 -52 -54 -13 -54 31 0 152 63 152 79 0 9
12 34 25 56 14 22 25 44 25 49 0 4 -32 41 -70 80 l-70 73 30 66 c77 169 180
713 180 948 0 88 -12 135 -30 124 -9 -5 -5 -119 6 -180 l5 -30 -41 44 c-22 24
-40 52 -40 62 0 23 -28 25 -36 4 -4 -9 14 -42 46 -82 43 -57 51 -72 46 -98 -3
-16 -15 -91 -26 -165 -22 -146 -57 -314 -72 -342 -5 -10 -13 -44 -19 -75 -6
-31 -26 -106 -45 -166 -37 -117 -42 -160 -21 -151 8 3 18 -6 25 -20 6 -14 30
-37 52 -51 23 -14 40 -31 37 -38 -4 -13 -5 -13 -168 -22 -64 -4 -122 -10 -129
-15 -11 -7 -9 -19 8 -67 52 -143 85 -331 68 -396 -4 -16 -23 -35 -51 -51 -24
-15 -50 -37 -57 -49 -6 -12 -37 -52 -69 -89 -31 -36 -62 -74 -67 -85 -21 -36
-26 -1 -14 95 6 53 14 187 17 297 10 346 37 576 79 677 14 33 14 37 -10 70
-26 36 -26 36 -8 73 21 45 39 53 64 30 20 -18 20 -17 20 18 0 71 -34 121 -76
111 -20 -5 -24 -2 -24 16 0 12 9 35 21 51 18 25 18 30 5 35 -19 7 -46 -2 -46
-15 0 -6 7 -8 16 -4 14 5 15 3 5 -15 -7 -12 -16 -22 -21 -22 -13 0 -274 260
-332 330 -53 65 -68 91 -68 121 0 72 396 749 512 875 53 57 84 73 161 83 77
10 299 13 350 5z m1927 -61 c0 -20 -20 -12 -38 16 -15 22 -15 22 11 10 15 -7
27 -19 27 -26z m114 -142 c3 -5 -1 -11 -9 -14 -9 -4 -12 -1 -8 9 6 16 10 17
17 5z m322 -29 c-9 -8 -26 10 -26 26 1 15 2 15 15 -2 8 -11 13 -21 11 -24z
m-536 -831 c0 -23 -16 -36 -25 -21 -9 14 1 40 15 40 5 0 10 -9 10 -19z m465
-320 c3 -5 2 -12 -3 -15 -5 -3 -9 1 -9 9 0 17 3 19 12 6z m-2826 -150 c-2 -6
-10 2 -17 17 -11 25 -11 25 4 10 9 -9 15 -21 13 -27z m336 -562 c12 -19 -5
-23 -22 -6 -16 16 -16 17 -1 17 9 0 20 -5 23 -11z m2450 -1225 c0 -37 -10 -33
-20 7 -4 18 -2 26 7 26 8 0 13 -13 13 -33z m3 -69 c-3 -3 -9 2 -12 12 -6 14
-5 15 5 6 7 -7 10 -15 7 -18z m-2034 -281 c3 -8 2 -12 -4 -9 -6 3 -10 10 -10
16 0 14 7 11 14 -7z m14 -341 l4 -271 -50 -209 c-27 -114 -67 -298 -87 -408
-46 -248 -45 -245 -56 -245 -11 0 -7 47 36 370 48 357 92 731 105 890 6 74 14
146 17 159 5 22 6 22 16 5 7 -12 13 -126 15 -291z"/>
<path d="M4820 11160 c0 -11 5 -20 10 -20 6 0 10 9 10 20 0 11 -4 20 -10 20
-5 0 -10 -9 -10 -20z"/>
<path d="M1246 10924 c-7 -19 2 -37 15 -29 12 8 12 45 0 45 -5 0 -12 -7 -15
-16z"/>
<path d="M3480 9570 c0 -11 5 -20 10 -20 6 0 10 9 10 20 0 11 -4 20 -10 20 -5
0 -10 -9 -10 -20z"/>
<path d="M4790 6619 c7 -11 14 -19 16 -16 7 7 -7 37 -17 37 -6 0 -5 -9 1 -21z"/>
<path d="M5305 6430 c-3 -5 3 -10 14 -10 11 0 23 5 26 10 3 6 -3 10 -14 10
-11 0 -23 -4 -26 -10z"/>
<path d="M936 6325 c-22 -17 -17 -29 8 -19 9 3 16 12 16 20 0 17 0 17 -24 -1z"/>
<path d="M2205 9500 c-9 -15 4 -50 20 -50 7 0 15 7 18 14 4 11 1 13 -10 9 -12
-5 -14 -1 -8 15 6 22 -8 31 -20 12z"/>
<path d="M3661 9386 c-8 -10 -9 -16 -1 -21 5 -3 13 1 16 10 9 22 -1 29 -15 11z"/>
<path d="M2080 9356 c-12 -34 -12 -36 0 -36 16 0 33 41 21 53 -7 7 -13 2 -21
-17z"/>
<path d="M3596 9241 c-11 -12 -17 -23 -14 -26 8 -9 41 21 37 34 -3 9 -11 6
-23 -8z"/>
<path d="M1982 9178 c-14 -14 -16 -38 -3 -38 10 0 26 39 19 46 -2 2 -10 -2
-16 -8z"/>
<path d="M2600 8931 c0 -5 11 -16 25 -25 29 -19 34 -7 7 17 -21 19 -32 22 -32
8z"/>
<path d="M2610 8871 c0 -9 24 -21 42 -21 6 0 6 6 -2 15 -14 16 -40 20 -40 6z"/>
<path d="M2707 8746 c-3 -8 1 -17 9 -20 9 -4 14 1 14 14 0 23 -15 27 -23 6z"/>
<path d="M2987 8708 c-7 -27 2 -45 14 -27 11 18 11 49 0 49 -5 0 -11 -10 -14
-22z"/>
<path d="M2680 8705 c0 -8 -9 -15 -20 -15 -11 0 -20 -4 -20 -10 0 -5 8 -10 18
-10 21 0 56 33 45 43 -11 12 -23 8 -23 -8z"/>
<path d="M2570 7440 c0 -13 28 -25 38 -16 3 4 0 11 -8 16 -20 13 -30 12 -30 0z"/>
<path d="M1745 7389 c-4 -6 -5 -12 -2 -15 2 -3 7 2 10 11 7 17 1 20 -8 4z"/>
<path d="M3590 7328 c0 -9 5 -20 11 -23 17 -11 20 0 4 21 -13 17 -14 17 -15 2z"/>
<path d="M4481 7229 c-31 -33 -26 -48 6 -17 15 15 24 30 21 33 -3 4 -15 -4
-27 -16z"/>
<path d="M4535 7219 c5 -13 2 -25 -6 -30 -7 -4 -10 -11 -6 -15 4 -4 15 -1 23
8 17 17 11 58 -7 58 -6 0 -7 -9 -4 -21z"/>
<path d="M2250 7165 c0 -14 5 -25 10 -25 6 0 10 11 10 25 0 14 -4 25 -10 25
-5 0 -10 -11 -10 -25z"/>
<path d="M4413 7116 c-32 -24 -68 -47 -80 -50 -26 -8 -31 -36 -8 -36 22 0 73
27 116 62 20 16 41 28 47 26 5 -2 10 0 11 5 6 42 -23 40 -86 -7z"/>
<path d="M4563 7015 c-24 -8 -77 -19 -118 -26 -83 -14 -99 -29 -32 -29 92 0
217 35 217 60 0 13 -14 11 -67 -5z"/>
<path d="M4654 7016 c-4 -10 -2 -22 4 -28 8 -8 13 -7 18 6 4 10 2 22 -4 28 -8
8 -13 7 -18 -6z"/>
<path d="M1716 6839 c3 -6 0 -15 -7 -20 -7 -4 -10 -11 -6 -15 11 -11 41 22 33
35 -4 6 -12 11 -17 11 -6 0 -7 -5 -3 -11z"/>
<path d="M4570 6720 c0 -19 33 -75 37 -63 2 6 -3 25 -12 42 -16 32 -25 39 -25
21z"/>
<path d="M2048 6594 c-14 -13 -9 -54 6 -54 8 0 18 5 21 10 3 6 2 10 -4 10 -5
0 -11 9 -13 21 -2 11 -6 17 -10 13z"/>
<path d="M2105 6530 c-3 -5 -12 -7 -20 -3 -8 3 -15 1 -15 -5 0 -6 6 -12 13
-15 15 -5 47 10 47 23 0 13 -17 13 -25 0z"/>
<path d="M2990 6516 c-30 -17 -90 -89 -90 -109 0 -9 14 -17 33 -21 52 -10 324
-19 343 -12 15 6 13 11 -16 41 -54 55 -105 87 -167 101 -70 17 -72 17 -103 0z
m158 -51 c54 -28 99 -62 92 -68 -6 -5 -215 12 -254 21 l-29 7 27 33 c24 27 34
32 72 32 28 0 62 -9 92 -25z"/>
<path d="M4107 6333 c-11 -10 -8 -43 3 -43 6 0 10 11 10 25 0 26 -2 29 -13 18z"/>
<path d="M4170 6305 c-7 -9 -10 -18 -7 -22 8 -7 37 15 37 28 0 14 -16 11 -30
-6z"/>
<path d="M2807 6194 c-4 -4 -4 -10 -2 -14 6 -10 45 0 45 11 0 10 -33 12 -43 3z"/>
<path d="M3363 6188 c2 -7 10 -13 17 -13 7 0 15 6 18 13 2 7 -5 12 -18 12 -13
0 -20 -5 -17 -12z"/>
<path d="M2609 5893 c-13 -16 -12 -17 4 -4 9 7 17 15 17 17 0 8 -8 3 -21 -13z"/>
<path d="M2380 5501 c0 -6 4 -13 10 -16 6 -3 7 1 4 9 -7 18 -14 21 -14 7z"/>
<path d="M3693 5233 c4 -3 1 -13 -6 -22 -11 -14 -10 -14 5 -2 16 12 16 31 1
31 -4 0 -3 -3 0 -7z"/>
<path d="M4246 5293 c-9 -9 -7 -33 3 -33 12 0 22 28 12 34 -5 3 -11 3 -15 -1z"/>
<path d="M2189 5143 c-13 -16 -12 -17 4 -4 16 13 21 21 13 21 -2 0 -10 -8 -17
-17z"/>
<path d="M1480 4755 c-13 -14 -19 -25 -14 -25 11 1 54 36 54 44 0 13 -18 5
-40 -19z"/>
<path d="M1613 4604 c-3 -8 -1 -20 6 -27 8 -8 11 -4 11 16 0 30 -7 35 -17 11z"/>
<path d="M4160 3686 c0 -2 8 -10 18 -17 15 -13 16 -12 3 4 -13 16 -21 21 -21
13z"/>
<path d="M2545 3640 c-10 -16 3 -28 43 -41 80 -26 111 -50 191 -147 69 -84
299 -312 339 -336 8 -5 21 -1 32 9 29 26 275 114 322 115 14 0 112 -362 138
-510 6 -36 17 -83 25 -105 7 -22 18 -92 24 -155 17 -170 32 -262 46 -290 8
-16 15 -94 19 -210 3 -102 11 -225 16 -275 21 -193 30 -354 34 -612 4 -278 16
-394 61 -609 18 -90 21 -122 13 -157 -11 -53 -7 -117 7 -119 6 0 16 12 24 28
20 40 27 685 12 1005 -16 344 -58 675 -93 742 -5 9 -19 17 -32 17 -22 0 -36
16 -36 41 0 16 29 10 39 -8 5 -10 12 -15 15 -12 15 14 -130 733 -199 988 -52
189 -64 273 -45 296 20 25 5 28 -31 6 -19 -11 -74 -32 -124 -47 -49 -15 -130
-42 -178 -61 l-88 -35 -86 78 c-85 77 -259 260 -275 288 -5 9 20 2 66 -20 41
-19 82 -34 91 -34 9 0 29 -7 43 -15 28 -16 451 -89 460 -80 9 9 0 12 -128 39
-335 72 -369 82 -508 145 -128 57 -230 92 -237 81z m1260 -1875 c51 -387 57
-460 62 -857 4 -259 2 -388 -5 -388 -5 0 -12 7 -15 14 -10 25 -26 289 -37 586
-10 287 -32 613 -50 748 -6 40 -10 83 -10 95 0 19 2 19 15 7 9 -10 23 -82 40
-205z"/>
<path d="M3442 3358 c6 -18 28 -21 28 -4 0 9 -7 16 -16 16 -9 0 -14 -5 -12
-12z"/>
<path d="M5136 11098 c16 -18 30 -35 32 -37 1 -2 5 -1 9 2 8 8 -46 67 -61 67
-5 0 3 -15 20 -32z"/>
<path d="M1840 6406 c0 -2 8 -10 18 -17 15 -13 16 -12 3 4 -13 16 -21 21 -21
13z"/>
<path d="M5365 6300 c-3 -6 1 -7 9 -4 18 7 21 14 7 14 -6 0 -13 -4 -16 -10z"/>
<path d="M4700 4541 c0 -6 4 -13 10 -16 6 -3 7 1 4 9 -7 18 -14 21 -14 7z"/>
<path d="M1615 4380 c-3 -6 1 -7 9 -4 18 7 21 14 7 14 -6 0 -13 -4 -16 -10z"/>
<path d="M1540 3006 c0 -2 8 -10 18 -17 15 -13 16 -12 3 4 -13 16 -21 21 -21
13z"/>
<path d="M8 3 c7 -3 16 -2 19 1 4 3 -2 6 -13 5 -11 0 -14 -3 -6 -6z"/>
</g>
</svg>
