<?xml version="1.0" standalone="no"?>
<!DOCTYPE svg PUBLIC "-//W3C//DTD SVG 20010904//EN"
 "http://www.w3.org/TR/2001/REC-SVG-20010904/DTD/svg10.dtd">
<svg version="1.0" xmlns="http://www.w3.org/2000/svg"
 width="291.000000pt" height="291.000000pt" viewBox="0 0 291.000000 291.000000"
 preserveAspectRatio="xMidYMid meet">
<g transform="translate(0.000000,291.000000) scale(0.100000,-0.100000)"
fill="#000000" stroke="none">
<path d="M1070 2798 c-36 -5 -80 -10 -99 -9 -19 0 -48 -9 -64 -21 -24 -17 -31
-18 -38 -7 -12 20 -43 -1 -47 -33 -2 -18 -17 -35 -47 -54 -40 -25 -44 -31 -42
-64 1 -23 -5 -44 -16 -54 -14 -14 -17 -36 -17 -109 -1 -110 -14 -174 -42 -204
-20 -22 -20 -24 -4 -42 9 -10 18 -31 20 -45 1 -14 6 -29 9 -33 4 -3 7 -15 7
-26 0 -13 -5 -17 -15 -13 -12 4 -15 -3 -15 -33 0 -40 -32 -81 -63 -81 -24 0
-21 -18 5 -40 l22 -18 -54 -63 c-87 -102 -111 -137 -161 -244 -48 -103 -81
-201 -114 -345 -24 -102 -27 -129 -22 -235 4 -104 9 -133 39 -215 33 -92 88
-199 88 -172 0 7 -11 34 -24 60 -74 146 -76 365 -6 599 32 104 156 381 166
370 3 -3 -5 -45 -35 -182 -15 -66 -62 -295 -77 -375 -18 -96 -26 -343 -14
-440 5 -41 14 -117 21 -169 10 -89 42 -200 74 -266 8 -16 24 -63 35 -103 12
-40 25 -70 31 -67 6 4 6 13 0 24 -25 47 -64 301 -48 317 6 6 67 -120 67 -139
0 -15 52 -107 61 -107 4 0 15 16 24 35 26 52 35 57 94 43 45 -10 53 -9 71 7
23 21 25 20 33 -16 6 -23 2 -28 -26 -40 -42 -16 -42 -16 -27 -34 15 -18 0 -21
-18 -3 -18 18 -55 -20 -47 -49 3 -14 1 -23 -6 -23 -26 0 -119 -51 -119 -65 0
-20 6 -19 38 4 15 10 44 24 64 32 35 12 39 11 53 -7 8 -10 15 -25 15 -31 0 -7
4 -13 10 -13 5 0 7 6 4 14 -3 8 3 16 17 19 15 4 23 1 26 -14 3 -10 9 -19 14
-19 14 0 10 27 -6 44 -14 13 -13 16 5 26 26 14 25 22 -5 58 l-25 30 25 16 c13
9 29 16 35 16 14 0 12 20 -5 50 -22 39 -19 50 14 44 16 -3 31 -1 35 4 4 8 19
7 45 -3 44 -15 55 -8 79 48 l12 28 40 -42 40 -43 39 22 c44 25 96 29 108 8 16
-26 50 -33 152 -31 94 2 106 4 119 23 13 20 16 20 37 6 21 -14 24 -14 33 2 9
16 11 15 33 -4 25 -24 39 -28 39 -10 0 6 2 9 5 6 3 -3 -2 -38 -11 -78 -9 -40
-17 -77 -18 -84 -1 -6 -7 -21 -14 -33 -18 -33 -14 -39 11 -16 12 11 36 28 52
36 17 8 41 27 54 41 28 30 46 33 68 10 15 -15 14 -19 -17 -45 -32 -28 -32 -30
-14 -44 10 -8 17 -15 14 -15 -76 -18 -95 -27 -98 -47 -2 -15 2 -23 12 -23 9 0
13 6 10 15 -4 10 3 16 23 21 15 3 36 8 46 11 9 2 17 0 17 -6 0 -6 5 -11 10
-11 19 0 10 39 -11 51 -14 7 -18 14 -11 21 11 11 119 -62 129 -88 3 -8 12 -14
20 -14 23 0 -23 57 -71 87 -55 34 -54 33 -32 48 21 16 15 45 -9 45 -8 0 -15 5
-15 10 0 10 32 6 79 -12 16 -6 27 -4 35 5 6 8 29 24 51 37 22 13 50 32 63 43
l22 20 23 -21 c13 -12 36 -22 52 -22 21 0 41 -13 78 -51 27 -28 48 -47 46 -42
-2 4 -11 25 -19 45 -8 21 -17 38 -21 38 -4 0 -7 37 -8 82 -2 85 5 91 29 28 30
-79 103 -160 175 -194 16 -8 47 -35 68 -61 21 -25 43 -42 49 -39 6 4 0 15 -14
28 -72 62 -101 149 -127 371 -13 108 -37 275 -46 316 -4 16 -5 29 -2 29 2 0
32 -55 65 -123 57 -117 67 -129 179 -243 122 -124 202 -194 222 -194 19 0 12
16 -13 28 -47 21 -165 144 -217 224 -60 94 -119 215 -149 308 -25 79 -80 332
-73 343 2 4 15 7 29 7 26 0 33 15 11 23 -9 3 -12 16 -9 36 5 33 36 61 87 78
27 9 30 14 31 54 0 24 3 60 8 79 4 19 7 38 7 42 0 4 15 40 34 80 19 40 35 77
35 83 0 6 11 26 24 44 14 18 28 51 31 73 5 30 14 44 36 57 37 21 44 39 23 62
-15 17 -15 19 0 35 9 9 14 24 11 34 -3 9 1 23 10 30 8 7 15 16 15 20 0 17 -99
151 -126 173 -16 12 -39 34 -51 48 -13 15 -41 34 -64 43 -23 10 -68 44 -103
80 -73 75 -110 96 -171 96 -47 0 -51 4 -36 43 18 46 -34 90 -59 50 -10 -17
-10 -17 -20 0 -13 21 -33 22 -50 2 -21 -25 -43 -19 -36 9 5 20 1 27 -26 40
-17 9 -50 19 -72 22 -26 4 -61 22 -97 49 -31 24 -65 48 -76 53 -51 28 -265 86
-294 81 -29 -6 -208 14 -293 32 -49 10 -90 18 -90 18 -1 -1 -30 -6 -66 -11z
m75 -18 c-4 -7 2 -9 19 -4 14 3 26 2 26 -3 0 -5 19 -10 43 -11 23 -2 56 -7 72
-12 17 -5 41 -8 55 -8 140 9 414 -52 469 -103 11 -10 26 -19 32 -19 7 0 9 -3
6 -6 -4 -4 8 -15 26 -25 17 -9 31 -22 29 -29 -1 -6 2 -9 7 -6 16 10 91 -5 84
-17 -4 -7 0 -8 12 -3 21 8 35 -8 35 -41 0 -27 26 -33 63 -15 23 11 31 11 43 1
13 -10 20 -10 36 0 27 17 30 11 17 -29 -10 -29 -10 -35 6 -47 11 -7 29 -13 43
-13 13 0 21 -4 18 -8 -2 -4 10 -6 28 -4 21 2 39 -2 49 -12 8 -9 20 -16 26 -16
6 0 21 -14 33 -31 28 -38 117 -111 128 -104 12 7 96 -74 92 -88 -2 -7 0 -9 4
-4 8 8 74 -51 74 -66 0 -4 12 -23 26 -42 24 -32 25 -35 9 -59 -9 -14 -15 -31
-12 -38 2 -7 -2 -21 -11 -30 -14 -16 -13 -20 4 -39 18 -20 18 -21 0 -31 -32
-18 -56 -47 -50 -62 3 -8 1 -17 -5 -21 -6 -3 -11 -15 -11 -26 0 -10 -4 -19 -9
-19 -8 0 -18 -21 -36 -75 -3 -11 -6 -21 -5 -23 0 -1 -6 -10 -15 -18 -8 -9 -15
-23 -15 -31 0 -9 -7 -24 -15 -33 -16 -18 -28 -88 -28 -162 0 -27 -3 -48 -6
-49 -29 -4 -45 -10 -61 -24 -10 -9 -23 -14 -28 -11 -8 5 -10 -1 -13 -41 -1
-10 -6 -24 -11 -30 -6 -7 -8 -20 -4 -28 3 -8 1 -15 -3 -15 -12 0 -21 26 -21
56 0 43 -27 94 -49 94 -18 0 -20 5 -15 35 6 39 1 42 -45 19 -33 -16 -33 -16
-61 17 -16 19 -29 39 -30 45 0 7 -20 21 -45 33 -25 12 -45 28 -45 36 0 19 -32
35 -72 35 -27 0 -37 7 -55 35 -15 22 -28 32 -38 29 -9 -4 -18 3 -24 19 -7 17
-19 26 -43 30 -21 3 -48 19 -70 41 -23 23 -45 36 -62 36 -16 0 -37 10 -49 24
-13 14 -40 27 -62 31 -72 12 -106 27 -115 49 -4 12 -19 28 -34 35 -23 13 -27
12 -45 -10 l-20 -24 -1 22 c0 37 -35 48 -76 24 -53 -31 -113 -28 -168 10 -26
17 -46 35 -46 40 0 22 -60 36 -116 26 -62 -10 -94 3 -122 54 -21 35 -32 36
-71 4 l-30 -26 -17 31 c-20 32 -34 39 -34 15 0 -8 -17 -25 -38 -39 -20 -13
-43 -31 -51 -40 -15 -18 -31 -13 -31 11 0 9 3 14 6 10 11 -11 59 56 56 79 -2
12 3 26 11 31 8 4 16 22 19 40 2 18 1 30 -4 27 -4 -3 -9 3 -10 13 0 10 -2 23
-2 30 -1 7 -7 18 -13 24 -9 9 -8 17 2 33 22 33 36 114 36 205 1 69 4 89 21
112 12 15 21 42 20 59 -1 25 6 35 37 55 27 16 40 33 44 55 6 27 9 30 27 20 16
-9 26 -7 48 9 18 12 33 17 42 11 7 -5 24 -4 39 3 14 6 53 14 86 17 33 4 61 8
63 8 2 1 0 -3 -3 -8z m-275 -795 c0 -11 44 -47 88 -71 1 -1 -13 -25 -32 -53
-20 -29 -38 -68 -42 -87 -4 -20 -12 -38 -19 -40 -7 -3 -30 -61 -51 -130 -21
-68 -42 -124 -47 -124 -5 0 -6 15 -3 33 4 17 13 68 21 112 7 44 16 88 20 98 4
9 3 17 -3 17 -6 0 -18 -33 -26 -72 -8 -40 -21 -102 -29 -137 -11 -57 -14 -62
-28 -48 -12 11 -14 28 -9 73 4 33 5 64 1 69 -8 13 -18 -39 -20 -97 l-1 -48
-41 0 c-26 0 -38 -4 -33 -11 3 -6 22 -9 40 -7 27 3 33 1 30 -12 -21 -74 -46
-183 -46 -199 0 -15 -12 -22 -51 -31 -50 -12 -71 -32 -52 -51 5 -5 21 -4 41 3
34 13 53 5 34 -14 -9 -9 -12 -9 -12 0 0 7 -4 12 -9 12 -6 0 -9 -9 -8 -20 1
-11 8 -20 15 -20 10 0 11 -4 5 -12 -18 -23 -83 -186 -99 -245 -27 -102 -4
-202 68 -295 17 -21 26 -43 22 -49 -4 -7 -3 -9 3 -6 13 8 66 -47 56 -57 -5 -4
-3 -6 2 -4 6 2 37 -18 70 -43 33 -25 84 -61 113 -78 28 -18 52 -35 52 -37 0
-3 -5 -2 -11 1 -6 4 -13 -1 -15 -12 -9 -32 -55 -46 -109 -32 -52 13 -46 16
-91 -46 -18 -25 -23 -18 -61 80 -14 39 -37 87 -50 107 -12 21 -23 47 -23 58 0
11 -4 20 -9 20 -12 0 -24 -121 -17 -162 5 -30 5 -30 -9 7 -9 22 -13 45 -10 53
2 7 1 11 -4 7 -21 -12 -45 189 -56 450 -4 104 9 223 40 370 8 39 33 160 55
270 25 122 50 220 65 250 49 99 25 80 -62 -50 -51 -75 -83 -137 -115 -225 -11
-30 -24 -59 -28 -65 -22 -29 -67 -227 -74 -322 -3 -36 -8 -68 -11 -72 -6 -5
-2 114 6 189 5 54 54 233 88 324 44 116 92 203 140 252 16 17 31 36 33 44 4
18 103 125 151 162 l38 31 20 -22 c11 -11 21 -21 23 -21 2 0 16 11 32 25 33
29 44 31 44 10z m238 -83 c15 -16 42 -37 60 -47 17 -11 32 -22 32 -26 0 -3 26
-7 58 -8 46 -1 64 3 84 19 24 18 48 26 48 16 0 -3 -18 -32 -40 -65 -61 -91
-173 -333 -231 -500 -21 -58 -30 -103 -30 -148 -1 -55 -3 -62 -16 -52 -37 31
-103 216 -127 355 -15 84 -53 245 -61 252 -6 7 35 116 61 160 43 72 117 92
162 44z m372 -71 c0 -5 -6 -22 -14 -38 -8 -15 -42 -85 -77 -156 -34 -70 -64
-125 -67 -123 -2 3 8 42 23 87 30 92 55 184 55 202 -2 42 -110 -283 -110 -330
0 -9 -9 -31 -21 -49 -11 -19 -16 -34 -10 -34 24 0 182 274 211 365 19 61 26
61 39 -2 14 -73 52 -139 130 -226 86 -96 84 -99 -41 -92 -57 4 -125 11 -151
16 -60 11 -117 12 -117 0 0 -4 28 -11 63 -15 166 -17 283 -26 299 -20 24 7 23
-5 -6 -79 -13 -34 -27 -73 -31 -87 -12 -42 -23 -50 -53 -38 -33 13 -322 20
-322 8 0 -25 467 -54 548 -33 16 4 22 1 22 -12 0 -16 -17 -17 -217 -12 -214 5
-259 8 -317 28 -32 10 -49 3 -26 -11 12 -8 12 -10 -3 -16 -28 -10 -19 -24 16
-25 17 0 41 -4 52 -9 14 -7 4 -8 -32 -6 -29 2 -53 0 -53 -4 0 -14 23 -17 145
-19 66 -1 151 -6 190 -11 38 -5 107 -10 153 -10 l83 0 -5 -93 c-2 -51 -9 -104
-15 -119 -6 -15 -13 -46 -15 -70 -3 -24 -15 -90 -26 -148 -12 -58 -25 -150
-31 -204 -14 -135 -32 -163 -74 -116 -21 24 -45 26 -45 5 0 -20 -16 -19 -24 2
-6 14 -10 13 -34 -9 -34 -32 -142 -47 -162 -23 -10 12 -15 12 -34 0 -21 -14
-25 -13 -53 15 -28 28 -35 30 -75 24 -23 -3 -54 -13 -67 -22 -24 -14 -26 -13
-62 29 -32 38 -39 42 -53 30 -9 -7 -21 -30 -27 -51 l-11 -37 -41 15 c-28 12
-42 13 -44 5 -3 -7 -25 2 -56 22 -29 18 -76 48 -105 67 -71 44 -200 182 -234
250 -53 104 -46 193 27 353 l32 70 89 3 c49 2 118 7 152 12 35 5 71 6 80 3 13
-5 14 -3 5 7 -6 7 -9 19 -6 28 6 13 -5 14 -83 8 -49 -4 -99 -10 -111 -13 -13
-3 -23 -1 -23 5 0 9 34 16 155 28 54 6 102 21 93 29 -3 3 -125 -9 -200 -20
-29 -5 -48 -4 -48 2 0 13 90 33 148 33 26 0 57 3 70 6 25 7 30 24 7 24 -8 0
-15 5 -15 10 0 14 -37 13 -46 -1 -4 -7 -31 -9 -83 -4 -42 4 -77 8 -79 10 -8 8
24 164 41 195 12 24 16 27 11 10 -13 -52 -16 -102 -5 -113 8 -8 11 -2 11 23 0
19 5 51 10 72 l10 36 65 4 64 3 12 -65 c23 -126 82 -282 128 -336 14 -17 31
-39 38 -50 10 -16 12 -11 8 32 -8 117 33 263 141 492 20 42 48 102 62 132 14
30 28 57 31 60 3 3 13 19 21 35 25 50 33 55 52 33 16 -19 17 -19 33 6 17 26
35 34 35 17z m166 -182 c13 -52 26 -105 29 -119 5 -20 0 -17 -35 20 -37 41
-99 152 -114 206 -6 21 -6 21 45 4 l52 -16 23 -95z m24 81 c6 -11 22 -23 35
-26 33 -8 39 -36 32 -141 -5 -81 -10 -103 -23 -90 -4 4 -72 257 -74 275 -1 11
22 -2 30 -18z m-768 -177 l15 -63 -59 0 c-52 0 -59 2 -54 18 2 9 17 59 33 110
l28 93 11 -48 c7 -26 18 -76 26 -110z m899 102 c22 -19 44 -35 49 -35 15 0 12
-58 -8 -125 l-17 -60 -43 -2 -44 -1 9 36 c4 20 8 79 8 130 0 50 2 92 4 92 2 0
21 -16 42 -35z m99 -66 c0 -14 9 -21 30 -26 20 -4 36 -16 45 -34 13 -24 22
-28 62 -31 39 -2 49 -7 51 -23 3 -19 42 -45 69 -45 7 0 13 -4 13 -10 0 -5 20
-30 44 -56 l43 -47 32 16 32 16 -3 -32 c-3 -28 0 -32 24 -35 22 -3 28 -10 37
-50 6 -26 13 -67 16 -92 3 -25 11 -70 18 -101 8 -31 13 -68 13 -82 -1 -15 2
-27 6 -27 4 0 8 -10 8 -22 1 -13 18 -73 39 -135 20 -62 33 -110 27 -107 -6 3
-4 0 5 -8 8 -7 35 -49 58 -93 l43 -80 -35 40 c-44 50 -184 326 -192 380 -3 22
-10 47 -15 55 -15 23 -13 -21 5 -115 13 -72 36 -235 66 -465 10 -80 23 -154
35 -192 18 -61 -106 54 -146 135 -18 34 -35 69 -40 77 -5 8 -11 23 -14 33 -8
25 -27 21 -25 -5 1 -13 1 -58 1 -100 l-2 -77 -37 6 c-21 4 -51 16 -66 27 -20
14 -32 18 -42 11 -8 -6 -40 -28 -72 -50 -53 -38 -61 -40 -129 -40 -69 0 -71 1
-58 20 22 31 16 43 -7 15 -50 -60 -101 -110 -113 -110 -11 0 -10 15 5 73 26
98 27 105 44 242 15 118 27 192 65 391 11 56 20 131 21 167 l2 66 33 -5 c19
-3 42 -1 51 5 15 9 14 11 -12 12 -16 1 -40 0 -52 -1 -15 -1 -23 4 -23 14 0 11
9 16 26 16 16 0 24 5 21 13 -2 6 -10 11 -18 10 -9 -2 -15 8 -16 27 -2 27 1 30
28 30 20 0 29 4 26 13 -2 6 -15 12 -28 12 -24 0 -24 2 -26 98 -2 78 1 99 12
104 19 7 19 23 0 23 -12 0 -14 15 -10 88 2 48 4 88 5 90 2 13 20 -13 20 -29z
m-1175 -128 c7 -12 -12 -98 -30 -131 -7 -14 -11 -38 -10 -55 4 -28 -10 -49
-26 -40 -10 7 17 110 28 108 6 -1 10 3 10 10 -3 91 9 138 28 108z m1135 -15
c0 -3 -4 -8 -10 -11 -5 -3 -10 -1 -10 4 0 6 5 11 10 11 6 0 10 -2 10 -4z m-50
-32 c0 -9 -41 -62 -89 -112 -23 -26 -40 -38 -36 -27 4 11 13 35 20 54 11 31
13 32 24 15 9 -16 10 -13 5 18 -3 20 -4 40 -1 45 6 9 77 16 77 7z m42 -96 c-2
-57 -5 -104 -7 -106 -6 -7 -185 -14 -185 -8 0 9 62 66 72 66 4 0 20 19 34 42
15 23 35 51 45 62 11 11 19 26 19 33 0 7 6 13 13 13 9 0 11 -25 9 -102z
m-1162 -108 c0 -5 -12 -10 -26 -10 -14 0 -23 4 -19 10 3 6 15 10 26 10 10 0
19 -4 19 -10z m70 0 c-36 -11 -50 -11 -50 0 0 6 17 10 38 9 33 -1 34 -2 12 -9z
m740 0 c0 -5 -9 -10 -19 -10 -11 0 -23 5 -26 10 -4 6 5 10 19 10 14 0 26 -4
26 -10z m-870 -10 c0 -5 -11 -10 -25 -10 -14 0 -25 5 -25 10 0 6 11 10 25 10
14 0 25 -4 25 -10z m42 -23 c-12 -7 -19 -17 -15 -22 4 -4 2 -5 -4 -1 -24 13
-14 36 15 36 l27 -1 -23 -12z m18 -17 c0 -5 -4 -10 -10 -10 -5 0 -10 5 -10 10
0 6 5 10 10 10 6 0 10 -4 10 -10z m715 -12 c7 -7 -1 -9 -24 -4 -18 3 -42 6
-52 6 -11 0 -19 5 -19 11 0 13 80 2 95 -13z m442 -14 c3 -10 -117 -16 -164 -8
-18 3 -33 8 -33 12 0 10 194 6 197 -4z m-1147 -4 c0 -5 -18 -10 -40 -10 -22 0
-40 5 -40 10 0 6 18 10 40 10 22 0 40 -4 40 -10z m868 -2 c56 -6 102 -16 102
-21 0 -5 -10 -7 -22 -3 -13 3 -65 9 -116 12 -51 4 -95 11 -98 15 -7 12 12 11
134 -3z m-161 -4 c-3 -3 -12 -4 -19 -1 -8 3 -5 6 6 6 11 1 17 -2 13 -5z m-527
-13 c-14 -4 -56 -8 -95 -8 -63 -1 -66 0 -25 7 63 10 153 11 120 1z m920 -1 c0
-5 -8 -10 -17 -10 -15 0 -16 2 -3 10 19 12 20 12 20 0z m40 -11 c0 -5 -7 -9
-15 -9 -9 0 -12 6 -9 15 6 15 24 11 24 -6z m-1130 1 c0 -5 -22 -10 -50 -10
-27 0 -50 5 -50 10 0 6 23 10 50 10 28 0 50 -4 50 -10z m109 -982 c11 -10 13
-10 7 0 -10 16 5 15 29 -4 20 -15 20 -15 -2 -34 -13 -10 -23 -23 -23 -28 0
-15 -41 -2 -47 15 -3 7 1 20 8 29 7 8 8 14 3 13 -18 -3 -25 1 -19 11 8 14 28
13 44 -2z"/>
<path d="M2575 1609 c-4 -6 -5 -12 -2 -15 2 -3 7 2 10 11 7 17 1 20 -8 4z"/>
<path d="M2430 1290 c-9 -6 -10 -10 -3 -10 6 0 15 5 18 10 8 12 4 12 -15 0z"/>
<path d="M548 1133 c-10 -3 -18 -11 -18 -19 0 -8 -4 -14 -10 -14 -5 0 -10 -4
-10 -10 0 -5 14 -10 31 -10 17 0 28 4 24 10 -3 6 -1 10 4 10 12 0 15 27 4 33
-5 2 -16 2 -25 0z"/>
<path d="M1293 1779 c-2 -23 3 -25 10 -4 4 8 3 16 -1 19 -4 3 -9 -4 -9 -15z"/>
<path d="M1011 1294 c0 -11 3 -14 6 -6 3 7 2 16 -1 19 -3 4 -6 -2 -5 -13z"/>
<path d="M956 1098 c3 -5 10 -6 15 -3 13 9 11 12 -6 12 -8 0 -12 -4 -9 -9z"/>
<path d="M1219 1093 c-13 -16 -12 -17 4 -4 9 7 17 15 17 17 0 8 -8 3 -21 -13z"/>
<path d="M620 1011 c0 -6 4 -13 10 -16 6 -3 7 1 4 9 -7 18 -14 21 -14 7z"/>
<path d="M1609 883 c18 -31 49 -63 60 -63 15 0 -41 79 -57 80 -9 0 -10 -5 -3
-17z"/>
<path d="M1670 883 c1 -13 51 -45 58 -38 4 4 -4 15 -17 26 -24 20 -41 25 -41
12z"/>
<path d="M617 653 c3 -7 6 -13 8 -13 2 0 5 6 8 13 3 8 -1 14 -8 14 -7 0 -11
-6 -8 -14z"/>
<path d="M990 590 c0 -13 34 -30 59 -30 12 0 21 5 21 10 0 6 -11 10 -24 10
-14 0 -28 5 -31 10 -8 13 -25 13 -25 0z"/>
<path d="M1075 520 c-3 -6 1 -7 9 -4 18 7 21 14 7 14 -6 0 -13 -4 -16 -10z"/>
<path d="M1890 260 c-9 -6 -10 -10 -3 -10 6 0 15 5 18 10 8 12 4 12 -15 0z"/>
<path d="M1790 1259 c0 -5 5 -7 10 -4 6 3 10 8 10 11 0 2 -4 4 -10 4 -5 0 -10
-5 -10 -11z"/>
<path d="M1048 3 c7 -3 16 -2 19 1 4 3 -2 6 -13 5 -11 0 -14 -3 -6 -6z"/>
</g>
</svg>
