<svg id="svg" version="1.1" viewBox="0 0 153.54330708661416 300" width="153.54330708661416" height="300" xmlns="http://www.w3.org/2000/svg"><svg xmlns="http://www.w3.org/2000/svg"><defs><clipPath id="clip-1"><rect x="0" y="0" transform="scale(0.14651,0.14648)" width="1048" height="2048" fill="none"/></clipPath><linearGradient x1="102.18234" y1="60.98232" x2="103.65126" y2="60.78706" gradientUnits="userSpaceOnUse" id="color-1"><stop offset="0" stop-color="#000000" stop-opacity="0"/><stop offset="1" stop-color="#000000" stop-opacity="0.03137"/></linearGradient></defs><g clip-path="url(#clip-1)" fill="none" fill-rule="nonzero" stroke="none" stroke-width="1" stroke-linecap="butt" stroke-linejoin="miter" stroke-miterlimit="10" stroke-dasharray="" stroke-dashoffset="0" font-family="none" font-weight="none" font-size="none" text-anchor="none" style="mix-blend-mode: normal"><path d="M150.15891,0h2.46431c0.48935,3.91683 -0.25786,5.66862 -0.48495,9.37478c-0.05567,3.06107 -0.23295,6.23503 -0.16849,9.2929c0.12307,5.77573 -0.26665,11.82231 0.11428,17.56934c0.23735,3.58462 0.67395,6.62812 0.73841,10.31396c-0.08058,1.41592 0.01172,2.82891 0.00586,4.24995l-0.02637,9.23936c0.03223,5.51104 -0.0586,11.63408 0.25932,17.10117c0.00147,-0.00747 0.07179,-1.23911 0.13772,-1.03535c0.05567,0.79849 0.0586,1.40947 0.3443,2.16694v14.56846c-0.67834,1.29858 -0.84097,2.94185 -1.26439,4.34956c-0.27398,0.91216 -0.66516,1.64458 -1.09883,2.48584c0.38093,3.34351 -0.56114,4.65908 -1.37134,7.78726c-2.0951,8.11714 -5.99639,15.49087 -10.48651,22.51538c-0.20892,0.32681 -1.07612,1.71475 -1.04052,1.95791c0.83174,5.66543 2.03753,11.08682 2.0869,16.87603c-0.12571,1.08984 -0.08454,2.07861 -0.06432,3.17432c0.63058,-0.18164 1.62187,-0.56543 2.22491,-0.40869c1.56488,0.98438 1.22014,5.44043 1.24212,7.09131c0.87687,1.29492 1.08257,2.56787 2.10023,4.10596c1.44064,-0.20361 1.61352,-0.32666 2.54387,0.92578c0.252,1.8208 0.26079,4.47363 0.33111,6.39258c0.16702,3.89648 0.26518,7.7959 0.29009,11.69531c0.01026,1.42969 -0.18753,6.08057 0.13039,7.01367c-0.0337,-0.30176 -0.0586,-0.36182 -0.15823,-0.65186l-0.14065,0.02197c-0.39558,2.34668 -0.30328,4.49414 -0.41316,6.8335c-0.22563,4.82666 -0.04102,9.53467 -0.01465,14.34082l-0.14798,-0.08496c-0.13186,-0.99463 0.08498,-4.22021 -0.09084,-4.55713c-0.07619,2.81982 -0.21684,5.63818 -0.42195,8.45215c-0.10256,1.59668 0.0044,3.28271 -0.5963,4.77539c-0.16556,0.41162 -0.28277,1.16309 -0.34137,1.60986c-0.60055,0.05713 -1.31127,0.10547 -1.89614,0.20947c-0.14988,0.21533 -0.81064,1.17041 -0.83394,1.35645c-0.22123,1.75781 -1.51463,5.81104 -0.99115,7.35645c-0.18035,1.11621 -0.72376,3.52588 -2.23356,3.40283c-1.2805,-0.7793 -1.02587,-3.15381 -1.62173,-3.67676c-0.53125,-0.0498 -1.96002,0.85254 -2.52233,1.17188c-0.72083,0.91699 0.62487,3.68262 0.91159,4.80322c0.424,1.65967 0.83145,3.24316 1.08843,4.94238c0.62121,0.0791 1.59155,0.18018 1.92017,0.75879c0.96682,1.70215 0.88463,5.99414 0.93386,7.94385c0.11779,4.66992 -0.4325,9.26074 -0.57432,13.88818c-0.1216,5.85645 -0.37902,11.70996 -0.77197,17.55469c-0.29317,4.50732 -0.21405,7.28027 -1.86596,11.58252c-0.93503,2.43457 -1.12579,6.40576 -1.74729,9.1626h-10.76605c-0.05201,-1.30225 0.65593,-5.91211 -0.04234,-6.56104c-0.88566,0.31934 -3.0294,5.31592 -3.70365,6.56104h-8.736c0.32994,-3.75146 0.8316,-6.87451 1.4068,-10.55127c0.22826,-1.45898 0.00498,-3.9126 0.29346,-5.91357c0.69344,-4.80908 1.65938,-9.26514 2.77125,-13.97461c1.75564,-7.43555 4.26859,-14.49316 6.41556,-21.80859c0.89035,-3.03369 1.3331,-6.13623 1.9968,-9.22266c0.32584,-1.51465 0.88463,-2.90479 1.19611,-4.41504c-3.04801,-0.06445 -4.45378,0.10986 -7.33243,-0.9917c-0.57564,1.83984 -1.58246,3.53906 -3.17621,1.23193c-0.24335,-4.01514 1.22849,-7.91455 1.45925,-11.91504c0.13362,-2.31592 -0.60025,-4.13379 -0.43616,-6.51855c0.21259,-3.08789 0.21903,-6.3501 0.45536,-9.42627c0.54634,-7.11035 1.50364,-14.10498 2.34813,-21.18311c0.15545,-1.30371 0.70281,-4.2334 1.78069,-5.19287c0.61564,-0.54932 2.43574,0.02197 3.23159,0.22705c0.60773,-6.43799 2.68291,-13.02246 3.64783,-19.4458c0.41829,-2.78467 0.72713,-5.09912 1.5536,-7.80322c0.99715,-0.71338 2.34461,-0.43652 2.57317,-0.83643c1.14835,-2.00977 1.57016,-2.90186 3.4244,-4.41943c0.07076,-2.63804 -0.85299,-9.46597 -1.78685,-11.93086c-1.83432,3.27173 -5.5299,6.84829 -7.808,9.9334c-0.62414,0.82559 -1.98669,1.95498 -2.53508,2.75918c-2.27692,3.33691 -4.0437,6.98291 -8.20578,8.24121c-1.12315,0.33984 -2.87645,1.63916 -4.1571,1.97314c-2.94516,0.76611 -3.72137,0.75439 -4.58315,-2.04492c-2.67075,0.69141 -5.72725,2.78613 -8.27727,3.55518c-1.85644,0.55957 -4.04736,1.09717 -5.95376,1.6333c-2.34491,0.44971 -5.3012,1.74902 -7.63819,1.94678c-9.63221,0.81445 -19.68534,1.12646 -29.19227,-0.86865c-1.80648,-0.37939 -3.20522,-0.97852 -4.83793,-1.40039c-5.48287,-1.2334 -9.24805,-3.77344 -13.72528,-6.84229c-4.89112,-3.35303 -7.70661,-6.65918 -11.37261,-11.30962c-1.88325,-2.38916 -2.98384,-5.15991 -4.77684,-7.52651c-0.79453,-1.04868 -4.36675,-2.59951 -5.50426,-3.55811c-6.83802,-4.67607 -11.83791,-12.45293 -14.7545,-20.10176c-0.64071,-1.68032 -0.93807,-4.38442 -1.88986,-5.78188v-16.83457c0.88877,-1.74463 2.58687,-9.90601 3.24017,-12.40137c1.83405,-7.00532 4.41516,-10.51479 8.6589,-16.246c1.42215,-1.9207 3.0607,-4.61221 4.60316,-6.43359c4.95353,-5.85161 11.23489,-10.19927 17.66041,-14.27109c-0.2331,0.1478 6.13704,-3.34043 5.32523,-3.09185c4.24808,-1.30107 10.30982,-3.89663 14.66734,-4.37739c1.9861,-1.76499 3.40447,-3.5001 5.30691,-5.27769c1.39171,-1.3002 3.29664,-2.16284 4.92188,-2.97656c4.66139,-2.33408 7.32876,-1.91499 12.43525,-1.88511c2.78825,0.01626 5.57825,0.04834 8.39976,0.23525c2.65404,0.17578 4.11563,1.03052 6.49937,1.84526c7.63658,2.61064 14.12628,6.79263 19.57194,12.7689c2.69668,2.95942 4.55121,6.24917 7.19793,9.16523c0.51235,0.56426 2.57039,1.70259 3.31613,2.2563c1.00609,0.76523 1.94962,1.65938 2.90106,2.4876c8.27845,7.20146 15.24591,15.91523 19.53765,26.06382c2.15444,5.09414 3.61266,10.35674 3.62731,15.91172c0.00293,0.85562 -0.42195,3.31011 0.60948,3.33501c2.42622,-1.41196 1.53397,-16.55845 1.52371,-19.72529c-0.01612,-11.02017 -0.16556,-22.03975 -0.44393,-33.05625c-0.05567,-1.86416 -0.61388,-4.12339 -0.63879,-5.7873c-0.07326,-4.87266 -0.19339,-10.38003 -0.12453,-15.20977c0.08351,-5.87373 -0.43367,-17.56425 1.33178,-22.922zM140.24379,107.40645c1.51111,-1.3604 3.05578,-3.43389 4.65772,-4.72412c0.00615,-2.72402 0.17215,-9.41587 -0.10637,-11.94697c-0.69475,-6.31187 -4.45613,-14.79712 -7.75511,-20.21587c-1.06645,-1.75151 -5.99625,-7.88042 -7.49593,-9.54888c-0.62663,-0.35537 -2.41992,-2.80942 -3.24932,-2.97876c-0.62926,1.42705 2.74957,1.99102 2.89359,4.27192c1.3309,3.49878 3.71214,7.59565 5.24655,11.19639c3.37414,7.91675 5.3075,16.37227 5.70879,24.96841c0.14929,2.81367 0.09054,6.1333 0.10007,8.97788zM102.95694,39.59092c0.79951,0.29399 1.51595,0.46479 2.29436,0.75146c0.97957,0.36094 2.30549,1.28862 3.27188,1.47847l0.10505,-0.19102c-1.01664,-0.89604 -1.01576,-1.38765 -2.05042,-2.29922c-4.74314,-4.17861 -9.77447,-7.1521 -15.70508,-9.30601c-1.25677,-0.4563 -3.74364,-1.57808 -5.02166,-1.70435c-4.33203,-0.42817 -10.15115,-0.54229 -14.51937,-0.31069c-0.11384,0.00703 -0.22753,0.01655 -0.34078,0.02871c-1.81395,0.08555 -7.73504,2.25732 -8.54656,3.52383l0.08131,0.1897c0.96521,0.28022 11.3099,0.27495 13.27959,0.35098c7.96623,0.30762 13.85523,2.63965 21.24597,5.37041c1.43888,0.53174 4.74006,1.56973 5.9057,2.11772zM105.32016,153.88623c0.9595,-1.14551 2.07357,-3.82324 1.94024,-5.30127l-0.00674,-0.06738l-0.29742,-0.19629c-1.19817,0.35889 -3.22353,2.13428 -4.44821,2.76709c-3.38982,1.76074 -6.6469,3.75439 -10.10895,5.37451c-0.47601,0.22266 -1.28197,0.25195 -1.71139,0.43506c-6.02189,2.56787 -12.25021,1.64209 -18.61214,1.70508c-0.80859,0.00732 -2.0699,-0.10693 -2.87073,0.10693c0.36232,0.06445 0.72537,0.12598 1.08916,0.18311c-1.25135,0.14063 -4.03286,-0.27393 -5.37783,-0.38379c-0.58927,-0.04687 -1.203,-0.26807 -1.79637,-0.19922c-2.56804,-0.5127 -3.43509,-1.45898 -5.74908,-2.23389c-2.14756,-0.71924 -4.47268,-1.25391 -6.67166,-1.91162c-4.93932,-1.43115 -9.64876,-3.5625 -13.98533,-6.3252c-1.07964,-0.71484 -2.73008,-1.58877 -3.46674,-2.4958l-0.03677,0.22354l-0.08864,0.14604c0.73446,0.61479 1.27508,1.4729 1.95797,2.14966c0.27617,0.27393 0.65227,0.31201 0.83833,0.54932c0.29375,0.94775 8.09501,5.93115 9.55998,6.6416c10.58496,5.12842 21.16583,6.0498 32.71762,5.58398c7.77416,-0.31494 11.00267,-1.16016 18.53186,-3.50537c1.47185,-0.45557 2.91908,-0.9873 4.33569,-1.59375c1.24226,-0.51855 3.07013,-1.48096 4.25716,-1.65234zM18.77272,127.97812c0.12908,-3.17651 -2.28645,-5.15317 -3.85118,-7.74961c-1.20025,-1.99204 -2.48071,-3.92021 -3.50857,-6.01509c-1.408,-2.64023 -1.77392,-4.87705 -2.71254,-7.5457c-0.84126,-2.39209 -3.10136,-6.45645 -4.54096,-8.55952c-0.96441,4.79062 0.7419,10.89785 2.81922,15.18413c0.76268,1.57368 1.30796,3.23716 2.35235,4.67124c3.06344,4.37842 5.02596,6.93896 9.44168,10.01455zM10.15115,83.90698c0.72261,-0.63179 2.17593,-5.47456 2.95575,-6.77651c1.1577,-2.22642 2.81765,-4.25112 3.94461,-6.48589c0.29595,-0.58711 0.39997,-2.05811 0.6508,-2.8374c0.39089,-1.21479 2.26491,-4.48682 2.19722,-5.56099c-0.37536,-0.16553 -0.49242,-0.14707 -0.90031,-0.16362c-0.91936,1.25142 -3.02735,2.11875 -4.27299,3.5814c-2.15229,2.52744 -4.04132,6.18193 -4.73753,9.46919c-0.1937,2.76489 -0.2064,6.24155 -0.39688,9.20859l0.09758,0.15659c0.20204,-0.22954 0.29318,-0.33721 0.46174,-0.59136zM130.86798,75.10913c-0.59322,1.4543 -0.07369,2.95444 0.52524,4.2835c2.91058,6.45703 3.79111,12.74194 3.40403,19.79194c-0.08629,1.57104 -0.53755,7.69219 -0.16263,8.85132c0.06754,0.92915 -2.18008,6.35889 -2.09144,7.59873l0.10959,0.01143c0.85518,-0.571 2.50636,-1.84189 2.97812,-2.77427c1.90493,-4.4499 1.74362,-11.05708 1.36651,-15.90703c-0.72054,-5.37686 -1.35669,-11.05972 -3.24521,-16.17012c-0.3317,-0.89766 -2.17862,-5.71787 -2.56467,-5.97979zM70.65175,140.94448c3.57223,0.88711 8.95782,2.12505 12.49591,0.3501c1.81703,-0.91172 3.90818,-3.55928 5.63451,-4.47378c0.18343,-0.37544 0.61373,-1.12632 0.58253,-1.48916l-0.24233,-0.11118c-1.39068,0.43638 -2.33113,0.46714 -3.72943,0.68496c-4.03212,0.62812 -7.48201,3.15322 -11.73654,3.20596c-0.54663,0.00688 -3.98993,0.20728 -4.27343,0.34175l0.21508,0.25737l-0.2939,0.25781c0.14754,0.64512 0.77299,0.80742 1.34761,0.97617zM130.67048,111.15103c1.5454,-5.22773 1.94933,-9.16274 1.69894,-14.58501c-0.09098,-1.97124 0.09699,-3.99712 -0.26636,-5.96353c-0.31441,-2.01724 -1.15553,-4.02568 -1.52928,-6.03911c-0.36452,-0.24448 -0.72171,-0.44517 -0.96507,-0.81167c-0.48656,1.91367 -1.07554,6.04761 -1.18894,8.00625c-0.09435,1.62788 1.33926,4.05439 1.6103,6.08848c0.28687,2.15259 -0.31221,12.32139 0.20292,13.49561l0.20497,0.08306zM97.44711,144.36519c-1.54261,-0.08423 -7.04541,2.74175 -8.96133,3.49468c-1.89263,0.74854 -3.82276,1.40039 -5.78249,1.95117c-0.96419,0.271 -1.9754,0.55957 -2.97827,0.65771c-0.46766,0.04541 -1.46364,-0.15967 -1.76458,0.01465l0.82178,0.14941c-1.87798,0.44385 -8.98126,-0.62109 -10.53442,0.86133c-1.03041,2.10059 2.0784,1.81641 3.21196,1.82373c6.67957,0.04248 13.49145,-0.04687 19.61428,-3.07031c0.29214,-0.14502 0.41287,-0.20508 0.57799,-0.49365l0.04542,-0.43799c0.25127,-0.35596 0.79218,-0.22998 1.25897,-0.54932c1.05253,-0.71777 4.03212,-2.4668 4.7049,-3.35903l-0.08864,-0.30029c0.33024,-0.3252 0.58209,0.13286 1.16271,-0.173c0.17332,-0.44868 0.27075,-0.4689 0.15911,-0.86689c-0.43191,-0.10767 -0.99671,0.14722 -1.44738,0.2978zM14.32908,99.86045c0.79421,0.55737 0.49884,1.33623 0.97075,1.90928c0.64172,-0.90688 0.21464,-16.22549 0.39895,-18.76699c0.06622,-0.91274 0.06857,-2.86216 -0.45711,-3.66079c-1.32635,3.53188 -4.09298,10.28862 -3.23938,14.07158c0.40589,1.79868 1.76814,4.48389 2.3268,6.44692zM90.85793,48.10649c-0.04278,-0.27217 -0.03267,-0.34526 -0.21596,-0.55649c-0.83731,-0.26426 -2.0721,-0.23159 -2.96318,-0.179c1.14659,0.32183 2.34227,0.38892 2.95395,1.2353c5.67641,0.84492 13.86358,8.50635 16.65872,8.46079l0.12351,-0.17607c-0.1219,-1.46206 -6.06701,-7.49678 -7.53022,-8.15596c-1.707,-0.76904 -7.33301,-1.34136 -9.02682,-0.62856zM49.02002,63.94028c0.28658,-0.41807 0.81387,-1.08574 0.88361,-1.54395l-0.15076,-0.14355l-0.36276,0.06943c-1.08052,0.09053 -1.33706,0.13682 -2.2674,0.6668c-0.18768,0.43755 -0.65695,1.30532 -0.54707,1.69995c0.13962,0.01611 0.35631,0.04863 0.4892,0.05083c0.75453,-0.49087 1.05913,-0.65508 1.95519,-0.79951zM12.70546,109.1499c0.36414,1.55391 3.14877,6.44634 4.01963,8.02603c0.09992,0.1812 0.79233,0.73447 1.00038,0.89722c0.01934,-3.72729 -1.1463,-7.56606 -5.02,-8.92324zM130.8082,287.86523c-0.00088,1.0957 -0.09377,3.66211 0.30738,4.55127l0.3802,0.08203c0.06373,-0.99609 0.34606,-3.65771 -0.13391,-4.42529zM119.8407,292.66406l-0.21303,-0.01758c-0.51528,0.31934 -0.4744,1.10742 -0.17083,1.5791c0.15515,-0.16846 0.20805,-0.91553 0.24511,-1.19385c0.3002,-0.26514 0.15559,-0.19922 0.54458,-0.25488l0.20878,-0.38672c0.07926,-0.95068 0.50663,-3.73682 0.4407,-4.29639l-0.18079,-0.02051l0.1134,-0.0542c-1.04653,0.97998 -0.99437,3.28711 -0.98792,4.64502zM131.86762,292.90137c-0.23383,0.8042 -0.19911,2.17236 0.11003,2.90186c0.18622,-0.82324 0.38166,-2.14746 -0.11003,-2.90186zM125.12036,83.19478c-0.03326,-1.33887 -0.0545,-2.98755 -0.21991,-4.29463c-0.44495,-3.51387 -3.21562,-7.23223 -5.68564,-9.67998c-0.13376,1.29214 1.32431,5.8481 1.50891,7.48228c0.17098,1.51128 3.09768,5.46182 4.39664,6.49233zM55.09069,136.91836c-0.09465,-0.35889 -0.04674,-0.48369 -0.30123,-0.62153c-0.73358,-0.39727 -2.21085,-0.24272 -3.06471,-0.21255c0.12659,0.54126 0.09714,0.84082 0.76537,0.98306c0.76772,0.16333 1.82508,-0.03691 2.60057,-0.14897zM121.09703,123.43696c-0.46341,1.00459 -2.11781,3.70649 -2.07855,4.43569l0.27441,0.18149c0.53506,-0.87466 2.12968,-3.13579 2.11576,-4.05674c-0.08542,-0.23437 -0.11692,-0.41323 -0.31163,-0.56045zM102.48298,59.67788c-0.33668,-0.30806 -0.61168,-0.63267 -1.06425,-0.67002l-0.27691,0.1459c-0.09714,0.66284 0.09362,0.80757 0.61183,1.17642c0.25757,0.72671 1.38892,1.6459 2.21993,1.52915l0.14549,-0.21123c-0.13948,-0.74985 -1.05957,-1.45444 -1.63609,-1.97021zM26.08742,128.13735c-0.36481,-0.92798 -1.22439,-2.07656 -2.11371,-2.56729l-0.15896,0.04849l0.00601,0.28857c0.68904,0.57437 1.12271,1.97607 2.26667,2.23022zM134.99035,171.18604c-0.06783,0.47754 -0.22108,1.14697 -0.03414,1.56738l0.32423,0.20801c0.08146,-0.69141 0.13303,-0.90088 -0.07164,-1.55566zM121.77918,123.90293c0.17699,-0.56162 0.41448,-1.1269 0.30401,-1.69878l-0.15647,-0.24082c-0.36877,0.6375 -0.88405,1.38735 -0.14754,1.9396zM6.5701,84.22588c-0.10395,1.00269 -0.26004,2.13721 -0.19736,3.12905c0.13962,2.78555 0.34307,4.454 0.82358,7.18242l1.2779,0.55005c0.1491,-3.89897 -0.97094,-5.3439 -1.57883,-8.61592c-0.03387,-0.89766 -0.14354,-1.37593 -0.32528,-2.24561zM45.17235,148.03271c-0.22138,-0.91406 -0.81973,-0.85547 -1.68663,-0.94922l-0.11516,0.42334c0.42854,0.46436 1.14454,0.45264 1.80179,0.52588zM41.52497,146.0896c-0.01099,-0.41631 -0.03721,-0.46201 -0.26841,-0.81079c-3.83521,-1.99951 -6.04621,-4.59961 -9.41859,-7.15254c-0.21024,-0.15923 -0.91232,-0.14517 -1.21501,-0.28286c0.03824,0.18823 0.08571,0.42144 0.14226,0.69932c1.91797,1.78506 3.74262,3.37764 5.93193,4.83457c0.03619,0.17183 0.06769,0.32095 0.09435,0.44736c0.53154,0.19277 0.81416,0.24199 1.37178,0.34453c0.05362,0.21797 0.0274,0.28784 0.00059,0.50977c0.82134,0.56792 1.42819,0.12524 1.71637,0.4979l-0.19193,0.42334c0.35558,0.48999 1.25911,0.45688 1.83666,0.4894zM21.59818,70.85537c-0.49228,0.8855 -1.3753,4.78682 -1.18923,5.74512c0.21918,0.24844 0.08849,0.16523 0.4051,0.25942c0.6634,-1.33257 1.9146,-4.80293 0.78413,-6.00454zM20.87705,88.86357c-0.49843,1.30796 -1.60048,5.68345 0.00733,6.43521c0.97635,-1.42061 0.61461,-4.84365 -0.00733,-6.43521zM34.10625,79.39219c-0.92536,0.99727 -3.21489,4.59595 -2.45274,5.88047c1.26864,-0.93149 3.65222,-4.53398 2.45274,-5.88047zM32.40277,89.8582c-1.76736,3.02578 -2.26711,3.86602 -2.38769,7.43789l0.08908,0.17124l0.38606,-0.50332l-0.05523,-0.3394l0.3191,0.04175c0.63073,-0.50801 2.6098,-5.8103 2.05701,-6.70049zM124.13302,188.03613c-1.11773,2.96631 -0.96199,6.29297 -1.75681,9.58594l0.14739,-0.03369c0.62458,-0.90381 0.9469,-0.35156 1.30014,-0.94336c0.89401,-1.49854 1.14791,-7.31982 0.30928,-8.60889zM109.04036,62.11377c0.13611,1.05439 4.23739,7.48081 5.21608,7.82871c-0.20731,-2.17764 -1.54833,-5.56743 -3.32213,-6.91875c-0.53872,-0.4103 -1.24842,-0.69053 -1.89394,-0.90996zM41.89388,57.82603c-2.10404,0.81284 -5.29812,3.92959 -6.45688,5.977c-0.53169,0.9394 -2.64452,4.57764 -2.34798,5.57227l0.22021,-0.12773c0.43103,-1.19077 1.25003,-1.64048 1.96105,-2.71333c1.93409,-2.91826 4.89097,-5.43032 6.92293,-8.17119l0.03267,-0.28096c-0.0693,-0.05566 -0.26724,-0.2231 -0.33199,-0.25605zM31.53132,118.45532c-0.21918,1.93638 0.45213,2.39956 1.56049,3.98086c1.33325,1.90225 8.36459,9.1459 10.46746,9.51021c-0.36716,-1.07637 -1.27362,-3.95566 -1.92852,-4.7272c-1.42189,-1.6752 -4.33936,-2.89189 -6.04855,-4.45781c-1.5076,-1.38135 -2.492,-3.08833 -4.05088,-4.30605z" fill="#000000"/><path d="M91.69744,149.31592l-0.04542,0.43799c-0.16512,0.28857 -0.28584,0.34863 -0.57799,0.49365c-6.12283,3.02344 -12.93471,3.11279 -19.61428,3.07031c-1.13355,-0.00732 -4.24237,0.27686 -3.21196,-1.82373c1.55316,-1.48242 8.65644,-0.41748 10.53442,-0.86133l-0.82178,-0.14941c0.30093,-0.17432 1.29691,0.03076 1.76458,-0.01465c1.00287,-0.09814 2.01408,-0.38672 2.97827,-0.65771c1.95973,-0.55078 3.88986,-1.20264 5.78249,-1.95117c1.91592,-0.75293 7.41872,-3.57891 8.96133,-3.49468c-0.82119,0.59692 -1.88428,1.00679 -2.807,1.42178c-4.56205,2.05239 -9.7456,4.58804 -14.79217,5.01577c-4.41349,0.37354 -7.73504,0.47021 -12.08553,1.49414c4.68966,1.24072 12.13915,0.35596 17.01151,-0.3501c1.02631,-0.14795 6.31886,-2.04785 6.92351,-2.63086z" fill-opacity="0.96078" fill="#000000"/><path d="M63.11978,158.31006c0.59337,-0.06885 1.2071,0.15234 1.79637,0.19922c1.34497,0.10986 4.12648,0.52441 5.37783,0.38379c-0.36379,-0.05713 -0.72684,-0.11865 -1.08916,-0.18311c0.80083,-0.21387 2.06214,-0.09961 2.87073,-0.10693c6.36194,-0.06299 12.59026,0.86279 18.61214,-1.70508c0.42942,-0.18311 1.23538,-0.2124 1.71139,-0.43506c3.46205,-1.62012 6.71913,-3.61377 10.10895,-5.37451c1.22468,-0.63281 3.25005,-2.4082 4.44821,-2.76709l0.29742,0.19629c-0.66575,0.2373 -1.65264,1.17041 -2.29231,1.59961c-3.09328,2.07422 -6.65745,3.96533 -9.96083,5.68213c-6.37747,3.31348 -13.18861,3.33984 -20.18787,3.38525c-3.31363,0.03662 -8.61322,0.29297 -11.69288,-0.87451z" fill-opacity="0.95686" fill="#000000"/><path d="M134.63462,108.03589c-0.37492,-1.15913 0.07633,-7.28027 0.16263,-8.85132c0.38708,-7.05 -0.49345,-13.33491 -3.40403,-19.79194c-0.59894,-1.32905 -1.11846,-2.8292 -0.52524,-4.2835c0.04483,3.25503 2.0913,6.66885 2.93139,9.854c0.37668,1.42778 1.2619,4.22769 1.32988,5.66133c0.19237,4.05527 0.46019,13.80176 -0.49462,17.41143z" fill-opacity="0.94902" fill="#000000"/><path d="M30.62295,137.84341c0.30269,0.1377 1.00477,0.12363 1.21501,0.28286c3.37239,2.55293 5.58338,5.15303 9.41859,7.15254c0.23119,0.34878 0.25742,0.39448 0.26841,0.81079c-0.57755,-0.03252 -1.48108,0.00059 -1.83666,-0.4894l0.19193,-0.42334c-0.28819,-0.37266 -0.89503,0.07002 -1.71637,-0.4979c0.02681,-0.22192 0.05304,-0.2918 -0.00059,-0.50977c-0.55762,-0.10254 -0.84024,-0.15176 -1.37178,-0.34453c-0.02666,-0.12642 -0.05816,-0.27554 -0.09435,-0.44736c-2.18931,-1.45693 -4.01396,-3.04951 -5.93193,-4.83457c-0.05655,-0.27788 -0.10402,-0.51108 -0.14226,-0.69932z" fill-opacity="0.00784" fill="#000000"/><path d="M130.8082,287.86523l0.55366,0.20801c0.47997,0.76758 0.19764,3.4292 0.13391,4.42529l-0.3802,-0.08203c-0.40115,-0.88916 -0.30826,-3.45557 -0.30738,-4.55127z" fill-opacity="0.03137" fill="#000000"/><path d="M119.8407,292.66406c-0.00645,-1.35791 -0.0586,-3.66504 0.98792,-4.64502l-0.1134,0.0542l0.18079,0.02051c0.06593,0.55957 -0.36144,3.3457 -0.4407,4.29639z" fill-opacity="0.01961" fill="#000000"/><path d="M121.09703,123.43696c0.19471,0.14722 0.22621,0.32607 0.31163,0.56045c0.01392,0.92095 -1.5807,3.18208 -2.11576,4.05674l-0.27441,-0.18149c-0.03926,-0.7292 1.61513,-3.4311 2.07855,-4.43569z" fill-opacity="0.05098" fill="#000000"/><path d="M129.18838,62.26377c-0.14402,-2.28091 -3.52285,-2.84487 -2.89359,-4.27192c0.8294,0.16934 2.62269,2.62339 3.24932,2.97876c-0.33961,0.39214 -0.31368,0.7708 -0.35573,1.29316z" fill-opacity="0.17647" fill="#000000"/><path d="M33.21019,145.56709l0.03677,-0.22354c0.73666,0.90703 2.3871,1.78096 3.46674,2.4958c-0.32862,0.51416 -0.16219,0.35889 -0.79585,0.57275c-0.18607,-0.2373 -0.56216,-0.27539 -0.83833,-0.54932c-0.68289,-0.67676 -1.22351,-1.53486 -1.95797,-2.14966z" fill-opacity="0.02353" fill="#000000"/><path d="M102.48298,59.67788c0.57652,0.51577 1.49661,1.22036 1.63609,1.97021l-0.14549,0.21123c-0.83101,0.11675 -1.96237,-0.80244 -2.21993,-1.52915c0.59483,-0.23774 0.3969,-0.06943 0.72933,-0.65229z" fill="url(#color-1)"/><path d="M23.81474,125.61855l0.15896,-0.04849c0.88932,0.49072 1.7489,1.63931 2.11371,2.56729c-1.14396,-0.25415 -1.57763,-1.65586 -2.26667,-2.23022z" fill-opacity="0.28235" fill="#000000"/><path d="M87.6788,47.371c0.89108,-0.05259 2.12587,-0.08525 2.96318,0.179c0.18328,0.21123 0.17318,0.28433 0.21596,0.55649l-0.22519,0.4998c-0.61168,-0.84639 -1.80736,-0.91348 -2.95395,-1.2353z" fill-opacity="0.30588" fill="#000000"/><path d="M101.75365,60.33018c-0.51821,-0.36885 -0.70897,-0.51357 -0.61183,-1.17642l0.27691,-0.1459c0.45257,0.03735 0.72757,0.36196 1.06425,0.67002c-0.33243,0.58286 -0.1345,0.41455 -0.72933,0.65229z" fill-opacity="0.03529" fill="#000000"/><path d="M43.48572,147.0835c0.8669,0.09375 1.46525,0.03516 1.68663,0.94922c-0.65725,-0.07324 -1.37325,-0.06152 -1.80179,-0.52588z" fill-opacity="0.02353" fill="#000000"/><path d="M131.86762,292.90137c0.49169,0.75439 0.29624,2.07861 0.11003,2.90186c-0.30914,-0.72949 -0.34386,-2.09766 -0.11003,-2.90186z" fill-opacity="0.52941" fill="#000000"/><path d="M6.5701,84.22588c0.18175,0.86968 0.29141,1.34795 0.32528,2.24561c-0.29399,0.33457 -0.41716,0.43667 -0.52265,0.88345c-0.06268,-0.99185 0.09342,-2.12637 0.19736,-3.12905z" fill-opacity="0.0902" fill="#000000"/><path d="M121.92672,121.96333l0.15647,0.24082c0.11047,0.57187 -0.12702,1.13716 -0.30401,1.69878c-0.73651,-0.55225 -0.22123,-1.3021 0.14754,-1.9396z" fill-opacity="0.07451" fill="#000000"/><path d="M119.8407,292.66406l0.61461,-0.27393l-0.20878,0.38672c-0.38899,0.05566 -0.24438,-0.01025 -0.54458,0.25488c-0.03707,0.27832 -0.08996,1.02539 -0.24511,1.19385c-0.30357,-0.47168 -0.34445,-1.25977 0.17083,-1.5791z" fill-opacity="0.58431" fill="#000000"/><path d="M134.99035,171.18604l0.21845,0.21973c0.20468,0.65479 0.1531,0.86426 0.07164,1.55566l-0.32423,-0.20801c-0.18695,-0.42041 -0.0337,-1.08984 0.03414,-1.56738z" fill-opacity="0.30588" fill="#000000"/><path d="M140.36862,148.81348c0.12072,0.9082 0.13699,1.44727 0.14973,2.35693c0.8442,-0.03809 1.6878,-0.09082 2.53024,-0.15527c1.63887,2.6499 0.66047,4.27588 1.1989,7.06201c0.2098,1.08545 1.10454,2.68359 1.48928,4.09277c0.64465,-0.0293 1.82596,-0.18457 2.31678,0.26221c0.88493,0.8042 0.95379,2.62939 1.04169,3.7793c0.46444,6.09814 0.34723,12.23145 0.38679,18.34131c0.02491,3.71045 -0.5289,7.25537 -0.64172,10.94531c-0.43221,7.61719 0.51865,17.37598 -1.7552,24.59473c-0.61696,0.03662 -1.36402,0.09961 -1.97057,0.10547c-1.53177,2.73926 -1.04975,5.39502 -1.99387,8.26758c-0.52348,-1.54541 0.76991,-5.59863 0.99115,-7.35645c0.0233,-0.18604 0.68406,-1.14111 0.83394,-1.35645c0.58487,-0.104 1.29559,-0.15234 1.89614,-0.20947c0.0586,-0.44678 0.17581,-1.19824 0.34137,-1.60986c0.60069,-1.49268 0.49374,-3.17871 0.5963,-4.77539c0.20512,-2.81396 0.34577,-5.63232 0.42195,-8.45215c0.17581,0.33691 -0.04102,3.5625 0.09084,4.55713l0.14798,0.08496c-0.02637,-4.80615 -0.21098,-9.51416 0.01465,-14.34082c0.10988,-2.33936 0.01758,-4.48682 0.41316,-6.8335l0.14065,-0.02197c0.09963,0.29004 0.12453,0.3501 0.15823,0.65186c-0.31793,-0.93311 -0.12014,-5.58398 -0.13039,-7.01367c-0.02491,-3.89941 -0.12307,-7.79883 -0.29009,-11.69531c-0.07033,-1.91895 -0.07912,-4.57178 -0.33111,-6.39258c-0.93034,-1.25244 -1.10323,-1.12939 -2.54387,-0.92578c-1.01766,-1.53809 -1.22337,-2.81104 -2.10023,-4.10596c-0.02198,-1.65088 0.32276,-6.10693 -1.24212,-7.09131c-0.60304,-0.15674 -1.59433,0.22705 -2.22491,0.40869c-0.02022,-1.0957 -0.06139,-2.08447 0.06432,-3.17432z" fill-opacity="0.95686" fill="#000000"/><path d="M152.82247,46.55098c0.42488,2.81982 0.20951,6.55547 0.57139,9.49233c0.16702,1.35073 -0.0967,3.13286 0.14944,4.51055v17.71919c-0.2857,-0.75747 -0.28863,-1.36846 -0.3443,-2.16694c-0.06593,-0.20376 -0.13626,1.02788 -0.13772,1.03535c-0.31793,-5.46709 -0.22709,-11.59014 -0.25932,-17.10117l0.02637,-9.23936c0.00586,-1.42104 -0.08644,-2.83403 -0.00586,-4.24995z" fill-opacity="0.74118" fill="#000000"/></g></svg></svg>