<?xml version="1.0" standalone="no"?>
<!DOCTYPE svg PUBLIC "-//W3C//DTD SVG 20010904//EN"
 "http://www.w3.org/TR/2001/REC-SVG-20010904/DTD/svg10.dtd">
<svg version="1.0" xmlns="http://www.w3.org/2000/svg"
 width="600.000000pt" height="1172.000000pt" viewBox="0 0 600.000000 1172.000000"
 preserveAspectRatio="xMidYMid meet">
<g transform="translate(0.000000,1172.000000) scale(0.100000,-0.100000)"
fill="#000000" stroke="none">
<path d="M2500 11699 c-126 -11 -297 -44 -395 -76 -44 -14 -145 -56 -225 -94
-80 -38 -151 -69 -157 -69 -5 0 -21 -8 -34 -18 -13 -11 -37 -22 -52 -26 -16
-4 -63 -28 -105 -55 -42 -26 -98 -57 -125 -69 -26 -11 -69 -38 -95 -60 -26
-21 -65 -49 -87 -61 -22 -13 -45 -31 -53 -42 -7 -10 -33 -30 -58 -45 -74 -44
-251 -256 -473 -569 -121 -169 -160 -237 -249 -430 -245 -533 -339 -867 -363
-1285 -21 -369 8 -730 76 -950 54 -174 167 -497 187 -535 19 -36 56 -71 65
-62 3 4 -6 31 -20 61 -54 110 -138 418 -177 651 -6 39 -16 93 -21 120 -5 28
-7 86 -4 130 2 44 7 125 10 180 10 176 57 508 85 605 5 19 10 54 10 77 0 23 4
53 9 67 6 13 26 84 45 158 19 73 49 174 66 223 17 50 44 140 60 200 40 153 73
240 90 240 17 0 17 0 -3 -165 -45 -358 -76 -1097 -47 -1115 7 -4 7 -13 1 -24
-19 -35 -26 -271 -21 -686 5 -339 10 -460 28 -625 34 -308 59 -500 87 -655 14
-77 34 -196 44 -265 20 -127 101 -466 127 -529 8 -19 19 -40 25 -48 19 -22 28
-5 14 25 -8 16 -17 82 -21 163 l-7 136 59 -4 c71 -5 213 -42 341 -89 52 -18
114 -35 137 -36 l41 -3 7 160 c3 88 11 172 17 187 9 25 13 27 38 17 15 -5 45
-23 65 -40 20 -16 39 -29 42 -29 9 0 -7 75 -22 98 -8 12 -12 25 -9 28 6 7 66
-24 127 -65 25 -17 51 -31 58 -31 13 0 103 -52 256 -147 28 -17 62 -35 76 -38
14 -4 36 -17 50 -29 46 -43 152 -97 284 -145 154 -57 215 -72 290 -74 31 -1
56 -6 56 -11 0 -4 -15 -23 -32 -40 -30 -29 -41 -33 -108 -39 -180 -15 -332
-90 -520 -256 -47 -42 -117 -103 -155 -136 -122 -104 -189 -167 -217 -205
l-28 -37 40 -79 c22 -44 44 -86 49 -94 105 -171 168 -285 192 -352 38 -105
103 -243 118 -252 20 -13 12 -27 -26 -42 -22 -10 -49 -13 -70 -9 -40 7 -40 4
-8 -31 14 -15 29 -43 35 -63 5 -20 16 -46 25 -58 14 -19 27 -75 57 -233 15
-76 -5 -234 -34 -274 l-21 -29 26 7 26 6 -21 -47 c-18 -41 -22 -78 -29 -263
-16 -413 -30 -635 -42 -696 -9 -43 -23 -73 -50 -106 -50 -61 -48 -83 7 -109
l43 -22 -53 -74 -54 -75 20 -28 c11 -16 41 -38 66 -50 25 -13 48 -28 50 -35 3
-7 -19 -78 -50 -156 -30 -79 -69 -182 -87 -229 -17 -47 -40 -105 -51 -130 -10
-25 -21 -57 -22 -72 -2 -14 -13 -42 -25 -61 -12 -20 -32 -66 -45 -104 -13 -37
-40 -102 -59 -143 -19 -41 -47 -120 -62 -175 -15 -55 -38 -129 -51 -165 -13
-36 -30 -99 -38 -140 -8 -41 -28 -140 -45 -220 -17 -80 -33 -174 -37 -210 -3
-36 -12 -83 -19 -105 -8 -22 -19 -77 -25 -123 -15 -110 -16 -112 -59 -112 -20
0 -72 -7 -116 -15 -44 -9 -89 -15 -100 -14 -37 2 -55 -1 -55 -11 0 -15 135
-12 215 5 38 8 71 15 72 15 2 0 3 -9 3 -20 0 -28 28 -25 56 5 l23 25 279 0
c153 0 347 -3 431 -7 141 -6 151 -7 146 -25 -5 -15 -1 -18 24 -18 23 0 30 5
33 23 2 12 9 22 16 21 6 -1 309 -2 671 -3 654 -1 659 -1 654 -21 -4 -15 0 -20
15 -20 11 0 25 7 32 15 17 20 103 20 211 -1 73 -14 179 -15 815 -12 631 3 733
5 749 18 11 8 16 10 12 4 -4 -7 0 -15 9 -18 9 -3 135 -6 280 -6 228 0 264 2
264 15 0 13 -36 15 -268 15 l-268 0 -13 68 c-7 37 -16 91 -21 120 -5 29 -14
60 -20 67 -7 8 -10 21 -7 29 3 8 -3 32 -13 53 -19 39 -71 214 -114 388 -41
166 -120 412 -180 560 -143 353 -276 717 -276 755 0 11 6 20 14 20 7 0 25 9
39 20 14 11 31 20 39 20 7 0 28 26 47 56 53 88 88 124 123 124 40 0 68 17 68
41 0 15 -5 18 -23 14 -28 -8 -56 20 -92 94 -26 51 -31 107 -14 171 3 10 -25
34 -77 68 l-82 54 -11 86 c-37 296 -61 595 -63 801 -3 213 -2 224 17 237 66
47 174 114 184 114 18 0 13 28 -10 60 -28 37 -20 56 27 65 68 12 144 46 180
80 l35 34 -17 32 c-9 18 -39 62 -65 97 -27 35 -49 69 -49 76 0 7 21 27 48 43
48 31 304 248 310 264 2 5 -5 21 -16 36 -11 16 -43 74 -71 131 -59 118 -156
280 -281 467 -47 72 -119 183 -159 247 -41 65 -86 132 -102 150 l-27 33 -38
-37 c-20 -21 -43 -38 -51 -38 -7 0 -16 -7 -19 -15 -4 -8 -15 -15 -25 -15 -23
0 -95 35 -104 50 -25 41 -469 290 -517 290 -24 0 -23 21 3 54 26 33 17 47 -53
82 -54 28 -60 39 -22 48 15 4 56 25 92 47 36 21 71 39 77 39 6 0 15 12 21 28
13 32 102 152 114 152 11 0 63 -68 77 -100 6 -14 31 -48 56 -75 l45 -51 -19
-23 c-20 -25 -25 -66 -9 -76 5 -3 17 6 26 20 9 14 28 31 43 38 22 10 34 27 65
92 2 6 9 4 15 -5 14 -20 14 -151 0 -187 -13 -32 -13 -163 0 -176 11 -11 16 3
37 123 9 52 18 97 20 99 2 2 15 -10 29 -27 14 -17 55 -54 90 -82 52 -41 76
-53 132 -65 84 -18 103 -18 103 -2 0 19 80 172 144 273 92 147 66 148 221 -9
75 -75 143 -137 151 -137 13 0 15 11 13 58 -4 85 0 142 10 142 5 0 13 -9 16
-20 10 -31 115 -134 125 -124 5 5 12 54 15 109 4 55 9 106 11 114 3 9 17 -4
37 -35 62 -93 120 -168 188 -238 53 -56 70 -68 80 -59 10 10 9 16 -1 29 -10
11 -16 65 -21 177 -4 89 -14 245 -23 347 -26 299 -66 859 -67 935 -1 70 -18
249 -65 645 -13 118 -42 307 -64 420 -68 350 -127 697 -160 940 -12 85 -32
187 -45 225 -13 39 -33 108 -45 155 -49 194 -215 543 -345 725 -106 149 -454
453 -655 572 -311 184 -449 252 -619 302 -176 52 -656 137 -911 160 -131 12
-330 12 -470 0z m805 -75 c116 -19 242 -43 280 -54 39 -11 102 -24 140 -30 87
-12 326 -90 403 -130 198 -104 337 -188 336 -202 -1 -10 4 -14 13 -11 20 8 91
-26 98 -47 3 -9 21 -24 41 -33 19 -10 56 -36 82 -60 26 -24 76 -66 112 -94
176 -139 360 -365 461 -566 102 -202 189 -450 225 -640 9 -44 24 -103 34 -131
24 -63 56 -215 70 -333 16 -135 69 -444 121 -713 50 -261 87 -594 119 -1071
29 -442 45 -645 74 -994 27 -309 29 -365 17 -365 -6 0 -69 78 -141 174 -71 96
-134 177 -139 180 -4 3 -10 -51 -13 -119 -3 -69 -8 -128 -12 -132 -4 -4 -30
18 -57 50 -76 85 -87 80 -104 -45 -4 -27 -11 -48 -18 -48 -7 0 -63 52 -125
115 -62 63 -117 115 -122 115 -5 0 -33 -35 -61 -77 -89 -133 -218 -302 -240
-313 -15 -8 -30 -8 -57 1 -37 12 -94 47 -100 61 -2 4 -9 8 -16 8 -6 0 -35 24
-63 53 l-52 52 24 165 c21 152 56 522 55 597 0 27 -3 31 -17 26 -15 -6 -16 -4
-5 9 7 8 17 39 22 69 18 98 49 766 55 1184 6 349 5 421 -9 481 -15 69 -19 111
-51 455 -25 278 -55 392 -99 376 -16 -6 -27 -68 -19 -108 8 -42 23 -35 23 11
0 40 13 53 24 24 18 -46 76 -854 76 -1053 0 -96 -47 -49 -85 87 -22 78 -54
160 -83 214 -1 3 15 4 37 1 33 -5 41 -3 41 10 0 10 -11 19 -27 22 -58 12 -41
-18 -202 375 -82 199 -196 547 -337 1030 -39 132 -78 239 -98 266 -21 28 -32
8 -17 -29 7 -18 18 -50 23 -72 6 -22 26 -94 44 -160 19 -66 34 -135 34 -153 0
-20 6 -35 16 -39 12 -4 14 -16 9 -58 -7 -54 5 -79 28 -56 6 6 15 11 19 11 15
0 8 -27 -11 -44 -19 -17 -19 -19 4 -84 12 -37 26 -94 30 -126 4 -33 11 -71 17
-85 17 -45 35 -121 28 -121 -8 0 -139 182 -175 245 -16 28 -35 53 -41 58 -29
18 -120 158 -190 293 -74 143 -164 350 -164 376 0 22 -58 138 -70 138 -17 0
-11 -56 10 -83 24 -30 25 -37 5 -37 -20 0 -27 -19 -74 -212 -21 -90 -63 -244
-91 -343 -29 -99 -66 -232 -83 -295 -32 -123 -34 -127 -43 -117 -4 4 5 57 20
119 46 198 54 252 119 871 3 34 -22 30 -36 -5 -17 -40 -59 -160 -148 -423 -37
-110 -95 -274 -129 -365 -89 -236 -197 -553 -216 -635 -60 -266 -86 -419 -93
-550 l-6 -140 -27 50 c-14 28 -37 77 -51 110 -14 33 -53 121 -87 195 -104 227
-186 448 -230 620 -66 259 -124 735 -133 1105 -2 72 -5 90 -18 93 -12 2 -15
-9 -16 -60 0 -35 -10 -97 -22 -138 -33 -118 -78 -363 -92 -498 -6 -68 -15
-118 -20 -111 -34 56 -6 694 37 838 12 42 -19 19 -34 -25 -59 -172 -183 -467
-267 -633 -25 -50 -43 -91 -39 -91 3 0 -4 -16 -16 -36 -12 -19 -20 -38 -17
-41 4 -3 -3 -24 -15 -47 -66 -128 -214 -526 -283 -758 -14 -48 -32 -94 -41
-102 -17 -18 -50 -21 -59 -6 -6 9 15 285 36 480 29 276 171 877 236 1005 20
38 32 46 55 34 25 -14 24 12 -2 36 -19 17 -21 17 -40 0 -11 -10 -31 -41 -44
-69 -27 -59 -99 -284 -120 -377 -8 -35 -21 -82 -29 -104 -9 -22 -20 -74 -25
-115 -6 -41 -19 -127 -31 -190 -24 -135 -46 -325 -62 -535 -6 -82 -12 -151
-14 -153 -2 -2 -17 4 -35 13 -49 25 -50 8 -2 -31 l42 -36 1 -176 c1 -227 13
-277 35 -147 14 79 29 54 32 -52 3 -114 -3 -140 -23 -103 -8 14 -14 33 -15 42
0 29 -100 38 -100 9 0 -5 9 -19 19 -32 19 -23 20 -23 34 -5 15 20 37 14 37
-10 0 -8 -11 -26 -24 -39 -13 -13 -21 -26 -18 -29 11 -12 32 -5 52 16 11 12
23 19 26 15 4 -4 -1 -16 -10 -26 -19 -21 -14 -41 10 -41 13 0 12 -6 -6 -35
-18 -29 -21 -47 -18 -105 2 -38 0 -66 -4 -62 -4 4 -34 59 -67 124 -40 79 -73
162 -102 260 -23 78 -57 195 -75 258 -30 101 -68 289 -110 545 -7 44 -13 107
-14 140 0 70 -8 105 -23 105 -15 0 -2 -178 28 -368 14 -90 27 -168 30 -173 3
-4 17 -66 30 -137 14 -72 48 -194 75 -273 27 -79 50 -150 50 -158 0 -36 43
-153 66 -180 14 -17 41 -70 61 -118 35 -88 35 -88 29 -203 -3 -63 -15 -168
-25 -232 -44 -258 -47 -590 -7 -719 39 -126 164 -303 252 -355 38 -23 3 -27
-47 -7 -59 25 -71 15 -44 -37 9 -18 14 -34 12 -37 -7 -6 -47 15 -75 40 -19 18
-25 19 -32 7 -14 -23 -29 -128 -36 -262 -5 -88 -11 -128 -19 -128 -6 0 -90 25
-186 55 -216 69 -333 95 -351 77 -7 -7 -14 -41 -16 -77 -2 -36 -7 -65 -11 -65
-26 0 -116 531 -171 1000 -43 371 -50 524 -49 1020 1 1035 33 1735 90 2001 35
160 35 156 14 139 -20 -17 -75 -126 -75 -150 0 -8 -15 -40 -34 -71 -38 -63
-76 -162 -110 -289 -13 -47 -36 -125 -51 -175 -62 -203 -117 -441 -160 -683
-52 -302 -65 -418 -65 -593 0 -120 -9 -161 -24 -106 -10 36 -6 716 4 797 32
249 90 474 187 730 115 301 230 551 324 703 121 195 509 657 551 657 6 0 37
22 67 48 114 99 353 245 518 316 43 19 120 54 172 80 52 25 107 46 122 46 14
0 32 7 39 15 22 27 114 53 280 79 219 34 217 34 505 29 226 -4 270 -8 460 -39z
m262 -1236 c0 -49 52 -173 131 -311 38 -67 79 -144 91 -171 12 -28 39 -73 60
-100 20 -28 55 -76 76 -106 21 -30 79 -107 130 -170 50 -63 101 -131 112 -151
24 -42 78 -230 88 -309 7 -52 29 -110 42 -110 18 0 -42 320 -82 437 -25 71
-32 123 -17 123 4 0 29 -64 56 -142 27 -79 61 -174 77 -212 16 -37 29 -75 29
-83 0 -8 13 -34 30 -58 16 -24 32 -59 34 -79 3 -19 15 -53 27 -74 14 -24 20
-45 15 -57 -6 -16 -16 -17 -124 -10 -64 4 -218 10 -342 15 -124 4 -237 12
-252 18 -29 12 -146 25 -390 42 -80 6 -161 15 -180 20 -18 6 -49 10 -68 10
l-35 -1 23 -19 c32 -27 97 -38 298 -50 99 -6 204 -15 234 -20 148 -23 225 -30
475 -40 149 -6 297 -13 330 -17 l60 -5 51 -152 c28 -83 54 -159 58 -168 8 -17
-3 -18 -150 -18 -88 0 -238 5 -334 10 -390 21 -896 18 -968 -4 -29 -10 -28
-36 1 -37 64 -1 107 -6 114 -13 10 -10 -17 -26 -44 -26 -16 0 -23 -6 -23 -20
0 -16 7 -20 33 -20 17 0 39 -5 47 -10 13 -9 13 -11 0 -20 -8 -5 -21 -10 -29
-10 -18 0 -51 -29 -51 -45 0 -17 23 -25 74 -25 l42 0 12 -152 c22 -289 49
-482 82 -590 63 -208 76 -229 145 -242 31 -6 43 -4 64 13 14 12 45 30 67 40
35 16 47 30 72 83 16 34 37 85 46 112 9 27 26 61 36 77 13 18 16 29 9 31 -8 3
-4 19 11 48 39 76 71 257 77 433 l5 157 379 0 378 0 -5 -212 c-2 -117 -9 -260
-14 -318 -5 -58 -12 -185 -15 -283 -10 -292 -46 -467 -110 -532 -16 -16 -35
-42 -42 -57 -15 -33 -417 -452 -481 -501 -244 -186 -648 -341 -942 -361 -153
-11 -509 23 -637 60 -104 30 -323 126 -468 206 -248 135 -487 320 -555 430
-19 29 -51 76 -71 104 -59 77 -73 151 -72 369 0 142 7 232 31 424 18 134 32
278 32 320 0 89 9 151 21 151 5 0 9 -20 9 -44 0 -65 33 -215 78 -351 22 -66
43 -136 47 -155 4 -19 16 -53 27 -74 26 -50 121 -146 145 -146 11 0 24 -5 29
-10 7 -7 19 -8 36 -1 90 34 212 286 273 566 13 56 38 379 33 407 -2 10 41 14
187 19 182 6 285 21 285 41 0 5 -7 11 -15 14 -26 10 -17 23 24 34 21 5 44 17
51 25 11 13 4 15 -56 15 -69 1 -69 1 -46 19 12 11 22 22 22 25 0 10 -213 6
-255 -5 -22 -5 -200 -14 -395 -20 -195 -5 -376 -13 -402 -18 l-48 -8 0 66 c0
119 19 299 36 341 19 46 20 47 159 54 55 3 183 12 285 20 102 9 270 18 373 22
103 4 190 11 194 16 3 6 -1 17 -10 25 -13 13 -29 14 -114 4 -54 -6 -228 -18
-388 -26 -322 -16 -426 -23 -469 -32 -25 -5 -28 -3 -21 13 4 11 38 109 75 219
91 269 105 306 278 712 83 193 165 392 183 442 18 50 36 91 39 91 3 0 5 -129
4 -287 -2 -202 3 -362 16 -536 16 -216 40 -390 55 -405 13 -14 15 13 5 94 -24
209 -5 599 40 846 16 87 32 184 36 218 4 33 10 60 14 60 4 0 12 -84 19 -187
15 -235 26 -331 57 -512 59 -338 122 -530 327 -991 141 -318 161 -357 200
-380 41 -25 46 -10 12 35 -26 33 -27 37 -17 97 6 35 16 110 22 168 32 311 110
614 245 960 66 168 232 664 241 719 7 42 20 53 30 26 4 -9 -1 -55 -10 -103 -9
-48 -25 -157 -36 -243 -11 -85 -29 -195 -40 -243 -11 -47 -24 -135 -29 -194
-10 -105 -37 -216 -79 -319 -17 -43 -19 -53 -7 -53 17 0 45 38 45 63 0 10 9
36 21 58 52 102 224 655 284 914 38 162 66 278 70 293 8 24 22 12 22 -20z
m-234 -103 c-3 -9 -8 -14 -10 -11 -3 3 -2 9 2 15 9 16 15 13 8 -4z m-2799
-291 c3 -8 2 -12 -4 -9 -6 3 -10 10 -10 16 0 14 7 11 14 -7z m3581 -163 c-3
-11 -1 -22 5 -26 5 -3 10 -11 10 -16 0 -6 -7 -4 -15 5 -17 17 -20 56 -4 56 6
0 8 -8 4 -19z m37 -112 c10 -48 -8 -59 -21 -13 -14 50 -14 57 1 52 7 -3 16
-20 20 -39z m-2088 -55 c3 -8 2 -12 -4 -9 -6 3 -10 10 -10 16 0 14 7 11 14 -7z
m2106 -29 c0 -8 -7 -15 -15 -15 -16 0 -20 12 -8 23 11 12 23 8 23 -8z m26 -60
c4 -14 3 -29 -1 -33 -8 -8 -35 26 -35 45 0 24 29 14 36 -12z m-2760 -770 c3
-17 -12 -20 -21 -5 -3 6 -1 10 5 10 6 0 8 6 4 13 -4 6 -3 8 1 4 5 -4 10 -14
11 -22z m3055 -18 c-10 -9 -11 -8 -5 6 3 10 9 15 12 12 3 -3 0 -11 -7 -18z
m-3117 -28 c-15 -17 -20 -42 -24 -125 -3 -60 -9 -104 -15 -104 -10 0 -20 213
-11 237 3 7 20 13 37 13 32 0 32 0 13 -21z m26 -43 c0 -3 -4 -8 -10 -11 -5 -3
-10 -1 -10 4 0 6 5 11 10 11 6 0 10 -2 10 -4z m1993 -317 c-4 -15 -8 -17 -14
-8 -8 14 -3 29 11 29 4 0 6 -9 3 -21z m-48 -1 c14 -6 25 -14 25 -17 0 -7 -66
-51 -76 -51 -6 0 4 58 13 73 6 9 7 9 38 -5z m833 -14 c87 -25 -101 -33 -490
-22 -241 6 -283 11 -272 30 8 12 718 4 762 -8z m67 -5 c12 -19 -5 -23 -22 -6
-16 16 -16 17 -1 17 9 0 20 -5 23 -11z m109 2 c9 -14 -22 -21 -49 -11 -14 5
-25 12 -25 15 0 9 69 5 74 -4z m283 -7 c5 -15 -20 -24 -37 -14 -7 4 -9 13 -5
19 8 14 37 11 42 -5z m61 -9 c18 -39 26 -105 14 -105 -11 0 -42 88 -42 117 0
22 16 15 28 -12z m-2338 -1 c0 -2 -10 -12 -22 -23 -21 -20 -31 -21 -98 -6 -8
2 -19 4 -23 4 -5 1 -6 5 -2 11 3 5 12 7 19 4 8 -3 16 -2 19 3 5 8 107 15 107
7z m80 -34 c8 -14 8 -20 0 -20 -7 0 -9 -8 -4 -22 6 -21 5 -21 -10 -9 -10 8
-15 23 -13 33 8 29 -12 32 -23 4 -10 -28 -40 -36 -40 -12 0 18 38 46 62 46 9
0 22 -9 28 -20z m2120 5 c0 -17 -240 -32 -267 -17 -23 14 -8 20 62 25 110 8
205 4 205 -8z m-2920 -3 c0 -14 -242 -64 -254 -52 -16 16 -3 21 106 40 119 21
148 23 148 12z m534 2 c27 -10 7 -24 -35 -24 -42 0 -54 16 -16 23 12 2 25 5
29 6 3 0 13 -2 22 -5z m-378 -14 c68 0 84 -3 84 -15 0 -12 -18 -15 -106 -15
-58 0 -103 -4 -100 -9 3 -4 51 -11 106 -14 97 -5 120 -10 107 -23 -6 -6 -276
13 -314 22 -34 9 -28 24 10 24 18 0 48 9 67 19 19 11 41 18 48 15 8 -2 52 -4
98 -4z m273 -5 c12 -13 -27 -25 -81 -25 -56 0 -76 10 -62 31 7 12 130 6 143
-6z m1349 4 c-2 -6 -8 -11 -13 -11 -6 -1 -26 -5 -44 -9 -41 -9 -57 -3 -40 17
14 17 103 20 97 3z m689 -15 c28 -26 30 -26 134 -21 107 6 182 1 174 -13 -5
-8 -238 -21 -397 -23 -84 -1 -89 0 -118 28 -39 37 -38 49 3 42 25 -4 165 5
174 12 1 0 15 -11 30 -25z m153 16 c19 -12 19 -12 -60 -15 -69 -3 -84 0 -75
16 8 12 116 11 135 -1z m-555 -13 c6 0 35 3 66 7 64 8 77 -4 57 -52 l-12 -27
-4 28 c-4 30 -25 36 -48 12 -18 -18 -50 -19 -186 -4 -112 12 -148 22 -148 40
0 9 35 10 133 4 72 -4 137 -8 142 -8z m-1400 -17 c7 -12 -14 -16 -130 -30
-192 -22 -254 -3 -79 24 107 17 201 20 209 6z m2366 -16 c13 -37 4 -42 -26
-14 -18 17 -28 20 -38 12 -7 -6 -22 -11 -32 -10 -11 1 -45 -2 -75 -7 -50 -7
-53 -6 -41 9 19 22 65 34 139 35 59 1 63 -1 73 -25z m-2761 -5 c0 -6 -4 -7
-10 -4 -5 3 -10 11 -10 16 0 6 5 7 10 4 6 -3 10 -11 10 -16z m435 -10 c-4 -5
-13 -9 -22 -9 -13 0 -13 3 -3 15 13 15 35 11 25 -6z m1085 2 l25 -7 -24 -8
c-52 -18 10 -26 197 -26 121 0 192 -4 192 -10 0 -5 -15 -10 -32 -11 -18 0 -82
-4 -143 -8 -66 -5 -133 -4 -168 1 -43 8 -61 7 -72 -2 -20 -16 -19 -39 2 -62
15 -17 15 -18 -1 -18 -20 0 -54 53 -62 97 -5 27 -11 32 -38 35 l-31 4 25 11
c28 13 92 15 130 4z m-1953 -15 c0 -8 -6 -12 -15 -9 -11 5 -11 7 0 14 7 5 13
9 14 9 0 0 1 -6 1 -14z m504 -15 c24 -24 28 -35 23 -61 -4 -17 -16 -37 -27
-45 -12 -8 -20 -26 -21 -44 -1 -37 -9 -39 -30 -6 -20 30 -20 36 -1 29 12 -5
12 0 5 28 -14 45 -12 102 2 116 16 16 15 16 49 -17z m1912 19 c7 0 0 -8 -15
-18 -23 -15 -26 -23 -25 -75 2 -49 0 -55 -11 -40 -7 10 -10 23 -8 30 3 7 0 13
-7 13 -8 0 -6 4 3 10 8 5 11 10 6 10 -5 0 -3 6 3 13 6 8 8 16 5 20 -12 12 8
49 23 43 8 -3 20 -6 26 -6z m-2289 -16 c30 -12 5 -24 -49 -24 -51 0 -79 13
-53 23 19 8 84 8 102 1z m-159 -17 c13 -10 15 -16 6 -21 -13 -8 -78 10 -86 25
-9 14 59 11 80 -4z m268 -4 c-7 -2 -21 -2 -30 0 -10 3 -4 5 12 5 17 0 24 -2
18 -5z m167 -120 c0 -65 -7 -177 -15 -250 -31 -279 -66 -361 -160 -379 -68
-12 -102 35 -150 204 -30 109 -30 112 -5 105 24 -6 28 22 5 47 -8 9 -19 54
-25 105 -5 50 -14 106 -20 125 -5 19 -10 54 -10 77 0 51 -5 49 165 58 66 3
138 10 160 14 22 5 43 9 48 10 4 0 7 -52 7 -116z m2022 111 c8 -7 -13 -74 -24
-74 -9 0 -10 25 -2 58 6 22 15 27 26 16z m-2412 -18 c0 -3 -4 -8 -10 -11 -5
-3 -10 -1 -10 4 0 6 5 11 10 11 6 0 10 -2 10 -4z m2310 -23 c3 -3 5 -71 5
-151 -1 -225 -55 -449 -139 -566 l-33 -47 -57 56 c-50 50 -67 75 -50 75 3 0
17 -9 31 -20 37 -29 51 -24 21 8 -49 52 -77 134 -102 292 -20 132 -39 330 -32
338 4 3 72 9 151 12 80 4 148 10 152 14 6 6 43 -1 53 -11z m-2405 -3 c6 -10
34 -224 35 -267 0 -13 -4 -23 -8 -23 -5 0 -16 57 -26 128 -10 70 -20 137 -23
150 -5 22 10 31 22 12z m69 -16 c9 -22 8 -24 -9 -24 -8 0 -15 9 -15 20 0 24
15 27 24 4z m-1358 -64 c-2 -22 -7 -44 -12 -48 -5 -4 -6 -3 -2 2 4 4 2 20 -3
34 -11 28 -6 52 11 52 6 0 8 -17 6 -40z m3787 -58 c-5 -51 -21 -92 -36 -92 -5
0 -6 11 -1 28 5 15 9 50 10 77 1 69 3 73 18 52 9 -11 12 -34 9 -65z m-2417 51
c-1 -17 -14 -32 -26 -33 -3 0 -6 11 -6 25 -1 18 3 25 16 25 11 0 17 -7 16 -17z
m527 3 c7 -18 -3 -56 -14 -56 -5 0 -9 16 -9 35 0 35 13 47 23 21z m-633 -10
c0 -16 -18 -31 -27 -22 -8 8 5 36 17 36 5 0 10 -6 10 -14z m2028 -10 c3 -13
-1 -17 -14 -14 -11 2 -20 11 -22 22 -3 13 1 17 14 14 11 -2 20 -11 22 -22z
m-3278 -51 c0 -14 -4 -25 -10 -25 -11 0 -14 33 -3 43 11 11 13 8 13 -18z
m1368 -47 c11 -76 9 -89 -10 -70 -15 15 -24 142 -11 142 5 0 14 -33 21 -72z
m471 58 c23 -27 29 -71 15 -102 -13 -29 -48 -74 -57 -74 -3 0 -3 28 -1 63 10
125 17 145 43 113z m1441 -20 c0 -14 5 -37 10 -52 10 -26 -1 -56 -15 -42 -13
12 -18 118 -6 118 6 0 11 -11 11 -24z m-3283 -32 c-3 -4 0 -16 8 -28 17 -23
20 -56 5 -56 -5 0 -7 6 -4 14 3 8 -2 25 -10 38 -14 22 -13 38 2 38 3 0 2 -3
-1 -6z m3793 -34 c0 -5 -5 -10 -11 -10 -5 0 -7 5 -4 10 3 6 8 10 11 10 2 0 4
-4 4 -10z m-20 -36 c0 -8 -7 -14 -15 -14 -15 0 -21 21 -9 33 10 9 24 -2 24
-19z m-3740 -34 c0 -5 -2 -10 -4 -10 -3 0 -8 5 -11 10 -3 6 -1 10 4 10 6 0 11
-4 11 -10z m1332 -90 c10 -41 20 -86 23 -100 l7 -25 -20 22 c-11 12 -23 44
-26 70 -13 93 -18 113 -27 107 -5 -3 -6 2 -3 10 11 28 29 -5 46 -84z m1932 78
c9 -36 7 -48 -9 -48 -10 0 -15 11 -15 35 0 39 14 47 24 13z m-1890 -49 c-9
-15 -20 -10 -32 15 -16 36 7 54 25 20 7 -15 10 -30 7 -35z m2347 45 c10 -13
10 -22 0 -47 -7 -18 -33 -93 -58 -167 -50 -148 -109 -274 -142 -304 -33 -30
-37 -10 -5 30 32 40 44 60 69 119 27 64 84 253 98 322 12 67 17 72 38 47z
m-1881 1 c0 -3 -11 -32 -25 -65 -14 -34 -25 -79 -25 -105 0 -29 -9 -64 -25
-95 -14 -27 -25 -55 -25 -62 0 -8 -11 -29 -24 -49 -13 -19 -30 -54 -37 -77
-12 -41 -37 -54 -31 -16 2 10 4 39 5 64 2 32 9 52 29 73 18 20 30 49 37 89 6
33 19 74 29 91 11 18 28 55 37 82 10 28 23 56 28 63 9 12 27 17 27 7z m-76
-40 c-4 -8 -10 -13 -15 -10 -4 3 -6 12 -3 20 4 8 10 13 15 10 4 -3 6 -12 3
-20z m1545 -52 c5 -21 12 -58 16 -83 5 -43 5 -44 -9 -20 -7 14 -20 44 -27 68
-10 36 -16 41 -33 37 -20 -6 -19 -5 3 14 32 29 39 27 50 -16z m-7 -130 c19
-29 37 -50 41 -47 3 3 10 -3 16 -14 8 -15 7 -21 -3 -25 -20 -8 -28 4 -14 20 6
8 7 13 2 11 -5 -1 -24 4 -42 12 -23 11 -35 25 -42 50 -22 78 -13 76 42 -7z
m-1917 -26 c0 -26 -20 -25 -23 2 -3 16 1 22 10 19 7 -3 13 -12 13 -21z m1935
-88 c45 -62 54 -111 14 -79 -14 12 -64 101 -64 115 0 17 24 0 50 -36z m-1905
-26 c8 -32 20 -68 25 -81 13 -29 13 -52 1 -52 -12 0 -51 103 -58 153 -9 58 13
45 32 -20z m70 -44 c-11 -16 -31 -10 -31 10 0 16 4 18 18 10 10 -6 16 -14 13
-20z m155 8 c0 -17 -25 -39 -69 -62 -32 -16 -34 -16 -57 6 -34 32 -30 39 24
39 27 0 57 6 68 15 24 18 34 19 34 2z m1765 -27 c-8 -26 25 -99 45 -100 10 0
11 -3 3 -11 -18 -18 -51 7 -63 49 -15 54 -13 82 6 82 11 0 14 -6 9 -20z m76
-41 c16 -31 2 -36 -26 -9 -31 29 -35 56 -5 40 11 -6 25 -20 31 -31z m-125 -43
c16 -25 39 -49 51 -55 13 -6 23 -17 23 -26 0 -18 1 -18 -40 -4 -25 9 -38 24
-56 63 -41 88 -28 100 22 22z m-1866 29 c7 -8 17 -12 22 -9 6 4 8 -1 4 -14 -6
-17 -3 -19 15 -15 12 3 24 0 29 -7 6 -10 14 -6 32 15 14 16 30 25 36 21 32
-19 -5 -60 -65 -72 -26 -5 -35 0 -67 32 -34 35 -46 64 -27 64 5 0 14 -7 21
-15z m2090 -24 c0 -5 -7 -14 -15 -21 -16 -14 -18 -10 -9 14 6 17 24 22 24 7z
m-90 -61 c-19 -12 -30 -12 -30 -1 0 10 31 20 40 14 2 -2 -2 -8 -10 -13z m1012
-347 c-7 -15 -16 -88 -22 -162 -13 -167 -43 -322 -70 -369 -12 -19 -19 -41
-16 -48 3 -8 -1 -14 -10 -14 -8 0 -19 -11 -24 -25 -5 -14 -13 -25 -18 -25 -4
0 -24 21 -43 48 -20 26 -57 75 -82 110 l-47 63 29 42 c16 23 53 69 82 102 97
109 160 194 190 256 29 60 53 77 31 22z m-3092 -473 c0 -5 -7 -7 -15 -4 -8 4
-15 8 -15 10 0 2 7 4 15 4 8 0 15 -4 15 -10z m3053 -35 c-7 -21 -12 -19 -10 4
0 11 5 18 9 15 4 -3 5 -11 1 -19z m-2992 -12 c13 -16 12 -17 -3 -4 -17 13 -22
21 -14 21 2 0 10 -8 17 -17z m2989 -42 c0 -11 -4 -23 -10 -26 -6 -4 -10 5 -10
19 0 14 5 26 10 26 6 0 10 -9 10 -19z m-704 -228 l25 -28 -6 29 c-5 25 -4 28
12 21 10 -4 28 -10 41 -12 12 -3 22 -9 22 -12 0 -4 -20 -52 -44 -107 -65 -144
-65 -143 -16 -192 42 -41 76 -60 88 -47 4 4 -13 24 -37 45 l-43 38 16 49 c9
28 27 60 40 72 22 21 23 21 47 3 13 -11 35 -23 49 -27 85 -25 336 -172 413
-241 20 -19 44 -34 52 -34 40 0 3 -37 -116 -114 -91 -59 -102 -69 -128 -116
-47 -88 -393 -449 -546 -571 -94 -75 -142 -102 -255 -141 -92 -31 -100 -33
-255 -33 -157 0 -161 1 -215 29 -185 96 -356 258 -508 481 -34 50 -72 103 -85
119 l-24 29 65 116 c36 64 71 132 78 151 7 22 20 36 32 38 17 3 252 -102 252
-112 0 -2 -18 -57 -40 -123 -44 -137 -71 -245 -59 -237 26 15 123 243 146 341
6 26 -24 47 -167 116 -52 25 -108 57 -125 71 l-30 24 22 29 c12 15 39 52 59
81 27 40 40 52 52 47 31 -13 156 -24 270 -25 61 0 112 -4 112 -9 0 -5 -24 -17
-52 -27 -95 -31 -162 -73 -144 -91 6 -6 21 -1 201 80 118 54 332 123 422 137
51 8 92 26 186 80 67 38 131 76 142 84 26 20 22 20 51 -11z m1074 -73 c-6 -4
-11 -10 -11 -14 3 -20 -13 -46 -26 -42 -8 3 -19 6 -24 6 -5 0 5 15 23 33 18
18 37 31 42 29 4 -3 3 -8 -4 -12z m-1824 -162 c4 -7 4 -10 -1 -6 -4 4 -14 3
-22 -3 -10 -9 -13 -8 -13 5 0 19 26 22 36 4z m-586 -104 c0 -8 -4 -12 -10 -9
-5 3 -10 10 -10 16 0 5 5 9 10 9 6 0 10 -7 10 -16z m-30 -37 c19 -23 20 -32
10 -61 -6 -18 -25 -55 -42 -82 -17 -27 -35 -63 -40 -80 -4 -17 -26 -59 -48
-93 -45 -69 -46 -74 -25 -91 8 -7 57 -71 107 -144 213 -302 495 -521 697 -542
75 -8 211 11 335 48 121 36 185 67 242 120 43 40 74 47 40 9 -22 -24 -75 -150
-76 -178 0 -13 5 -23 10 -23 6 0 10 6 10 13 0 8 19 52 42 98 23 46 44 102 47
123 7 43 25 59 28 24 2 -27 29 -135 48 -193 28 -86 116 -332 132 -369 l17 -39
-69 -64 c-39 -34 -78 -66 -87 -69 -10 -3 -18 -11 -18 -18 0 -16 46 -70 123
-147 l59 -58 -1 -163 c-1 -90 3 -255 8 -368 6 -113 15 -311 21 -440 14 -318
28 -468 45 -503 13 -27 13 -29 -5 -34 -35 -9 -30 -31 16 -68 24 -20 51 -52 58
-70 l14 -33 59 5 58 5 49 -84 c76 -128 153 -242 195 -290 l39 -43 17 40 c9 22
22 72 29 110 11 65 13 70 38 73 38 4 48 -16 133 -252 93 -260 134 -368 189
-503 67 -165 133 -369 182 -562 24 -96 60 -220 79 -275 36 -108 115 -404 115
-435 0 -17 -30 -18 -612 -27 -818 -11 -852 -11 -918 9 -30 9 -88 18 -128 20
-40 2 -75 7 -79 11 -9 9 15 306 37 447 10 70 26 187 35 260 8 74 25 194 37
268 22 132 22 135 4 240 -10 58 -40 204 -67 323 -27 120 -49 228 -49 241 0 13
-5 28 -10 33 -6 6 -15 51 -20 101 -5 49 -24 143 -41 209 -39 147 -58 245 -59
304 0 54 -18 93 -44 98 -18 4 -18 -2 -12 -85 3 -48 11 -167 16 -263 17 -308
49 -780 65 -955 8 -93 19 -280 25 -415 5 -135 15 -283 22 -330 11 -70 13 -325
5 -450 l-2 -25 -480 -8 c-565 -9 -833 -3 -854 18 -13 12 -11 27 12 113 15 54
36 155 47 223 11 68 31 171 44 229 14 58 34 155 45 215 11 61 41 182 66 270
25 88 64 250 86 360 22 110 49 232 59 270 11 39 31 124 45 190 14 66 35 149
45 185 35 118 90 410 76 410 -10 0 -46 -74 -42 -87 3 -7 -7 -64 -23 -126 -16
-61 -35 -141 -41 -177 -6 -35 -18 -83 -26 -107 -8 -24 -16 -58 -17 -76 -1 -17
-7 -38 -14 -44 -6 -7 -14 -32 -18 -55 -4 -24 -17 -88 -30 -143 -13 -55 -29
-127 -35 -160 -18 -93 -108 -451 -136 -539 -35 -112 -44 -157 -54 -275 -5 -58
-15 -109 -21 -115 -23 -22 8 610 37 749 21 100 58 220 116 370 68 177 227 639
239 696 13 60 43 107 71 111 19 2 24 11 30 50 11 79 106 348 122 348 3 0 29
-13 58 -28 29 -16 84 -41 123 -57 63 -25 77 -27 150 -21 105 8 309 45 351 62
44 19 57 39 18 30 -16 -3 -105 -15 -198 -26 -112 -14 -176 -26 -186 -35 -20
-18 -48 -19 -69 -2 -9 7 -34 19 -56 26 -112 37 -355 220 -355 267 0 19 16 18
24 -1 3 -9 18 -15 36 -15 17 0 70 -9 118 -19 48 -11 141 -27 207 -36 102 -14
292 -50 440 -85 38 -9 55 -6 42 6 -13 13 -294 84 -390 99 -56 8 -120 20 -142
25 -22 5 -60 10 -85 10 -25 0 -58 7 -75 16 -33 17 -242 54 -263 47 -7 -3 -12
-11 -10 -17 2 -7 53 -59 113 -116 68 -65 109 -112 108 -122 -2 -10 -21 -60
-43 -111 -22 -52 -40 -102 -40 -111 0 -9 -7 -19 -15 -22 -8 -4 -15 -13 -15
-21 0 -8 -20 -65 -45 -127 -24 -61 -67 -174 -95 -251 -27 -77 -55 -153 -61
-170 -6 -16 -28 -79 -49 -140 -20 -60 -58 -162 -83 -225 -131 -334 -140 -393
-173 -1054 -9 -181 -22 -351 -29 -378 -10 -40 -10 -51 0 -54 10 -4 9 -16 -5
-52 -10 -26 -23 -77 -30 -114 l-12 -68 -377 0 c-487 0 -542 5 -499 48 6 6 13
33 14 59 2 26 14 109 27 183 14 74 37 200 52 280 33 181 49 251 85 365 15 50
33 108 39 131 6 22 25 61 42 87 17 26 51 103 74 171 24 68 68 182 98 252 30
71 63 154 72 184 10 30 43 118 72 194 36 92 52 147 48 163 -3 13 -1 23 5 23
14 0 40 56 120 256 39 98 83 204 97 234 14 30 31 80 37 112 6 32 14 58 19 58
4 0 19 25 33 56 24 54 25 55 46 40 24 -17 68 -22 68 -7 0 11 -63 54 -112 77
-21 10 -38 20 -38 24 0 3 21 16 48 29 95 46 130 79 102 96 -23 14 -200 -90
-200 -118 1 -6 16 -30 34 -51 33 -38 34 -40 18 -65 -16 -24 -75 -162 -184
-433 l-52 -126 -78 59 c-43 33 -78 63 -78 66 0 3 15 25 34 47 55 68 57 85 86
636 6 113 18 295 28 405 24 281 22 426 -6 489 -23 49 -21 76 2 43 15 -19 36
-23 36 -6 0 6 -11 25 -25 43 -13 17 -36 58 -51 91 l-27 58 23 19 c12 10 28 18
36 18 7 0 22 10 34 22 l20 22 -24 25 c-28 31 -56 85 -90 173 -32 87 -61 142
-187 364 -62 108 -109 201 -109 216 0 35 27 65 183 204 72 65 168 152 212 193
95 88 159 131 196 131 14 0 43 13 63 29 24 19 54 32 84 36 26 4 54 8 62 10 37
8 70 -2 90 -28z m2320 -109 c30 -51 90 -146 133 -212 42 -65 77 -127 77 -137
0 -9 4 -19 8 -21 28 -11 189 -265 278 -437 l48 -94 -34 -26 c-19 -14 -57 -46
-85 -71 -28 -25 -92 -76 -143 -114 -82 -62 -92 -72 -92 -101 0 -17 7 -40 15
-51 8 -10 15 -27 15 -36 0 -10 7 -18 15 -18 13 0 75 -73 75 -89 0 -14 -87 -62
-149 -82 -123 -40 -146 -63 -101 -102 11 -9 20 -23 20 -31 0 -19 -49 -59 -120
-97 -90 -48 -88 -42 -79 -209 4 -80 13 -253 19 -385 6 -132 15 -269 20 -305 6
-36 15 -101 20 -145 18 -136 33 -160 143 -234 l48 -33 -31 -55 -31 -54 35 -40
c26 -28 87 -130 86 -143 0 -1 -37 -1 -83 -2 -45 -1 -120 -9 -167 -19 -61 -13
-130 -17 -245 -17 -205 0 -277 12 -313 49 -15 16 -37 35 -50 43 -18 12 -22 20
-15 38 5 12 3 89 -4 175 -27 341 -45 710 -50 1029 l-6 336 -83 83 c-46 46 -84
87 -84 92 0 4 14 13 30 19 28 9 110 103 122 138 2 8 -5 38 -17 65 -43 97 -165
505 -165 551 0 29 59 104 91 118 16 7 41 30 56 53 35 52 265 314 347 395 79
78 149 130 244 180 42 23 91 51 107 64 17 13 32 24 35 24 3 0 30 -42 60 -92z
m-430 -121 c0 -2 -18 -20 -40 -41 -22 -21 -40 -35 -40 -31 0 3 17 22 38 40 36
34 42 38 42 32z m-534 -594 c-4 -4 -12 -1 -19 7 -9 10 -9 11 1 6 7 -4 12 -2
13 6 0 11 2 11 6 0 3 -7 2 -16 -1 -19z m-1913 -2547 l25 -24 -22 -60 c-12 -34
-25 -64 -28 -68 -7 -6 -108 53 -108 62 0 9 35 60 59 87 30 33 41 34 74 3z
m1567 -33 c0 -13 -3 -13 -15 -3 -8 7 -12 16 -9 21 8 13 24 1 24 -18z m-6 -66
c-3 -15 -10 -24 -15 -21 -11 6 -12 48 -2 58 13 12 24 -11 17 -37z m1380 -86
l-59 -80 -81 6 c-102 7 -115 -3 -139 -111 -9 -42 -20 -76 -24 -76 -24 0 -198
281 -185 301 5 9 38 10 128 5 110 -6 130 -4 229 21 89 22 110 24 117 13 7 -11
12 -11 32 2 48 33 40 -2 -18 -81z m-1343 -42 c8 -41 21 -84 27 -97 7 -12 10
-27 7 -32 -3 -5 -1 -12 5 -15 6 -4 8 -15 5 -24 -3 -10 4 -65 15 -122 11 -57
20 -115 20 -129 0 -14 7 -38 15 -54 8 -15 15 -50 15 -76 0 -26 13 -93 30 -148
47 -160 50 -275 11 -542 -17 -118 -36 -271 -42 -340 -11 -124 -14 -139 -25
-128 -8 9 -22 218 -30 456 -4 117 -11 215 -16 218 -5 3 -2 14 7 24 9 10 15 23
12 28 -11 16 -97 930 -97 1025 0 64 23 38 41 -44z m-1228 -1564 c-3 -9 -8 -14
-10 -11 -3 3 -2 9 2 15 9 16 15 13 8 -4z m-16 -47 c-3 -8 -6 -5 -6 6 -1 11 2
17 5 13 3 -3 4 -12 1 -19z m1320 -510 c-17 -11 -28 1 -14 16 8 10 14 11 19 3
4 -6 2 -15 -5 -19z m-1402 2 c-3 -5 -12 -10 -18 -10 -7 0 -6 4 3 10 19 12 23
12 15 0z"/>
<path d="M4410 11181 c0 -6 4 -13 10 -16 6 -3 7 1 4 9 -7 18 -14 21 -14 7z"/>
<path d="M3850 9966 c0 -19 5 -38 10 -41 6 -4 10 10 10 34 0 23 -4 41 -10 41
-5 0 -10 -15 -10 -34z"/>
<path d="M220 9424 c0 -9 5 -14 12 -12 18 6 21 28 4 28 -9 0 -16 -7 -16 -16z"/>
<path d="M2436 9254 c-10 -25 -7 -34 9 -34 9 0 15 9 15 25 0 28 -15 34 -24 9z"/>
<path d="M1250 8182 c0 -13 12 -22 35 -29 28 -9 35 -8 35 2 0 16 -38 45 -57
45 -7 0 -13 -8 -13 -18z"/>
<path d="M572 7128 c-6 -6 -12 -19 -12 -27 0 -13 2 -13 16 1 9 9 15 21 13 27
-3 9 -8 8 -17 -1z"/>
<path d="M5065 6373 c8 -32 13 -39 21 -30 10 9 -5 57 -17 57 -7 0 -9 -10 -4
-27z"/>
<path d="M1732 9485 c-12 -15 -20 -30 -17 -33 9 -9 48 35 43 49 -3 8 -12 2
-26 -16z"/>
<path d="M2280 9190 c0 -11 5 -20 10 -20 6 0 10 9 10 20 0 11 -4 20 -10 20 -5
0 -10 -9 -10 -20z"/>
<path d="M3263 9193 c-7 -2 -13 -11 -13 -19 0 -12 4 -12 20 -4 32 17 26 37 -7
23z"/>
<path d="M3110 9035 c13 -14 26 -23 28 -20 7 7 -29 45 -41 45 -6 0 0 -11 13
-25z"/>
<path d="M4240 8911 c0 -12 6 -21 16 -21 9 0 14 7 12 17 -5 25 -28 28 -28 4z"/>
<path d="M2330 8791 c0 -10 30 -24 37 -17 3 3 2 9 -2 15 -8 13 -35 15 -35 2z"/>
<path d="M2549 8543 c-19 -21 -32 -43 -26 -43 12 0 48 41 45 50 -2 7 -10 4
-19 -7z"/>
<path d="M2534 8476 c-8 -22 3 -33 18 -18 9 9 9 15 0 24 -9 9 -13 7 -18 -6z"/>
<path d="M2620 8368 c0 -13 5 -30 10 -38 7 -11 10 -5 10 23 0 20 -4 37 -10 37
-5 0 -10 -10 -10 -22z"/>
<path d="M2545 8231 c-3 -5 -2 -12 3 -15 5 -3 9 1 9 9 0 17 -3 19 -12 6z"/>
<path d="M3950 7733 c0 -12 5 -25 10 -28 13 -8 13 15 0 35 -8 12 -10 11 -10
-7z"/>
<path d="M2046 7714 c-8 -21 -8 -24 3 -24 5 0 11 9 14 20 6 24 -8 27 -17 4z"/>
<path d="M3851 7421 c-7 -12 -7 -22 -2 -26 5 -3 13 4 16 16 9 28 -1 36 -14 10z"/>
<path d="M1822 7218 c5 -15 37 -18 41 -3 1 6 -9 12 -22 13 -16 3 -22 -1 -19
-10z"/>
<path d="M4170 7172 c0 -20 238 -228 248 -217 7 7 -140 157 -192 196 -39 29
-56 36 -56 21z"/>
<path d="M4031 7141 c41 -56 108 -131 134 -150 44 -31 44 -6 1 38 -20 20 -36
47 -36 59 0 16 -13 28 -50 47 -59 30 -67 31 -49 6z"/>
<path d="M4483 6895 c0 -8 4 -12 9 -9 5 3 6 10 3 15 -9 13 -12 11 -12 -6z"/>
<path d="M1480 6652 c0 -14 11 -21 26 -15 21 8 17 23 -6 23 -11 0 -20 -4 -20
-8z"/>
<path d="M2630 6520 c0 -5 9 -10 20 -10 11 0 20 5 20 10 0 6 -9 10 -20 10 -11
0 -20 -4 -20 -10z"/>
<path d="M2982 6519 c7 -20 45 -42 52 -30 4 6 -7 17 -25 26 -22 12 -30 13 -27
4z"/>
<path d="M2636 6474 c-4 -11 -13 -13 -28 -9 -22 7 -22 6 -6 -11 17 -17 18 -17
38 1 21 19 26 35 11 35 -5 0 -12 -7 -15 -16z"/>
<path d="M2727 6454 c-55 -40 -92 -93 -76 -109 5 -5 78 -12 162 -16 84 -3 160
-9 171 -14 16 -7 17 -5 11 16 -18 60 -67 105 -153 138 -29 12 -56 21 -60 21
-4 0 -29 -16 -55 -36z m143 -34 c22 -11 40 -27 40 -35 0 -13 -17 -15 -100 -13
-55 2 -100 6 -100 10 0 3 14 18 31 32 37 31 76 33 129 6z m80 -54 c0 -3 -4 -8
-10 -11 -5 -3 -10 -1 -10 4 0 6 5 11 10 11 6 0 10 -2 10 -4z"/>
<path d="M2955 6480 c3 -5 13 -10 21 -10 8 0 14 5 14 10 0 6 -9 10 -21 10 -11
0 -17 -4 -14 -10z"/>
<path d="M1857 6363 c-13 -12 -7 -33 8 -33 8 0 15 9 15 20 0 20 -11 26 -23 13z"/>
<path d="M2655 6290 c-3 -6 1 -7 9 -4 18 7 21 14 7 14 -6 0 -13 -4 -16 -10z"/>
<path d="M2320 6130 c0 -13 28 -25 38 -16 3 4 0 11 -8 16 -20 13 -30 12 -30 0z"/>
<path d="M2431 6076 c-19 -23 4 -28 24 -6 15 17 16 20 3 20 -9 0 -21 -6 -27
-14z"/>
<path d="M4020 8291 c-24 -4 -31 -9 -22 -14 15 -10 89 1 98 14 6 10 -21 10
-76 0z"/>
<path d="M4379 6533 c-13 -16 -12 -17 4 -4 9 7 17 15 17 17 0 8 -8 3 -21 -13z"/>
<path d="M4086 5874 c-11 -28 -6 -39 9 -20 8 11 15 23 15 28 0 14 -18 9 -24
-8z"/>
<path d="M3646 4924 c-4 -9 -4 -19 -2 -21 8 -8 26 8 26 23 0 19 -16 18 -24 -2z"/>
<path d="M2099 5583 c-13 -16 -12 -17 4 -4 16 13 21 21 13 21 -2 0 -10 -8 -17
-17z"/>
<path d="M2357 5464 c-9 -10 2 -24 19 -24 8 0 14 7 14 15 0 15 -21 21 -33 9z"/>
<path d="M1860 5375 c-10 -13 -9 -15 9 -15 11 0 21 4 21 9 0 18 -18 21 -30 6z"/>
<path d="M2406 5267 c3 -10 9 -15 12 -12 3 3 0 11 -7 18 -10 9 -11 8 -5 -6z"/>
<path d="M2396 5029 c-3 -46 -8 -202 -11 -345 -2 -144 -9 -272 -14 -285 -8
-24 -9 -24 -25 11 -9 19 -38 89 -64 154 -26 66 -53 121 -59 123 -22 8 55 -205
117 -323 l30 -59 -10 -95 c-5 -52 -10 -147 -10 -210 -1 -189 -16 -310 -49
-407 -17 -47 -40 -96 -51 -108 -27 -29 -25 -51 9 -110 28 -49 161 -185 181
-185 21 0 8 18 -61 85 -39 39 -77 83 -85 98 -17 31 -15 37 26 147 16 41 33
102 39 135 10 57 42 521 47 690 13 443 15 748 6 757 -7 7 -12 -16 -16 -73z"/>
<path d="M2580 5022 c0 -5 11 -19 25 -32 30 -28 34 -13 5 18 -22 23 -30 27
-30 14z"/>
<path d="M2704 4879 c-10 -17 13 -36 27 -22 12 12 4 33 -11 33 -5 0 -12 -5
-16 -11z"/>
<path d="M2061 4507 c-8 -10 -7 -14 2 -14 8 0 14 6 14 14 0 7 -1 13 -2 13 -2
0 -8 -6 -14 -13z"/>
<path d="M3530 576 c0 -22 17 -28 24 -10 9 22 8 24 -9 24 -8 0 -15 -6 -15 -14z"/>
<path d="M5170 5050 c-6 -11 -7 -20 -2 -20 10 0 32 21 32 32 0 16 -19 8 -30
-12z"/>
<path d="M5200 4980 c-7 -13 -7 -20 -1 -20 6 0 15 9 21 20 7 13 7 20 1 20 -6
0 -15 -9 -21 -20z"/>
<path d="M4400 4150 c-52 -22 -107 -40 -122 -40 -31 0 -47 -32 -28 -55 14 -17
106 -20 130 -5 13 8 12 10 -2 10 -36 0 -16 22 47 51 66 31 85 31 85 0 0 -20
50 -101 63 -101 5 0 7 4 5 8 -46 111 -57 140 -62 155 -7 22 -4 22 -116 -23z"/>
<path d="M4046 4088 c3 -5 10 -6 15 -3 13 9 11 12 -6 12 -8 0 -12 -4 -9 -9z"/>
<path d="M4470 4066 c0 -2 8 -10 18 -17 15 -13 16 -12 3 4 -13 16 -21 21 -21
13z"/>
<path d="M4726 3952 c-3 -5 1 -9 9 -9 8 0 12 4 9 9 -3 4 -7 8 -9 8 -2 0 -6 -4
-9 -8z"/>
<path d="M4823 2613 c9 -9 20 -13 24 -9 4 4 1 11 -7 16 -25 16 -35 11 -17 -7z"/>
<path d="M4223 2425 c0 -8 4 -12 9 -9 5 3 6 10 3 15 -9 13 -12 11 -12 -6z"/>
<path d="M4560 2178 c0 -21 0 -21 -21 -2 -15 13 -20 14 -17 5 9 -29 35 -36 57
-17 26 24 27 36 1 36 -14 0 -20 -7 -20 -22z"/>
<path d="M5673 10739 c14 -8 22 -8 30 0 8 8 3 11 -18 11 -26 -1 -28 -2 -12
-11z"/>
<path d="M656 10672 c-3 -5 1 -9 9 -9 8 0 12 4 9 9 -3 4 -7 8 -9 8 -2 0 -6 -4
-9 -8z"/>
<path d="M5363 6135 c0 -8 4 -12 9 -9 5 3 6 10 3 15 -9 13 -12 11 -12 -6z"/>
<path d="M2165 5780 c-3 -6 1 -7 9 -4 18 7 21 14 7 14 -6 0 -13 -4 -16 -10z"/>
<path d="M1766 2463 c-6 -14 -5 -15 5 -6 7 7 10 15 7 18 -3 3 -9 -2 -12 -12z"/>
<path d="M1765 2351 c-3 -5 -2 -12 3 -15 5 -3 9 1 9 9 0 17 -3 19 -12 6z"/>
</g>
</svg>
